<svg xmlns="http://www.w3.org/2000/svg" width="117.767" height="90.826" viewBox="0 0 117.767 90.826"><defs><style>.a{fill:#464749;}</style></defs><g transform="translate(-7923.261 -7330.353)"><path class="a" d="M7940.866,7407.309l.267-16.405h-12.271a2.271,2.271,0,0,1-2.4-2.4v-52.548a2.244,2.244,0,0,1,2.4-2.4h86.958a2.272,2.272,0,0,1,2.4,2.4v23.34h3.2v-23.34a5.42,5.42,0,0,0-5.6-5.6h-86.958a5.42,5.42,0,0,0-5.6,5.6v52.682a5.419,5.419,0,0,0,5.6,5.6h9.07l-.267,19.606,26.141-19.606h5.735v-3.2h-6.8Z"/><path class="a" d="M8036.76,7365.163h-56.816a3.96,3.96,0,0,0-4.135,4.135v34.41a3.96,3.96,0,0,0,4.135,4.134h33.876l17.872,13.337-.134-13.337h5.335a3.96,3.96,0,0,0,4.135-4.134V7369.3A4.165,4.165,0,0,0,8036.76,7365.163Zm.933,38.545c0,.266,0,.933-.933.933h-8.536l.133,10.136-13.47-10.136h-34.943c-.267,0-.934,0-.934-.933V7369.3c0-.267,0-.934.934-.934h56.816c.266,0,.933,0,.933.934Z"/></g></svg>