<svg id="Layer_1" data-name="Layer 1" xmlns="http://www.w3.org/2000/svg" width="159.1" height="159.1" viewBox="0 0 159.1 159.1">
  <defs>
    <style>
      .cls-1 {
        fill: #464749;
      }
    </style>
  </defs>
  <title>balaoa16b</title>
  <path class="cls-1" d="M133.6,2.2a23.2,23.2,0,0,1,23.2,23.2V133.5a23.2,23.2,0,0,1-23.2,23.2H25.5A23.2,23.2,0,0,1,2.3,133.5V25.5A23.2,23.2,0,0,1,25.5,2.3H133.6m0-2.2H25.5A25.6,25.6,0,0,0,0,25.5V133.6a25.6,25.6,0,0,0,25.5,25.5H133.6a25.6,25.6,0,0,0,25.5-25.5V25.5A25.6,25.6,0,0,0,133.6,0" transform="translate(0 0)"/>
  <g>
    <path class="cls-1" d="M38.3,111.1l0.3-16.4H26.3a2.3,2.3,0,0,1-2.4-2.1,2.2,2.2,0,0,1,0-.3V39.7a2.2,2.2,0,0,1,2.1-2.4h87.3a2.3,2.3,0,0,1,2.4,2.1,2.4,2.4,0,0,1,0,.3V63.1h3.2V39.7a5.4,5.4,0,0,0-5.2-5.6H26.3a5.4,5.4,0,0,0-5.6,5.2q0,0.2,0,.4V92.4A5.4,5.4,0,0,0,25.9,98h9.4l-0.3,19.6L61.2,98h5.7V94.8H60.1Z" transform="translate(0 0)"/>
    <path class="cls-1" d="M134.2,68.9H77.3a4,4,0,0,0-4.1,3.8q0,0.2,0,.4v34.4a4,4,0,0,0,3.8,4.1h34.2L129.1,125V111.6h5.3a4,4,0,0,0,4.1-3.8c0-.1,0-0.2,0-0.4V73.1a4.2,4.2,0,0,0-4.2-4.1h-0.1Zm0.9,38.5a0.8,0.8,0,0,1-.9.9h-8.5v10.1l-13.5-10.1H77.3a0.8,0.8,0,0,1-.9-0.9V73.1a0.8,0.8,0,0,1,.9-0.9h56.8a0.8,0.8,0,0,1,.9.9v34.4Z" transform="translate(0 0)"/>
  </g>
</svg>
