<?xml version="1.0" encoding="utf-8"?>
<!-- Generator: Adobe Illustrator 23.1.1, SVG Export Plug-In . SVG Version: 6.00 Build 0)  -->
<svg version="1.1" id="Camada_1" xmlns="http://www.w3.org/2000/svg" xmlns:xlink="http://www.w3.org/1999/xlink" x="0px" y="0px"
	 viewBox="0 0 51 106.5" style="enable-background:new 0 0 51 106.5;" xml:space="preserve">
<style type="text/css">
	.st0{fill:none;}
	.st1{fill:none;stroke:#005AAB;}
	.st2{enable-background:new    ;}
	.st3{fill:#005AAB;stroke:#005AAB;}
	.st4{fill:#FFFFFF;}
	.st5{fill:#005AAB;stroke:#0B5AAB;}
	.st6{fill:#FFFFFF;stroke:#FFFFFF;}
</style>
<g transform="translate(-1749 -119)">
	<g>
		<g transform="translate(1751 121)">
			<circle class="st0" cx="23.5" cy="23.5" r="25.5"/>
			<circle class="st1" cx="23.5" cy="23.5" r="25"/>
		</g>
		<g class="st2">
			<path class="st3" d="M1762.6,158.4l10.4-14.5l-9.4-13.4h3.2l7.8,11.1l8-11.1h3.1l-9.5,13.3l10.3,14.6h-3.4l-8.6-12.3l-8.8,12.3
				L1762.6,158.4L1762.6,158.4z"/>
		</g>
	</g>
	<g>
		<g transform="translate(1751 121)">
			<circle class="st4" cx="23.5" cy="79" r="25.5"/>
			<circle class="st5" cx="23.5" cy="79" r="25"/>
		</g>
		<g>
			<path class="st6" d="M1762.5,214l10.4-14.5l-9.4-13.4h3.2l7.8,11.1l8-11.1h3.1l-9.5,13.3l10.3,14.6h-3.4l-8.6-12.3l-8.8,12.3
				L1762.5,214L1762.5,214z"/>
		</g>
	</g>
</g>
</svg>
