<?xml version="1.0" encoding="utf-8"?>
<!-- Generator: Adobe Illustrator 23.1.1, SVG Export Plug-In . SVG Version: 6.00 Build 0)  -->
<svg version="1.1" id="Camada_1" xmlns="http://www.w3.org/2000/svg" xmlns:xlink="http://www.w3.org/1999/xlink" x="0px" y="0px"
	 viewBox="0 0 51 106.5" style="enable-background:new 0 0 51 106.5;" xml:space="preserve">
<style type="text/css">
	.st0{fill:none;}
	.st1{fill:none;stroke:#0B5AAB;}
	.st2{enable-background:new    ;}
	.st3{fill:#005AAB;}
	.st4{fill:#005AAB;stroke:#0B5AAB;}
	.st5{fill:#FFFFFF;}
</style>
<g transform="translate(-1749 -119)">
	<g>
		<g transform="translate(1751 121)">
			<circle class="st0" cx="23.5" cy="23.5" r="25.5"/>
			<circle class="st1" cx="23.5" cy="23.5" r="25"/>
		</g>
		<g class="st2">
			<path class="st3" d="M1768,133.1l-0.1-2.4c2.2-0.7,4.2-1,5.9-1c2.2,0,4.1,0.6,5.5,1.8c1.5,1.2,2.2,3,2.2,5.3c0,1.1-0.2,2-0.6,2.9
				s-0.8,1.6-1.4,2.2l-1.7,1.9l-1.7,1.9c-0.4,0.6-0.8,1.3-1.1,2.2s-0.4,1.8-0.4,2.8v0.6h-2.8v-0.5c0-1.3,0.2-2.5,0.7-3.6
				c0.5-1.1,1-1.9,1.6-2.6l2-2.1c0.7-0.7,1.3-1.5,1.8-2.5c0.5-1,0.7-2,0.7-3.2c0-1.4-0.5-2.5-1.4-3.4s-2.2-1.3-3.7-1.3
				C1772.2,132.1,1770.3,132.4,1768,133.1z M1771.6,158.1v-3.4h3.2v3.4H1771.6z"/>
		</g>
	</g>
	<g>
		<g transform="translate(1751 121)">
			<circle class="st3" cx="23.5" cy="79" r="25.5"/>
			<circle class="st4" cx="23.5" cy="79" r="25"/>
		</g>
		<g class="st2">
			<path class="st5" d="M1767.8,189.2l-0.1-2.4c2.2-0.7,4.2-1,5.9-1c2.2,0,4.1,0.6,5.5,1.8c1.5,1.2,2.2,3,2.2,5.3
				c0,1.1-0.2,2-0.6,2.9s-0.8,1.6-1.4,2.2l-1.7,1.9l-1.7,1.9c-0.4,0.6-0.8,1.3-1.1,2.2s-0.4,1.8-0.4,2.8v0.6h-2.8v-0.5
				c0-1.3,0.2-2.5,0.7-3.6c0.5-1.1,1-1.9,1.6-2.6l2-2.1c0.7-0.7,1.3-1.5,1.8-2.5c0.5-1,0.7-2,0.7-3.2c0-1.4-0.5-2.5-1.4-3.4
				s-2.2-1.3-3.7-1.3C1772,188.2,1770.1,188.5,1767.8,189.2z M1771.4,214.2v-3.4h3.2v3.4H1771.4z"/>
		</g>
	</g>
</g>
</svg>
