<?xml version="1.0" encoding="utf-8"?>
<!-- Generator: Adobe Illustrator 23.1.1, SVG Export Plug-In . SVG Version: 6.00 Build 0)  -->
<svg version="1.1" id="Camada_1" xmlns="http://www.w3.org/2000/svg" xmlns:xlink="http://www.w3.org/1999/xlink" x="0px" y="0px"
	 viewBox="0 0 282 36" style="enable-background:new 0 0 282 36;" xml:space="preserve">
<style type="text/css">
	.st0{fill:#EA635C;}
	.st1{fill:none;}
	.st2{fill:none;stroke:#EA635C;}
</style>
<g transform="translate(0.496)">
	<path class="st0" d="M17.5,4h41c7.7,0,14,6.3,14,14l0,0c0,7.7-6.3,14-14,14h-41c-7.7,0-14-6.3-14-14l0,0C3.5,10.3,9.8,4,17.5,4z"/>
	<g transform="translate(-0.496)">
		<path class="st1" d="M18,0h246c9.9,0,18,8.1,18,18l0,0c0,9.9-8.1,18-18,18H18C8.1,36,0,27.9,0,18l0,0C0,8.1,8.1,0,18,0z"/>
		<path class="st2" d="M18,0.5h246c9.7,0,17.5,7.8,17.5,17.5l0,0c0,9.7-7.8,17.5-17.5,17.5H18C8.3,35.5,0.5,27.7,0.5,18l0,0
			C0.5,8.3,8.3,0.5,18,0.5z"/>
	</g>
</g>
</svg>
