<svg id="Camada_1" data-name="Camada 1" xmlns="http://www.w3.org/2000/svg" width="52.3" height="52.5" viewBox="0 0 52.3 52.5">
  <defs>
    <style>
      .cls-1 {
        fill: #fff;
      }
    </style>
  </defs>
  <title>celebro2</title>
  <g>
    <path class="cls-1" d="M54.4,53.3H52.1V52.2h2.2a8.3,8.3,0,1,0,0-16.7V34.4a9.5,9.5,0,0,1,0,18.9h0Z" transform="translate(-11.5 -19.4)"/>
    <path class="cls-1" d="M27.2,35.1l-1.1-.2a10,10,0,0,1,18.5-3.3l-1,.6a8.9,8.9,0,0,0-16.4,3h0Z" transform="translate(-11.5 -19.4)"/>
    <path class="cls-1" d="M44.4,61.1H22.1a10.6,10.6,0,0,1,0-21.1v1.1a9.5,9.5,0,0,0,0,18.9H44.4a7.2,7.2,0,0,0,0-14.5V44.4a8.3,8.3,0,1,1,0,16.7h0Z" transform="translate(-11.5 -19.4)"/>
    <path class="cls-1" d="M13.8,44.3c0-.3,0-0.6,0-1A13.4,13.4,0,0,1,27.1,29.9h1.7v1.1H27.1A12.3,12.3,0,0,0,14.9,43.3c0,0.3,0,.6,0,0.9H13.8Z" transform="translate(-11.5 -19.4)"/>
    <path class="cls-1" d="M28.8,67.8a8.4,8.4,0,0,1-8.3-7.2h1.1a7.2,7.2,0,0,0,14.3.1L37,60.6A8.4,8.4,0,0,1,28.8,67.8Z" transform="translate(-11.5 -19.4)"/>
    <rect class="cls-1" x="28.5" y="65.6" width="12.2" height="1.11" transform="translate(-51.4 50.9) rotate(-65.5)"/>
    <path class="cls-1" d="M31,61.1V60a6.1,6.1,0,0,0,6.1-6.1h1.1A7.2,7.2,0,0,1,31,61.1Z" transform="translate(-11.5 -19.4)"/>
    <path class="cls-1" d="M51.6,49.2l-1-.6a7.2,7.2,0,0,0,.3-6.7l1-.5a8.2,8.2,0,0,1,.8,3.6A8.3,8.3,0,0,1,51.6,49.2Z" transform="translate(-11.5 -19.4)"/>
    <path class="cls-1" d="M38.8,45.2a18.3,18.3,0,0,0-10-3V41.1a19.4,19.4,0,0,1,10.6,3.1Z" transform="translate(-11.5 -19.4)"/>
    <path class="cls-1" d="M35.2,42.8l-1-.4a11.3,11.3,0,0,0,.7-4.1H36A12.4,12.4,0,0,1,35.2,42.8Z" transform="translate(-11.5 -19.4)"/>
    <path class="cls-1" d="M15.1,58.3a6.6,6.6,0,0,1-.2-1.6c0-4.3,3.7-6.7,7.2-6.7v1.1c-3,0-6.1,1.9-6.1,5.6a5.5,5.5,0,0,0,.2,1.4Z" transform="translate(-11.5 -19.4)"/>
    <path class="cls-1" d="M57.7,36a10.6,10.6,0,0,0-13.4-6.6l-1.7.7-0.5-1a11.7,11.7,0,0,1,16.7,6.5Z" transform="translate(-11.5 -19.4)"/>
    <rect class="cls-1" x="25.6" width="1.1" height="4.45"/>
    <rect class="cls-1" x="23.5" y="21.4" width="1.1" height="4.45" transform="translate(-18.7 -8.4) rotate(-22.5)"/>
    <rect class="cls-1" x="49.1" y="23.1" width="4.5" height="1.11" transform="translate(-1.7 42.6) rotate(-67.5)"/>
    <rect class="cls-1" x="13.2" y="27.6" width="1.1" height="4.72" transform="translate(-28.7 -0.9) rotate(-45)"/>
    <rect class="cls-1" x="59.2" y="29.4" width="4.7" height="1.11" transform="translate(-14.7 33) rotate(-45)"/>
  </g>
</svg>
