<svg id="Layer_1" data-name="Layer 1" xmlns="http://www.w3.org/2000/svg" width="159.1" height="159.1" viewBox="0 0 159.1 159.1">
  <defs>
    <style>
      .cls-1 {
        fill: #464749;
      }
    </style>
  </defs>
  <title>clipA16b</title>
  <path class="cls-1" d="M133.6,2.2a23.2,23.2,0,0,1,23.2,23.2V133.5a23.2,23.2,0,0,1-23.2,23.2H25.5A23.2,23.2,0,0,1,2.3,133.5V25.5A23.2,23.2,0,0,1,25.5,2.3H133.6m0-2.2H25.5A25.6,25.6,0,0,0,0,25.5V133.6a25.6,25.6,0,0,0,25.5,25.5H133.6a25.6,25.6,0,0,0,25.5-25.5V25.5A25.6,25.6,0,0,0,133.6,0" transform="translate(0 0)"/>
  <path class="cls-1" d="M116.4,53.4L102.8,40.2a4.3,4.3,0,0,0-3.4-1.4H79V33.1a8.5,8.5,0,0,0-8.5-8.5H69.8a8.5,8.5,0,0,0-8.5,8.5v5.7H45.8a4.5,4.5,0,0,0-4.4,4.4V130a4.5,4.5,0,0,0,4.4,4.4H99.3v-2.6H45.8a1.7,1.7,0,0,1-1.9-1.6,1.8,1.8,0,0,1,0-.3V43.1a1.9,1.9,0,0,1,1.9-1.9H76.5V76.4a6.2,6.2,0,0,1-6.2,6.2h-4a6.2,6.2,0,0,1-6.2-6.2V51.7a1.2,1.2,0,0,0-2.5,0V76.4a8.7,8.7,0,0,0,8.7,8.7h4A8.7,8.7,0,0,0,79,76.4V41.3H98.1V56.8a1.4,1.4,0,0,0,1.2,1.2h15.8v72a2,2,0,0,1-2.2,1.9h-2.1v2.6h2.1a4.6,4.6,0,0,0,4.7-4.4V56.8A5.4,5.4,0,0,0,116.4,53.4ZM76.6,38.8H63.9V33.1a6,6,0,0,1,6-6h0.7a6,6,0,0,1,6,6v5.7Zm24.1,16.7V42l1.2,1.1,11.6,11.3,1.1,1.2H100.7Z" transform="translate(0 0)"/>
</svg>
