<svg xmlns="http://www.w3.org/2000/svg" width="76.173" height="109.883" viewBox="0 0 76.173 109.883"><defs><style>.a{fill:#464749;}</style></defs><g transform="translate(-7952.596 -6405.24)"><path class="a" d="M8027.511,6433.987l-13.565-13.191a4.285,4.285,0,0,0-3.422-1.369h-20.408V6413.7a8.472,8.472,0,0,0-8.463-8.463h-.684a8.471,8.471,0,0,0-8.462,8.463v5.724h-15.555a4.5,4.5,0,0,0-4.356,4.355v86.861a4.5,4.5,0,0,0,4.356,4.356H8010.4v-2.551h-53.448a1.733,1.733,0,0,1-1.867-1.867v-86.8a1.949,1.949,0,0,1,1.867-1.866h30.675v35.093a6.24,6.24,0,0,1-6.222,6.222h-3.983a6.24,6.24,0,0,1-6.222-6.222v-24.64a1.245,1.245,0,0,0-2.489,0v24.7a8.737,8.737,0,0,0,8.711,8.711h3.983a8.737,8.737,0,0,0,8.711-8.711v-35.093h19.1v15.493a1.376,1.376,0,0,0,1.244,1.245h15.8v71.99a2.019,2.019,0,0,1-2.24,1.866h-2.053v2.551h2.053a4.579,4.579,0,0,0,4.729-4.355v-73.359A5.392,5.392,0,0,0,8027.511,6433.987Zm-39.822-14.56h-12.631V6413.7a5.975,5.975,0,0,1,5.973-5.974h.685a5.975,5.975,0,0,1,5.973,5.974Zm24.142,16.737V6422.6c.373.311,1.058,1,1.182,1.12l11.635,11.324c.187.187.809.809,1.12,1.183h-13.937Z"/></g></svg>