<svg xmlns="http://www.w3.org/2000/svg" xmlns:xlink="http://www.w3.org/1999/xlink" width="135" height="134" viewBox="0 0 135 134"><defs><style>.a{fill:#0b5aab;}.b{clip-path:url(#a);}</style><clipPath id="a"><rect class="a" width="135" height="134" transform="translate(-0.401 0.455)"/></clipPath></defs><g transform="translate(0.401 -0.455)"><g class="b"><path class="a" d="M210.162,194.81h12.973a2.162,2.162,0,0,0,2.162-2.162v-6.486A2.162,2.162,0,0,0,223.135,184H210.162A2.162,2.162,0,0,0,208,186.162v6.486a2.162,2.162,0,0,0,2.162,2.162m2.162-6.486h8.648v2.162h-8.648Z" transform="translate(-151.786 -134.272)"/><path class="a" d="M130.162,188.324h14.864a2.162,2.162,0,0,0,0-4.324H130.162a2.162,2.162,0,0,0,0,4.324" transform="translate(-93.407 -134.272)"/><path class="a" d="M168.378,208h-6.216a2.162,2.162,0,1,0,0,4.324h6.216a2.162,2.162,0,0,0,0-4.324" transform="translate(-116.758 -151.786)"/><path class="a" d="M434.81,432h-8.648a2.162,2.162,0,1,0,0,4.324h8.648a2.162,2.162,0,1,0,0-4.324" transform="translate(-309.409 -315.247)"/><path class="a" d="M434.81,408h-8.648a2.162,2.162,0,0,0,0,4.324h8.648a2.162,2.162,0,0,0,0-4.324" transform="translate(-309.409 -297.733)"/><path class="a" d="M434.81,456h-8.648a2.162,2.162,0,1,0,0,4.324h8.648a2.162,2.162,0,1,0,0-4.324" transform="translate(-309.409 -332.761)"/><path class="a" d="M434.81,240h-8.648a2.162,2.162,0,1,0,0,4.324h8.648a2.162,2.162,0,1,0,0-4.324" transform="translate(-309.409 -175.137)"/><path class="a" d="M434.81,216h-8.648a2.162,2.162,0,1,0,0,4.324h8.648a2.162,2.162,0,1,0,0-4.324" transform="translate(-309.409 -157.624)"/><path class="a" d="M434.81,264h-8.648a2.162,2.162,0,1,0,0,4.324h8.648a2.162,2.162,0,1,0,0-4.324" transform="translate(-309.409 -192.651)"/><path class="a" d="M110.267,30.269h21.621a2.162,2.162,0,0,0,2.162-2.162V2.162A2.162,2.162,0,0,0,131.888,0H110.267A2.162,2.162,0,0,0,108.1,2.162v10.81H92.97a2.162,2.162,0,0,0-2.162,2.162V116.753H62.228l2.57-10.286a2.161,2.161,0,0,0-2.1-2.686H58.377V99.456a2.162,2.162,0,0,0-2.162-2.162H41.08V67.025H74.592A5.411,5.411,0,0,0,80,61.62V22.7a5.415,5.415,0,0,0-4.324-5.3V2.162A2.162,2.162,0,0,0,73.511,0H6.486A2.162,2.162,0,0,0,4.324,2.162V6.594A5.415,5.415,0,0,0,0,11.892V57.153a2.162,2.162,0,1,0,4.324,0V11.892A1.081,1.081,0,0,1,5.405,10.81H24.721l5.857,9.762a2.162,2.162,0,0,0,1.854,1.049H74.592A1.081,1.081,0,0,1,75.673,22.7V61.62A1.081,1.081,0,0,1,74.592,62.7H9.351a2.162,2.162,0,0,0,0,4.324h27.4V97.294H31.6l-1.562-3.13a2.165,2.165,0,0,0-1.935-1.195H15.135a2.162,2.162,0,0,0-2.162,2.162v36.756a2.162,2.162,0,0,0,2.162,2.162h41.08a2.162,2.162,0,0,0,2.1-1.638l2.835-11.335H108.1v10.81a2.162,2.162,0,0,0,2.162,2.162h21.621a2.162,2.162,0,0,0,2.162-2.162V105.943a2.162,2.162,0,0,0-2.162-2.162H110.267a2.162,2.162,0,0,0-2.162,2.162v10.81H95.132V69.187H108.1V80a2.162,2.162,0,0,0,2.162,2.162h21.621A2.162,2.162,0,0,0,134.05,80V54.052a2.162,2.162,0,0,0-2.162-2.162H110.267a2.162,2.162,0,0,0-2.162,2.162v10.81H95.132V17.3H108.1v10.81a2.162,2.162,0,0,0,2.162,2.162m2.162-25.945h17.3V25.945h-17.3ZM71.349,17.3H33.656L27.8,7.535a2.162,2.162,0,0,0-1.854-1.049H8.648V4.324h62.7Zm-54.052,80h9.475l1.562,3.13a2.165,2.165,0,0,0,1.935,1.195H54.052v2.162H21.621a2.162,2.162,0,0,0-2.1,1.638L17.3,114.326Zm37.229,32.431H17.9L23.31,108.1h36.62Zm57.9-21.621h17.3v21.621h-17.3Zm0-51.89h17.3V77.835h-17.3Z"/><path class="a" d="M434.81,48h-8.648a2.162,2.162,0,1,0,0,4.324h8.648a2.162,2.162,0,1,0,0-4.324" transform="translate(-309.409 -35.027)"/><path class="a" d="M434.81,24h-8.648a2.162,2.162,0,1,0,0,4.324h8.648a2.162,2.162,0,1,0,0-4.324" transform="translate(-309.409 -17.514)"/><path class="a" d="M434.81,72h-8.648a2.162,2.162,0,1,0,0,4.324h8.648a2.162,2.162,0,1,0,0-4.324" transform="translate(-309.409 -52.541)"/></g></g></svg>