<svg xmlns="http://www.w3.org/2000/svg" xmlns:xlink="http://www.w3.org/1999/xlink" width="46.972" height="67.5" viewBox="0 0 46.972 67.5"><defs><style>.a{fill:#005aab;}.b{clip-path:url(#a);}</style><clipPath id="a"><rect class="a" width="46.972" height="67.5"/></clipPath></defs><g class="b"><path class="a" d="M46.268,59.729v6.645a1.125,1.125,0,1,1-2.25,0V59.729a9.356,9.356,0,0,0-9.362-9.362,6.907,6.907,0,0,1-5.943-3.337,1.125,1.125,0,1,1,1.921-1.171,4.674,4.674,0,0,0,4.021,2.257A11.605,11.605,0,0,1,46.268,59.729M27.5,51.018l-4.012,3.106-6.821-5.281a6.892,6.892,0,0,0,2.579-4.857,15.049,15.049,0,0,0,19.29-14.437c0-.088,0-7.877,0-7.964a1.125,1.125,0,0,0-1.121-1.054,4.63,4.63,0,0,1-2.936-.542A5.12,5.12,0,0,1,32.346,15.9a1.126,1.126,0,0,0-1.775-.925A36.254,36.254,0,0,1,14.62,21.3a1.125,1.125,0,0,0,.155,2.239,37.015,37.015,0,0,0,7.972-1.953,38.566,38.566,0,0,0,7.631-3.773,6.353,6.353,0,0,0,5.907,5v6.735a12.8,12.8,0,1,1-25.594,0V21.656a1.125,1.125,0,0,0-2.25,0v7.893a15.066,15.066,0,0,0,8.578,13.584v.3a4.69,4.69,0,0,1-4.7,4.689,11.6,11.6,0,0,0-4.152.765L7.439,48.3a13.741,13.741,0,0,1-2.88-18.379,15.543,15.543,0,0,0,2.615-8.643V15.188A12.953,12.953,0,0,1,20.112,2.25h6.75A12.952,12.952,0,0,1,39.8,15.188v6.094a15.464,15.464,0,0,0,2.6,8.625,13.742,13.742,0,0,1-.11,15.444,1.125,1.125,0,1,0,1.853,1.277,15.991,15.991,0,0,0,.128-17.971,13.221,13.221,0,0,1-2.224-7.375V15.188A15.2,15.2,0,0,0,26.862,0h-6.75A15.2,15.2,0,0,0,4.924,15.188v6.093a13.3,13.3,0,0,1-2.238,7.4,15.987,15.987,0,0,0,3.28,21.329A11.58,11.58,0,0,0,.706,59.729v6.645a1.125,1.125,0,1,0,2.25,0V59.729a9.356,9.356,0,0,1,9.362-9.362,6.973,6.973,0,0,0,2.189-.351l8.292,6.42a1.125,1.125,0,0,0,1.377,0l4.7-3.639A1.125,1.125,0,1,0,27.5,51.018" transform="translate(0)"/></g></svg>