<svg xmlns="http://www.w3.org/2000/svg" width="131.174" height="107.28" viewBox="0 0 131.174 107.28"><defs><style>.a{fill:#464749;}</style></defs><path class="a" d="M9657.035,2971.722h-6.605v-17.957h-2.013v-19.557h-10.269v19.557h-2.632v8.514h-3.354v6.3h-9.082v-27.453l-3.2-1.806v-15.48l-3.715-7.018h-8.824l3.768,6.553v28.9h-2.064v-28.329l-1.032-1.755v34.677h-6.244v-2.735h-1.7v16.719h-5.315V2906.6l-3.3-3.251v-23.325h-2.373v-4.953h2.063v2.889h2.426v24.563l3.3,3.251v63.006h1.187v-16.719h5.831v2.735H9606v-40.353l.155.31v-.052H9617.4l4.489,8.618v14.758l3.2,1.806v26.575h4.954v-6.295h3.354v-8.515h2.632v-19.557h14.448v19.557h2.013v18.009h2.477v-8.978h3.1v2.064h-1.032v8.978Zm-101.914-9.959h-5.315v-6.347h-1.961v-5.263h-3.3v-26.885h-9.03v-.516l-2.528,6.5v13.571h-2.941V2958.2h-3.148v-2.064h1.084v-15.378h2.941v-11.868l3.458-8.928h3.2v1.291h9.03v26.884h3.3v5.264h1.961v6.347H9553v-18.474l7.9-7.792h8.05v23.944h2.632V2929.1h3.973v-17.235l4.438-9.959h3.147v-23.892h1.909l3.2-7.018h.774v-6.553h2.063v8.617h-1.548l-3.2,7.018h-1.187v23.84h-3.819l-3.715,8.36v18.835h-4.025v28.329h-6.708V2935.5h-5.057l-6.708,6.6Zm93.605-30.7h-11.043v-8.772h11.043Zm-3.716-2.064h1.652v-4.644h-1.652V2926H9641.4v-1.651h-1.6V2929h1.6v-1.651h3.611Zm-99.076-9.392h-9.185v-9.7h1.909l1.91-5.263h.566v-5.728h3.406V2909.9h1.342v9.7Zm-7.12-2.064h5.057v-5.573h-1.341V2906.7h-.465l-1.909,5.263h-1.29v5.573Zm76.629-3.56h-6.863v-13h3.251l3.612,4.8Zm-4.8-2.064h2.735v-5.47l-2.58-3.458h-.155Z" transform="translate(-9526.894 -2864.442)"/></svg>