<?xml version="1.0" encoding="utf-8"?>
<!-- Generator: Adobe Illustrator 19.2.1, SVG Export Plug-In . SVG Version: 6.00 Build 0)  -->
<svg version="1.1" id="Camada_1" xmlns="http://www.w3.org/2000/svg" xmlns:xlink="http://www.w3.org/1999/xlink" x="0px" y="0px"
	 viewBox="0 0 283.5 283.5" style="enable-background:new 0 0 283.5 283.5;" xml:space="preserve">
<style type="text/css">
	.st0{display:none;}
	.st1{fill:#464749;}
</style>
<g id="Gridline" class="st0">
</g>
<g id="temp">
	<path class="st1" d="M45.4,283.5c-18.8,0-32.1-7.6-39.6-22.6C0.1,249.7,0,238.2,0,238.1V45.4C0,26.6,7.6,13.3,22.6,5.7
		C33.8,0.1,45.2,0,45.4,0h192.8c18.8,0,32.1,7.6,39.6,22.6c5.6,11.1,5.7,22.3,5.7,22.8v192.8c0,18.8-7.6,32.1-22.6,39.6
		c-11.1,5.6-22.3,5.7-22.8,5.7L45.4,283.5L45.4,283.5z M45.4,4c-0.1,0-10.7,0.1-21,5.3C10.8,16.1,4,28.2,4,45.4v192.8
		c0,0.1,0.1,10.7,5.3,21c6.8,13.5,18.9,20.4,36,20.4h192.8c0.4,0,10.8-0.2,21-5.3c13.5-6.8,20.4-18.9,20.4-36V45.4
		c0-0.4-0.2-10.8-5.3-21C267.4,10.8,255.2,4,238.1,4H45.4z M45.4,4L45.4,4L45.4,4z"/>
</g>
<g id="Layer_1">
	<path class="st1" d="M125.2,103.8c-20.6,0-37.4,16.8-37.4,37.4c0,9.4,3.5,18,9.3,24.6l-43,44.1c-0.8,0.8-0.8,2.1,0,2.8
		c0.4,0.4,0.9,0.6,1.4,0.6s1-0.2,1.4-0.6l42.9-44c6.7,6.2,15.6,9.9,25.3,9.9c20.6,0,37.4-16.8,37.4-37.4S145.8,103.8,125.2,103.8z
		 M125.2,174.6c-18.4,0-33.4-15-33.4-33.4s15-33.4,33.4-33.4s33.4,15,33.4,33.4C158.5,159.6,143.6,174.6,125.2,174.6z"/>
	<path class="st1" d="M199.6,54.6c-0.4-0.4-0.9-0.6-1.4-0.6H105c-5,0-9,4-9,9v30.4c0,1.1,0.9,2,2,2s2-0.9,2-2V63c0-2.8,2.2-5,5-5
		h91.1l0.1,26.6c0,1.1,0.9,2,2,2h26.7v134.5c0,2.8-2.2,5-5,5H105c-2.8,0-5-2.2-5-5v-21.8c0-1.1-0.9-2-2-2s-2,0.9-2,2v21.8
		c0,5,4,9,9,9h114.8c5,0,9-4,9-9V84.4C228.8,83.3,228.8,82.5,199.6,54.6z M200.1,82.6L200,60.8l22,21.8H200.1z"/>
</g>
</svg>
