<?xml version="1.0" encoding="utf-8"?>
<!-- Generator: Adobe Illustrator 19.2.1, SVG Export Plug-In . SVG Version: 6.00 Build 0)  -->
<svg version="1.1" id="Layer_1" xmlns="http://www.w3.org/2000/svg" xmlns:xlink="http://www.w3.org/1999/xlink" x="0px" y="0px"
	 viewBox="0 0 159.1 159.1" style="enable-background:new 0 0 159.1 159.1;" xml:space="preserve">
<style type="text/css">
	.st0{fill:#464749;}
</style>
<g>
	<polygon class="st0" points="74.9,111.2 74.9,68.2 84.3,68.2 84.3,103.7 86.7,103.7 86.7,65.8 72.5,65.8 72.5,113.6 83.9,113.6 
		84,111.2 	"/>
	<path class="st0" d="M86.7,46.2H72.5v13.7h14.2V46.2z M84.3,57.5h-9.4v-8.9h9.4V57.5z"/>
</g>
<g>
	<path class="st0" d="M133.6,2.3c12.8,0,23.2,10.4,23.2,23.2v108.1c0,12.8-10.4,23.2-23.2,23.2H25.5c-12.8,0-23.2-10.4-23.2-23.2
		V25.5c0-12.8,10.4-23.2,23.2-23.2L133.6,2.3 M133.6,0H25.5C11.5,0,0,11.5,0,25.5v108.1c0,14,11.5,25.5,25.5,25.5h108.1
		c14,0,25.5-11.5,25.5-25.5V25.5C159.1,11.5,147.6,0,133.6,0"/>
</g>
</svg>
