<svg xmlns="http://www.w3.org/2000/svg" width="67.791" height="89.159" viewBox="0 0 67.791 89.159"><defs><style>.a{fill:#464749;fill-rule:evenodd;}</style></defs><path class="a" d="M9560.476,3766.8l37.354,0,.095,0a1.081,1.081,0,0,1,.819.374l22.688,22.709a1.072,1.072,0,0,1,.375.817l0,.1-.023,58.7a6.471,6.471,0,0,1-6.455,6.457h-54.852v-.006a6.46,6.46,0,0,1-6.45-6.453h-.007v-76.241a6.476,6.476,0,0,1,6.457-6.455v0h0v0Zm5.915,56.906h32.05a1.076,1.076,0,0,0,0-2.152h-32.05a1.076,1.076,0,0,0,0,2.152Zm0-11.885h40.693a1.076,1.076,0,1,0,0-2.152h-40.693a1.076,1.076,0,0,0,0,2.152Zm0-11.184h37.624a1.077,1.077,0,1,0,0-2.154h-37.624a1.077,1.077,0,0,0,0,2.154Zm38.957,26.86a6.426,6.426,0,0,0-4.557,1.887l-.056.051a6.449,6.449,0,0,0,9.171,9.069l0,0,0,0a6.453,6.453,0,0,0,0-9.115l0,0a6.429,6.429,0,0,0-4.559-1.883Zm-6.08.365-.058.063a8.6,8.6,0,0,0,12.216,12.095l0,0a8.588,8.588,0,0,0,0-12.154l0,0,0,0,0,0a8.59,8.59,0,0,0-12.152,0Zm20.39-36.085h-16.35a6.444,6.444,0,0,1-4.561-1.9v0l0,0-.012-.011a6.442,6.442,0,0,1-1.887-4.55v-16.368l-36.371,0v.006h0v-.006a4.315,4.315,0,0,0-4.3,4.311V3849.5h0a4.322,4.322,0,0,0,4.306,4.311v0h54.852a4.318,4.318,0,0,0,4.31-4.3l.024-57.721ZM9599,3770.475v14.845a4.291,4.291,0,0,0,1.26,3.043l0,0a4.291,4.291,0,0,0,3.042,1.262h14.827Z" transform="translate(-9554.015 -3766.8)"/></svg>