<svg xmlns="http://www.w3.org/2000/svg" xmlns:xlink="http://www.w3.org/1999/xlink" width="87.938" height="90.135" viewBox="0 0 87.938 90.135"><defs><style>.a{fill:#005aab;}.b{clip-path:url(#a);}</style><clipPath id="a"><rect class="a" width="87.938" height="90.135"/></clipPath></defs><g transform="translate(-712 -286)"><g transform="translate(712 286)"><g class="b"><path class="a" d="M51.872,51.319a10.915,10.915,0,0,0-6.795-6.578L33.508,40.836V37.7a14,14,0,0,0,6.607-11.05A4.34,4.34,0,0,0,42.709,21.6a3.487,3.487,0,0,0-2.1-2.429l.243-3.527a14.636,14.636,0,1,0-29.2,0l.243,3.523A3.486,3.486,0,0,0,9.78,21.6a4.336,4.336,0,0,0,2.6,5.054A13.9,13.9,0,0,0,18.97,37.691v3.15L7.428,44.735A10.828,10.828,0,0,0,.378,52.078a10.955,10.955,0,0,0-.363,1.979c0,.029-.016.059-.016.089V83.908a4.656,4.656,0,0,0,4.652,4.631H18.377a10.56,10.56,0,0,1,1.156.544c.042.025.083.013.124.039a8.995,8.995,0,0,0,5.005,1.013H29.07a2.637,2.637,0,0,0,2.4-1.6H47.837a4.647,4.647,0,0,0,4.642-4.631V54.145c0-.029-.008-.059-.01-.089a10.9,10.9,0,0,0-.6-2.738m-16.58,1.937a1.064,1.064,0,0,0,.482.766l3.122,2L33.508,76.108v-30.7l4.471,4.439L35.573,52.4a1.062,1.062,0,0,0-.281.86M17.105,6.1a12.509,12.509,0,0,1,21.623,9.4l-.3,4.315a.26.26,0,0,1-.02.082l-.762.357-.316-1.3a16.239,16.239,0,0,0-6.668-9.622,1.064,1.064,0,0,0-1.465.263A11.066,11.066,0,0,1,19.006,14.17l-1.022-.11a1.59,1.59,0,0,0-1.751,1.411c0,.014,0,.029,0,.043l-.365,4.563c-.52-.1-1.187-.243-1.8-.385l-.289-4.2a12.385,12.385,0,0,1,3.335-9.4M2.128,54.191a5.965,5.965,0,0,1,.29-1.549,8.428,8.428,0,0,1,1.76-3.264,11.832,11.832,0,0,1,2.2,6.856V75.419H2.128ZM9.042,86.412H4.652a2.526,2.526,0,0,1-2.524-2.5V77.547H9.042Zm4.432,0h-2.3V77.547h2.3Zm1.049-10.992H8.51V56.234A13.954,13.954,0,0,0,5.772,47.94a9.073,9.073,0,0,1,2.335-1.188l9.832-3.315-5.669,5.63a1.064,1.064,0,0,0-.131,1.351l1.7,2.509-2.163,1.808a1.064,1.064,0,0,0-.343,1.1L16.722,75.4a2.814,2.814,0,0,1-.588.274,2.86,2.86,0,0,1-.728.175,1.028,1.028,0,0,0-.882-.426m12.186,5.673h3a.446.446,0,0,1,.1.886.433.433,0,0,1-.1,0H27.4a1.064,1.064,0,0,0-1.064,1.064,1.1,1.1,0,0,0,1.1,1.064H29.76a.443.443,0,1,1,0,.886H27.379a1.064,1.064,0,1,0,0,2.128h1.691a.443.443,0,1,1,0,.886H24.663a7.191,7.191,0,0,1-3.884-.694c-.053-.033-.106-.084-.16-.116A9.452,9.452,0,0,0,15.8,85.88h-.2V77.924a5.4,5.4,0,0,0,1.2-.232,4.9,4.9,0,0,0,2.919-2.581,1.143,1.143,0,0,1,1.229-.757h1.692l.048.85a1.09,1.09,0,0,0-.516,1.044,2.243,2.243,0,0,0,2.219,2.007h5.466a.355.355,0,1,1,0,.709H26.709a1.064,1.064,0,1,0,0,2.128m-4.955-8.865H21.1V72a1.027,1.027,0,0,0,.657.225M21.1,65.054v-4a5.53,5.53,0,0,0,1.057,1.715l.09,2.011h-.49a.936.936,0,0,0-.657.272m8.356-4.882a3.374,3.374,0,0,1-6.418,0Zm-6.4-2.128a3.372,3.372,0,0,1,6.388,0Zm5.163,6.18-.026.557H24.374l-.024-.519a5.2,5.2,0,0,0,3.864-.038M29.785,70.1H22.871V66.909h6.914ZM27.9,72.228l-.206,3.9H24.857l-.2-3.9Zm3.484,4.387a2.284,2.284,0,0,0-1.522-.487h-.038l.207-3.9h.785a1.2,1.2,0,0,0,.569-.142Zm0-11.655a1.033,1.033,0,0,0-.569-.179h-.495l.094-2.1a5.531,5.531,0,0,0,.97-1.607Zm0-7.82a5.5,5.5,0,0,0-10.283.038V55.563a1.064,1.064,0,0,0-2.128,0V72.774a3.045,3.045,0,0,0-.613.545l-4.79-17.39,2.376-1.986a1.064,1.064,0,0,0,.2-1.412L14.4,49.955,18.97,45.41v3.061a1.064,1.064,0,1,0,2.128,0v-5.02a11.769,11.769,0,0,0,10.283.009Zm0-16.111A9.631,9.631,0,0,1,21.1,41.017v-2.25a13.853,13.853,0,0,0,10.283,0Zm-5.142-3.4a11.725,11.725,0,0,1-11.7-11.748v-.037A1.089,1.089,0,0,0,13.63,24.8a2.233,2.233,0,0,1-1.8-2.6c.006-.033.013-.066.02-.1a1.342,1.342,0,0,1,.689-.9,2.1,2.1,0,0,0,.547.413,1.053,1.053,0,0,0,.242.089c3.549.833,3.729.7,4.125.413a1.1,1.1,0,0,0,.442-.788l.408-5.1.472.051a13.2,13.2,0,0,0,11.494-4.616,14.112,14.112,0,0,1,4.992,7.775l.623,2.568a1.064,1.064,0,0,0,1.484.713l2.156-1.008a1.06,1.06,0,0,0,.275-.186,2.373,2.373,0,0,0,.242-.266,1.339,1.339,0,0,1,.6.838,2.2,2.2,0,0,1-1.613,2.659c-.058.014-.116.026-.175.035a1.1,1.1,0,0,0-.915,1.047v.02A11.724,11.724,0,0,1,26.259,37.632h-.019Zm17.907,48.78H33.508V84.323l7.644-28.5a1.063,1.063,0,0,0-.451-1.17L38,52.925l2.24-2.372a1.064,1.064,0,0,0-.024-1.485l-5.676-5.639,9.872,3.329a9.111,9.111,0,0,1,2.4,1.231,13.922,13.922,0,0,0-2.668,8.246Zm6.205-2.5a2.517,2.517,0,0,1-2.514,2.5H46.274V56.234a11.793,11.793,0,0,1,2.119-6.792,8.287,8.287,0,0,1,1.5,2.588,6.545,6.545,0,0,1,.463,2.16Z" transform="translate(0 0)"/><path class="a" d="M310.064,290.9A1.064,1.064,0,0,0,309,291.96v1.117a1.064,1.064,0,0,0,2.128,0V291.96a1.064,1.064,0,0,0-1.064-1.064" transform="translate(-254.216 -239.322)"/><path class="a" d="M310.064,316.2A1.064,1.064,0,0,0,309,317.26v13.474a1.064,1.064,0,0,0,2.128,0V317.26a1.064,1.064,0,0,0-1.064-1.064" transform="translate(-254.216 -260.137)"/><path class="a" d="M294.026,97.46a1.064,1.064,0,0,0-1.064-1.064h-8.6a1.064,1.064,0,0,0,0,2.128h8.6a1.064,1.064,0,0,0,1.064-1.064" transform="translate(-233.073 -79.306)"/><path class="a" d="M368.342,97.46a1.064,1.064,0,0,0-1.064-1.064H356.251a1.064,1.064,0,0,0,0,2.128h11.028a1.064,1.064,0,0,0,1.064-1.064" transform="translate(-292.215 -79.306)"/><path class="a" d="M444.633,96.4h-3.188a1.064,1.064,0,0,0,0,2.128h3.188a1.064,1.064,0,0,0,0-2.128" transform="translate(-362.304 -79.306)"/><path class="a" d="M284.364,73.524h2.42a1.064,1.064,0,0,0,0-2.128h-2.42a1.064,1.064,0,0,0,0,2.128" transform="translate(-233.073 -58.738)"/><path class="a" d="M327.291,72.46a1.064,1.064,0,0,0-1.064-1.064h-5.338a1.064,1.064,0,1,0,0,2.128h5.338a1.064,1.064,0,0,0,1.064-1.064" transform="translate(-263.122 -58.738)"/><path class="a" d="M372.971,72.46a1.064,1.064,0,0,0,1.064,1.064h15.14a1.064,1.064,0,0,0,0-2.128h-15.14a1.064,1.064,0,0,0-1.064,1.064" transform="translate(-306.846 -58.738)"/><path class="a" d="M284.364,42.524h1.957a1.064,1.064,0,0,0,0-2.128h-1.957a1.064,1.064,0,0,0,0,2.128" transform="translate(-233.073 -33.234)"/><path class="a" d="M337.211,40.4H318.535a1.064,1.064,0,0,0,0,2.128h18.676a1.064,1.064,0,1,0,0-2.128" transform="translate(-261.185 -33.234)"/><path class="a" d="M449.13,42.524a1.064,1.064,0,1,0,0-2.128h-2.219a1.064,1.064,0,1,0,0,2.128Z" transform="translate(-366.801 -33.234)"/><path class="a" d="M295.264,122.4a1.064,1.064,0,1,0,0,2.128h5.522a1.064,1.064,0,0,0,0-2.128Z" transform="translate(-242.04 -100.696)"/><path class="a" d="M349.323,124.524h5.61a1.064,1.064,0,1,0,0-2.128h-5.61a1.064,1.064,0,0,0,0,2.128" transform="translate(-286.515 -100.696)"/><path class="a" d="M406.517,124.524H415.9a1.064,1.064,0,1,0,0-2.128h-9.381a1.064,1.064,0,0,0,0,2.128" transform="translate(-333.569 -100.696)"/><path class="a" d="M295.443,5.4h-32.8A4.645,4.645,0,0,0,258,10.041v19.61a4.645,4.645,0,0,0,4.645,4.643h2.226c2.939,0,3.391,2.257,3.622,4.739a7.1,7.1,0,0,0,.161,1.148,1.131,1.131,0,0,0,.915.858,1.011,1.011,0,0,0,.654-.105c.736-.289,3.813-1.79,4.642-6.482a.213.213,0,0,1,.19-.158h9.538a1.064,1.064,0,1,0,0-2.128h-9.538a2.329,2.329,0,0,0-2.287,1.916,6.76,6.76,0,0,1-2.216,4.183,9.416,9.416,0,0,0-.916-3.411,5.072,5.072,0,0,0-4.766-2.688h-2.225a2.517,2.517,0,0,1-2.518-2.517v-19.5a2.633,2.633,0,0,1,2.625-2.625h32.738a2.585,2.585,0,0,1,2.577,2.577V29.671a2.5,2.5,0,0,1-2.5,2.5h-3.886a1.064,1.064,0,0,0,0,2.128h3.805a4.719,4.719,0,0,0,4.7-4.7V10.149A4.767,4.767,0,0,0,295.443,5.4" transform="translate(-212.258 -4.439)"/></g></g></g></svg>