<svg xmlns="http://www.w3.org/2000/svg" width="93.4" height="78.7" viewBox="0 0 93.4 78.7"><defs><style>.a{fill:#0D2554;}</style></defs><g transform="translate(-3446.244 -126.748)"><path class="a" d="M3515.644,203.048h-65.1l42.4-71.5,42.5,71.5h-8.7l.1,2.4h12.8l-46.6-78.7-46.8,78.7h69.4Z"/><path class="a" d="M3500.151,159.829h-20.669l13.462-22.7,13.493,22.7h-2.762l.032.762h4.064l-14.8-24.987-14.859,24.987h22.034Z"/><path class="a" d="M3476.193,200.079h-20.669l13.462-22.7,13.493,22.7h-2.762l.032.762h4.064l-14.795-24.987-14.859,24.987h22.034Z"/><path class="a" d="M3523.98,200.079h-20.669l13.462-22.7,13.493,22.7H3527.5l.032.762h4.064L3516.8,175.854l-14.859,24.987h22.034Z"/></g></svg>