<svg id="Layer_1" data-name="Layer 1" xmlns="http://www.w3.org/2000/svg" width="159.1" height="159.1" viewBox="0 0 159.1 159.1">
  <defs>
    <style>
      .cls-1 {
        fill: #464749;
      }
    </style>
  </defs>
  <title>ico2a19b</title>
  <path class="cls-1" d="M133.6,2.2a23.2,23.2,0,0,1,23.2,23.2V133.5a23.2,23.2,0,0,1-23.2,23.2H25.5A23.2,23.2,0,0,1,2.3,133.5V25.5A23.2,23.2,0,0,1,25.5,2.3H133.6m0-2.2H25.5A25.6,25.6,0,0,0,0,25.5V133.6a25.6,25.6,0,0,0,25.5,25.5H133.6a25.6,25.6,0,0,0,25.5-25.5V25.5A25.6,25.6,0,0,0,133.6,0" transform="translate(0 0)"/>
  <path class="cls-1" d="M52.1,35H89.6a1.1,1.1,0,0,1,.8.4l22.7,22.7a1.1,1.1,0,0,1,.4.8h0v58.7a6.5,6.5,0,0,1-6.5,6.5H52.1a6.5,6.5,0,0,1-6.5-6.5h0V41.4A6.5,6.5,0,0,1,52.1,35h0ZM58,91.9h32a1.1,1.1,0,1,0,0-2.2H58A1.1,1.1,0,1,0,58,91.9ZM58,80H98.7a1.1,1.1,0,1,0,0-2.2H58A1.1,1.1,0,1,0,58,80Zm0-11.2H95.7a1.1,1.1,0,1,0,0-2.2H58A1.1,1.1,0,1,0,58,68.8ZM97,95.7a6.4,6.4,0,0,0-4.6,1.9H92.4a6.4,6.4,0,0,0,9.2,9.1h0a6.5,6.5,0,0,0,0-9.1h0A6.4,6.4,0,0,0,97,95.7h0Zm-6.1.4H90.8a8.6,8.6,0,0,0,12.2,12.1h0a8.6,8.6,0,0,0,0-12.1h0a8.6,8.6,0,0,0-12.1,0h0Zm20.4-36.1H94.9A6.4,6.4,0,0,1,90.4,58h0a6.4,6.4,0,0,1-1.9-4.6V37.1H52.1a4.3,4.3,0,0,0-4.3,4.3v76.2h0a4.3,4.3,0,0,0,4.3,4.3H107a4.3,4.3,0,0,0,4.3-4.3V60h0ZM90.6,38.6V53.5a4.3,4.3,0,0,0,1.3,3h0a4.3,4.3,0,0,0,3,1.3h14.8Z" transform="translate(0 0)"/>
</svg>
