<svg id="Layer_1" data-name="Layer 1" xmlns="http://www.w3.org/2000/svg" width="159.1" height="159.1" viewBox="0 0 159.1 159.1">
  <defs>
    <style>
      .cls-1 {
        fill: #464749;
      }
    </style>
  </defs>
  <title>ico3a19b</title>
  <path class="cls-1" d="M133.6,2.2a23.2,23.2,0,0,1,23.2,23.2V133.5a23.2,23.2,0,0,1-23.2,23.2H25.5A23.2,23.2,0,0,1,2.3,133.5V25.5A23.2,23.2,0,0,1,25.5,2.3H133.6m0-2.2H25.5A25.6,25.6,0,0,0,0,25.5V133.6a25.6,25.6,0,0,0,25.5,25.5H133.6a25.6,25.6,0,0,0,25.5-25.5V25.5A25.6,25.6,0,0,0,133.6,0" transform="translate(0 0)"/>
  <g>
    <path class="cls-1" d="M111.2,54.5a1,1,0,1,0-1.4,1.5c0.1,0.1,9.8,9.2,10,21.9s-5.6,19.2-10,23.5a1,1,0,0,0,0,1.4h0a1,1,0,0,0,1.4,0h0a33.6,33.6,0,0,0,10.6-25C121.6,64.3,111.6,54.9,111.2,54.5Z" transform="translate(0 0)"/>
    <path class="cls-1" d="M101.8,61.9a1,1,0,0,0-1.4.1,1,1,0,0,0,0,1.4h0c0.1,0.1,6.4,6.1,6.5,14.7A20.9,20.9,0,0,1,100.3,94a1,1,0,0,0,0,1.4h0a1,1,0,0,0,1.4,0h0a23.1,23.1,0,0,0,7.2-17.3C108.8,68.6,102.1,62.2,101.8,61.9Z" transform="translate(0 0)"/>
    <path class="cls-1" d="M86.5,37.4a8.5,8.5,0,0,0-6.1-2.6H45.8a8.2,8.2,0,0,0-6,2.6,8.8,8.8,0,0,0-2.5,6.2v72.2a8.6,8.6,0,0,0,8.6,8.6H73.5v-2H45.8a6.6,6.6,0,0,1-6.6-6.6v-8.9H87v8.9a6.6,6.6,0,0,1-6.6,6.6H79.5v2h0.9a8.6,8.6,0,0,0,8.6-8.6V43.6A8.8,8.8,0,0,0,86.5,37.4ZM87,104.8H39.3V49.3H87v55.5Zm0-57.5H39.3V43.6a6.8,6.8,0,0,1,6.6-6.8H80.5A6.8,6.8,0,0,1,87,43.6v3.7H87Z" transform="translate(0 0)"/>
    <path class="cls-1" d="M63.2,110.4a3.9,3.9,0,1,0,3.9,3.9,3.9,3.9,0,0,0-3.9-3.9h0Zm0,5.6a1.8,1.8,0,1,1,1.8-1.8h0a1.8,1.8,0,0,1-1.8,1.8h0Z" transform="translate(0 0)"/>
  </g>
</svg>
