<svg xmlns="http://www.w3.org/2000/svg" width="84.51" height="89.542" viewBox="0 0 84.51 89.542"><defs><style>.a{fill:#464749;}</style></defs><g transform="translate(-9561.217 -4635.551)"><path class="a" d="M9635.1,4655.28a1.007,1.007,0,1,0-1.373,1.474c.1.1,9.813,9.153,9.967,21.864.1,12.051-5.645,19.221-9.967,23.543a.983.983,0,0,0,0,1.423.984.984,0,0,0,1.425,0,33.557,33.557,0,0,0,10.575-25.016C9645.572,4665.042,9635.5,4655.686,9635.1,4655.28Z"/><path class="a" d="M9625.691,4662.7a1.03,1.03,0,0,0-1.425.051.985.985,0,0,0,.052,1.424c.051.051,6.406,6.051,6.509,14.695a20.894,20.894,0,0,1-6.561,15.864.986.986,0,0,0,0,1.424.985.985,0,0,0,1.425,0,23.112,23.112,0,0,0,7.17-17.288C9632.759,4669.364,9626,4663.008,9625.691,4662.7Z"/><path class="a" d="M9610.437,4638.195a8.488,8.488,0,0,0-6.051-2.644h-34.627a8.2,8.2,0,0,0-6.05,2.644,8.778,8.778,0,0,0-2.492,6.153V4716.5a8.615,8.615,0,0,0,8.593,8.593h27.661v-2.034h-27.712a6.575,6.575,0,0,1-6.559-6.559v-8.9h47.694v8.9a6.575,6.575,0,0,1-6.56,6.559h-.915v2.034h.915a8.615,8.615,0,0,0,8.594-8.593v-72.152A8.778,8.778,0,0,0,9610.437,4638.195Zm.458,67.372H9563.2v-55.474h47.694Zm0-57.508H9563.2v-3.711a6.753,6.753,0,0,1,6.559-6.763h34.627a6.754,6.754,0,0,1,6.561,6.763v3.711Z"/><path class="a" d="M9587.1,4711.211a3.865,3.865,0,1,0,3.865,3.865A3.863,3.863,0,0,0,9587.1,4711.211Zm0,5.644a1.831,1.831,0,1,1,1.831-1.83A1.822,1.822,0,0,1,9587.1,4716.855Z"/></g></svg>