<svg xmlns="http://www.w3.org/2000/svg" xmlns:xlink="http://www.w3.org/1999/xlink" width="81.5" height="66.704" viewBox="0 0 81.5 66.704"><defs><style>.a{fill:#005aab;}.b{clip-path:url(#a);}</style><clipPath id="a"><rect class="a" width="81.5" height="66.704"/></clipPath></defs><g class="b"><path class="a" d="M80.721,15.154,54.949,5.328a1.21,1.21,0,1,0-.862,2.262l22.806,8.695L61.1,22.3l-19.855-8.99a1.211,1.211,0,0,0-1,2.206l17.667,8L40.75,30.064,4.608,16.285,40.75,2.505l8.907,3.4a1.21,1.21,0,1,0,.862-2.262L41.182.079a1.211,1.211,0,0,0-.863,0L.779,15.154A1.212,1.212,0,0,0,0,16.285v5.528a1.212,1.212,0,0,0,.779,1.131l12.347,4.707v4.195a1.21,1.21,0,1,0,2.421,0V28.574l24.772,9.444a1.21,1.21,0,0,0,.863,0L59.854,30.9V50.056a41.011,41.011,0,0,1-44.307-3.925V36.687a1.21,1.21,0,1,0-2.421,0v10.03a1.21,1.21,0,0,0,.453.945,43.425,43.425,0,0,0,46.275,5.107v4.9a4.6,4.6,0,1,0,2.421,0V51.49a43.149,43.149,0,0,0,5.647-3.828,1.211,1.211,0,0,0,.454-.945V27.65l12.346-4.707a1.21,1.21,0,0,0,.779-1.131V16.285a1.211,1.211,0,0,0-.779-1.131M63.243,62.1a2.178,2.178,0,1,1-2.179-2.179A2.181,2.181,0,0,1,63.243,62.1M2.421,18.042,39.539,32.194V35.13L2.421,20.978ZM41.961,35.13V32.194l17.893-6.822v2.937Zm23.993,11a40.573,40.573,0,0,1-3.679,2.548v-18.7l3.679-1.4ZM62.275,27.385V24.449l16.8-6.407v2.936Z" transform="translate(0 0)"/></g></svg>