<svg xmlns="http://www.w3.org/2000/svg" width="35.626" height="94.377" viewBox="0 0 35.626 94.377"><defs><style>.a{fill:#0D2554;}</style></defs><g transform="translate(-3220.38 -327.014)"><path class="a" d="M3254.933,351.266h-2.468V329.912a2.886,2.886,0,0,0-2.9-2.9h-22.588a2.886,2.886,0,0,0-2.9,2.9v21.407h-2.629a1.076,1.076,0,0,0-1.073,1.073v34.875a8.495,8.495,0,0,0,8.477,8.477h1.61v8.424a2.518,2.518,0,0,0,2.521,2.522h.43v14.7h2.146v-14.7h5.419v14.7h2.146v-14.7h.053a2.519,2.519,0,0,0,2.522-2.522v-8.424h1.824a8.5,8.5,0,0,0,8.478-8.477V352.392A1.089,1.089,0,0,0,3254.933,351.266Zm-11.375,52.848a.367.367,0,0,1-.376.376h-10.194a.367.367,0,0,1-.375-.376v-8.423h10.945Zm10.3-16.9a6.344,6.344,0,0,1-6.332,6.332h-18.564a6.343,6.343,0,0,1-6.331-6.332v-33.8h21.14v-2.146h-17.438V329.912a.733.733,0,0,1,.751-.751h22.589a.733.733,0,0,1,.751.751v21.407h-1.771v2.146h5.312v33.748Z"/><path class="a" d="M3244.9,341.125a1.019,1.019,0,0,0-1.019,1.02v1.824a1.019,1.019,0,0,0,1.019,1.019,1.055,1.055,0,0,0,1.02-1.019v-1.824A1.056,1.056,0,0,0,3244.9,341.125Z"/><path class="a" d="M3231.647,341.125a1.019,1.019,0,0,0-1.019,1.02v1.824a1.018,1.018,0,0,0,1.019,1.019,1.055,1.055,0,0,0,1.019-1.019v-1.824A1.019,1.019,0,0,0,3231.647,341.125Z"/></g></svg>