<svg id="Layer_1" data-name="Layer 1" xmlns="http://www.w3.org/2000/svg" width="159.1" height="159.1" viewBox="0 0 159.1 159.1">
  <defs>
    <style>
      .cls-1 {
        fill: #464749;
      }
    </style>
  </defs>
  <title>ico4a19b</title>
  <path class="cls-1" d="M133.6,2.2a23.2,23.2,0,0,1,23.2,23.2V133.5a23.2,23.2,0,0,1-23.2,23.2H25.5A23.2,23.2,0,0,1,2.3,133.5V25.5A23.2,23.2,0,0,1,25.5,2.3H133.6m0-2.2H25.5A25.6,25.6,0,0,0,0,25.5V133.6a25.6,25.6,0,0,0,25.5,25.5H133.6a25.6,25.6,0,0,0,25.5-25.5V25.5A25.6,25.6,0,0,0,133.6,0" transform="translate(0 0)"/>
  <path class="cls-1" d="M44.7,119.4l19.2-6.7,39.6-46.6-1.8-1.6-38.4,45L51.7,99.6,96.3,47.1l13.3,11.5,3.1-3.6a6.5,6.5,0,0,0-.6-9.2H112l-5.1-4.4a6.5,6.5,0,0,0-9.2.6H97.6L48.5,99.9Zm4.2-8.6c1.2,0.3,3.3,1,3.8,3.3l-4.8,1.7Zm6.1,2.5c-0.8-3.1-3.5-4.4-5.6-4.9l1.3-6.6L61.4,111Zm55.9-59.9-1.5,1.7L97.8,45.2l1.5-1.7a4.1,4.1,0,0,1,2.9-1.5,4.5,4.5,0,0,1,3.1,1l5.1,4.4A4.3,4.3,0,0,1,110.9,53.4Z" transform="translate(0 0)"/>
</svg>
