<svg xmlns="http://www.w3.org/2000/svg" width="94.738" height="101.31" viewBox="0 0 94.738 101.31"><defs><style>.a{fill:#0D2554;}</style></defs><g transform="translate(-3445.575 -322.93)"><path class="a" d="M3535.174,337.8h-1.1a29.017,29.017,0,0,1-19.454-7.983l-.734-.826-.826.734c-.092.092-9.544,7.984-19.913,7.984V340c8.442,0,16.059-4.589,19.546-7.066v22.941h-18.262v-2.2h-2.294v1.377a18.549,18.549,0,0,0,2.478,8.626l2.019-1.1a20.812,20.812,0,0,1-1.836-4.588h17.9v22.3a97.375,97.375,0,0,1-7.8-6.974l-1.652,1.652a81.545,81.545,0,0,0,10,8.718l.643.459.642-.551c.826-.642,20.739-15.6,20.739-28.631Zm-20.372-4.588a31.028,31.028,0,0,0,18.078,6.883v15.783H3514.8Zm0,47.443V358.169h17.71C3530.31,367.253,3519.115,377.072,3514.8,380.651Z"/><path class="a" d="M3539.946,333.667h-1.1a33.546,33.546,0,0,1-12.939-2.57,34.412,34.412,0,0,1-11.287-7.341l-.734-.826-.826.734c-.092.092-11.654,9.819-24.593,9.911a14.666,14.666,0,0,0-6.057-1.376,14.041,14.041,0,1,0,0,28.08,13.287,13.287,0,0,0,5.414-1.1,16.6,16.6,0,0,0,.826,2.569l-15.784-.183h-.092a8.938,8.938,0,0,0-3.12.55,2.019,2.019,0,0,0-.734.092,3.236,3.236,0,0,1-.55.092c-3.029.275-6.608,1.652-7.617,4.68l-14.866,49.279a5.84,5.84,0,0,0,.55,4.955,6.679,6.679,0,0,0,5.048,2.937c.367,0,.642.091,1.009.091h.918c3.3-.367,6.332-2.569,7.249-5.414l2.661-9.085v2.2a8.951,8.951,0,0,0,8.9,9.085l18.17.183h.091a9.086,9.086,0,0,0,9.085-8.9l.092-5.415,3.487,11.747c.918,2.844,3.946,5.047,7.25,5.414h.917a3.759,3.759,0,0,0,1.01-.092,6.841,6.841,0,0,0,5.047-2.936,5.678,5.678,0,0,0,.551-4.864l-8.994-29.824c2.57,2.2,4.405,3.487,4.5,3.579l1.377-1.836s-3.121-2.294-7.067-5.781l-4.68-15.417c-1.009-2.936-4.588-4.313-7.524-4.588a8.818,8.818,0,0,0-2.2,0,6.966,6.966,0,0,0-1.927-.275,21.249,21.249,0,0,1-1.193-3.671,13.93,13.93,0,0,0,1.835-22.483c10.462-1.193,19.363-7.525,22.024-9.635a38.247,38.247,0,0,0,23.951,9.819v18.812q0,8.259-9.91,19.546a92.134,92.134,0,0,1-7.892,7.984l1.56,1.652a111.947,111.947,0,0,0,8.075-8.168c6.883-7.891,10.462-15.049,10.462-21.106ZM3485.8,364.042l-2.294,5.781h-3.854l-2.386-5.873Zm.459,32.485-4.68,5.689-4.68-5.689,2.386-24.5h4.5Zm-22.942,5.139-4.863,16.426a6.221,6.221,0,0,1-5.414,3.854,6.888,6.888,0,0,1-1.377,0,4.7,4.7,0,0,1-3.4-1.927,3.5,3.5,0,0,1-.367-3.028l14.866-49.279a4.34,4.34,0,0,1,2.661-2.386,9.534,9.534,0,0,0-1.835,5.323Zm37.349-34.229,14.867,49.37a3.222,3.222,0,0,1-.367,3.029,4.715,4.715,0,0,1-3.4,1.927,3.5,3.5,0,0,1-1.376,0,6.5,6.5,0,0,1-5.415-3.855l-5.506-18.536.276-28.356a9.037,9.037,0,0,0-2.294-6.057C3499.018,365.418,3500.3,366.244,3500.669,367.437Zm-7.983-3.12h.092a7.367,7.367,0,0,1,2.936,1.744,6.788,6.788,0,0,1,1.927,4.863l-.459,41.295a6.665,6.665,0,0,1-2.019,4.772,6.428,6.428,0,0,1-4.863,1.927l-18.17-.184a6.854,6.854,0,0,1-6.791-6.882l.092-9.911.092-.183h-.092l.367-31.2a6.835,6.835,0,0,1,6.791-6.791h2.2l2.386,5.965-2.661,27.347,6.974,8.442,6.975-8.442-2.753-27.347,2.385-5.781h2.753a12.973,12.973,0,0,1,1.836.367Zm1.652-18.078a12.025,12.025,0,1,1-12.022-11.746A11.985,11.985,0,0,1,3494.338,346.239Z"/></g></svg>