<svg xmlns="http://www.w3.org/2000/svg" width="69.617" height="79.712" viewBox="0 0 69.617 79.712"><defs><style>.a{fill:#464749;}</style></defs><path class="a" d="M9558.113,5594.882l19.2-6.7,39.6-46.6-1.8-1.6-38.4,45-11.6-9.9,44.6-52.5,13.3,11.5,3.1-3.6a6.544,6.544,0,0,0-.7-9.3l-5.1-4.4a6.538,6.538,0,0,0-9.3.7l-49.1,57.9Zm4.2-8.6c1.2.3,3.3,1,3.8,3.3l-4.8,1.7Zm6.1,2.5c-.8-3.1-3.5-4.4-5.6-4.9l1.3-6.6,10.7,9.2Zm55.9-59.9-1.5,1.7-11.6-9.9,1.5-1.7a4.142,4.142,0,0,1,2.9-1.5,4.452,4.452,0,0,1,3.1,1l5.1,4.4A4.276,4.276,0,0,1,9624.313,5528.882Z" transform="translate(-9558.113 -5515.169)"/></svg>