<svg xmlns="http://www.w3.org/2000/svg" xmlns:xlink="http://www.w3.org/1999/xlink" width="63.859" height="82.921" viewBox="0 0 63.859 82.921"><defs><style>.a{fill:#005aab;}.b{clip-path:url(#a);}</style><clipPath id="a"><rect class="a" width="63.859" height="82.921"/></clipPath></defs><g class="b"><path class="a" d="M61.81,58.473l-.029-.047q-.1-.171-.214-.339c-.04-.062-.081-.124-.122-.185s-.1-.148-.152-.222q-.1-.143-.2-.283c-.021-.028-.04-.056-.06-.084l-.045-.058q-.125-.165-.254-.326l-.09-.112c-.086-.1-.173-.208-.262-.31l-.11-.128c-.074-.083-.15-.165-.226-.246-.057-.061-.113-.122-.17-.182-.043-.045-.088-.088-.131-.132A14.079,14.079,0,0,0,53.671,52.2a1.191,1.191,0,0,0-.121-.029l-10.98-2.04-.058-.007a2.69,2.69,0,0,0-1.51.192,2.832,2.832,0,0,1-.634-1.71V46.614a17.621,17.621,0,0,0,2.018-1.5,14.263,14.263,0,0,0,4.8-9.414,3.775,3.775,0,0,0,3.595-3.767V29.1a3.755,3.755,0,0,0-1.377-2.913V19.677c3.97-1.957,4.833-4.238,4.833-5.847,0-2.762-2.572-6.218-6.713-9.022a27.7,27.7,0,0,0-31.2,0c-4.141,2.8-6.713,6.26-6.713,9.022,0,1.61.863,3.891,4.833,5.847v6.511A3.755,3.755,0,0,0,13.074,29.1v2.832A3.775,3.775,0,0,0,16.669,35.7a14.264,14.264,0,0,0,4.8,9.414,17.635,17.635,0,0,0,2.018,1.5V48.6a2.829,2.829,0,0,1-.634,1.71,2.687,2.687,0,0,0-1.568-.184l-10.981,2.04a1.191,1.191,0,0,0-.121.029,14.08,14.08,0,0,0-6.068,3.62c-.045.045-.09.09-.134.136s-.112.119-.168.179c-.077.082-.153.164-.228.249l-.109.126q-.134.154-.263.311l-.09.112q-.129.161-.254.326l-.045.058c-.021.028-.04.056-.06.084q-.1.14-.2.283-.077.111-.152.222-.061.092-.121.184-.11.168-.214.339l-.029.047A14.077,14.077,0,0,0,0,65.817V67.3a1.215,1.215,0,0,0,2.43,0V65.817a11.762,11.762,0,0,1,.514-3.447,3.974,3.974,0,0,0,2.485.871,4.092,4.092,0,0,0,.435-.023,3.98,3.98,0,0,0,2.691-1.469l1.322-1.64a4.006,4.006,0,0,0-.132-5.184c.349-.142.706-.27,1.071-.38l7.006-1.3,5.56,7.78a2.86,2.86,0,0,0,2.332,1.208A2.9,2.9,0,0,0,26.847,62l.37-.157,1.618,1.881L26.5,80.491H11.233V70.639a1.215,1.215,0,1,0-2.43,0v9.852H3.943A1.514,1.514,0,0,1,2.43,78.978V72.951a1.215,1.215,0,1,0-2.43,0v6.027a3.947,3.947,0,0,0,3.943,3.943H59.916a3.947,3.947,0,0,0,3.943-3.943V65.817a14.081,14.081,0,0,0-2.049-7.344m-53.825.112-1.322,1.64a1.575,1.575,0,0,1-2.216.238l-.507-.409q.163-.291.342-.571l0-.006c.1-.16.209-.316.319-.47l.1-.14q.146-.2.3-.393l.08-.1q.174-.214.359-.418l.109-.119c.121-.132.245-.261.372-.387l.033-.033a11.764,11.764,0,0,1,1.524-1.262l.266.215a1.575,1.575,0,0,1,.237,2.216m48.127-2.216.266-.215A11.717,11.717,0,0,1,57.9,57.415l.033.033c.127.126.251.256.372.387.036.039.073.079.109.119q.184.2.359.418l.08.1q.154.193.3.393c.034.046.067.093.1.14.109.154.217.31.319.47l0,.006q.179.28.342.571l-.507.409a1.576,1.576,0,0,1-2.216-.238l-1.322-1.64a1.577,1.577,0,0,1,.238-2.216M41.6,52.8l0,0,.318-.238a.255.255,0,0,1,.2-.046l1.275.237-4.9,6.857a.444.444,0,0,1-.538.151L34.35,58.227ZM31.929,57l-7.08-5.292A5.219,5.219,0,0,0,25.922,48.6v-.711a15.841,15.841,0,0,0,5.994,1.219h.027a15.846,15.846,0,0,0,5.994-1.219V48.6A5.218,5.218,0,0,0,39.01,51.71Zm2.365,3.842-1.107,1.287H30.671l-1.107-1.287,2.365-1ZM14.452,16.907c-1.562-.963-2.4-2.026-2.4-3.078,0-2.19,2.926-5.169,5.645-7.009a25.275,25.275,0,0,1,28.472,0c2.719,1.84,5.645,4.819,5.645,7.009,0,1.051-.841,2.115-2.4,3.078V14.7a3.752,3.752,0,0,0-2.824-3.636A66.269,66.269,0,0,0,31.169,8.906h-.016A53.7,53.7,0,0,0,17.19,11.039a3.767,3.767,0,0,0-2.738,3.613Zm4.214,4.266-.051-.032c-.079-.05-.155-.1-.228-.152l-.089-.062q-.09-.064-.175-.129l-.114-.089c-.045-.036-.089-.071-.131-.107s-.087-.076-.129-.115-.063-.057-.093-.086c-.048-.046-.092-.092-.135-.138l-.062-.066-.006-.007h20.4a1.215,1.215,0,1,0,0-2.43H16.882V14.653a1.328,1.328,0,0,1,.965-1.274,51.245,51.245,0,0,1,13.306-2.043h.014a63.8,63.8,0,0,1,14.813,2.08,1.323,1.323,0,0,1,1,1.282V17.76H43.718a1.215,1.215,0,1,0,0,2.43h2.689L46.4,20.2c-.02.022-.042.044-.062.066-.043.046-.088.092-.135.138-.03.029-.062.057-.093.086s-.085.076-.129.115-.086.071-.131.107l-.114.089q-.085.065-.175.129l-.089.062c-.074.051-.149.1-.228.152l-.051.032a12,12,0,0,1-1.794.909c-.014.006-.027.014-.041.021A30.875,30.875,0,0,1,31.93,23.987,30.873,30.873,0,0,1,20.5,22.1c-.014-.006-.027-.015-.041-.021a11.991,11.991,0,0,1-1.794-.909M18.78,24v2.367a6.742,6.742,0,0,0-1.9-.632V22.908A12.289,12.289,0,0,0,18.78,24m26.3,0a12.274,12.274,0,0,0,1.9-1.088v2.823a6.744,6.744,0,0,0-1.9.632ZM23.059,43.272a11.923,11.923,0,0,1-4.032-8.809,1.215,1.215,0,0,0-1.215-1.189h-.967A1.342,1.342,0,0,1,15.5,31.933V29.1A1.334,1.334,0,0,1,16,28.063a4.41,4.41,0,0,1,1.906.6l.02.013a2.812,2.812,0,0,1,.278.2l.031.026c.044.037.086.076.127.117s.074.069.112.1l.034.027q.044.034.089.065l.036.024c.041.027.083.052.126.074h0c.044.023.088.043.133.062l.038.015c.034.013.069.026.1.037l.039.012c.046.013.092.025.139.034h0c.048.009.1.016.145.021l.039,0q.055,0,.111.005h.041c.048,0,.1,0,.144-.007h0c.049,0,.1-.012.147-.022l.041-.009c.036-.008.072-.017.109-.027l.043-.012c.048-.015.1-.032.143-.051a1.672,1.672,0,0,0,1.031-1.547V24.922a36.967,36.967,0,0,0,10.719,1.495,36.967,36.967,0,0,0,10.719-1.495v2.906a1.672,1.672,0,0,0,1.031,1.547c.047.02.1.036.143.052l.041.012c.037.011.074.02.111.028l.039.008a1.65,1.65,0,0,0,.3.029h.039c.038,0,.076,0,.114-.006l.037,0a1.652,1.652,0,0,0,.287-.056l.038-.012c.035-.011.07-.023.1-.037l.037-.015c.045-.019.09-.039.133-.062h0c.043-.023.085-.048.126-.074l.036-.024c.03-.021.06-.042.089-.065l.035-.027c.039-.032.076-.065.112-.1s.083-.079.126-.116l.034-.029c.04-.033.08-.066.121-.1l.011-.009c.045-.033.09-.064.136-.094l.037-.024c.041-.026.082-.051.124-.074l.018-.011q.071-.04.143-.075l.036-.017c.043-.021.086-.041.13-.06l.018-.008c.05-.021.1-.041.15-.06l.027-.01q.071-.026.141-.05l.008,0c.052-.017.1-.033.156-.048l.006,0a5.106,5.106,0,0,1,.94-.174,1.334,1.334,0,0,1,.493,1.037v2.832a1.342,1.342,0,0,1-1.341,1.341h-.967a1.215,1.215,0,0,0-1.215,1.189A11.924,11.924,0,0,1,40.8,43.271a13.248,13.248,0,0,1-17.742,0M25.9,59.762a.445.445,0,0,1-.538-.151l-4.9-6.857,1.274-.237a.255.255,0,0,1,.2.046l.318.238.005,0,7.254,5.422Zm3.058,20.729,2.217-15.93h1.516L34.9,80.491Zm30.961,0h-4.86V70.639a1.215,1.215,0,0,0-2.43,0v9.852H37.358L35.024,63.722l1.618-1.881.37.157a2.9,2.9,0,0,0,1.133.232,2.86,2.86,0,0,0,2.332-1.208l5.559-7.78,7.006,1.3c.366.11.722.238,1.072.38a4.012,4.012,0,0,0-.133,5.184l1.322,1.64A3.979,3.979,0,0,0,58,63.217a4.088,4.088,0,0,0,.435.023,3.974,3.974,0,0,0,2.485-.872,11.764,11.764,0,0,1,.514,3.447V78.978h0a1.514,1.514,0,0,1-1.513,1.513"/><path class="a" d="M256.177,428.66h-6.4a1.987,1.987,0,0,0-1.985,1.985v3.409a1.987,1.987,0,0,0,1.985,1.985h6.4a1.987,1.987,0,0,0,1.985-1.985v-3.409a1.987,1.987,0,0,0-1.985-1.985m-5.954,2.43h5.508v2.519h-5.508Z" transform="translate(-207.662 -359.236)"/><path class="a" d="M90.87,428.659h-6.4a1.987,1.987,0,0,0-1.985,1.985v3.409a1.987,1.987,0,0,0,1.985,1.985h6.4a1.987,1.987,0,0,0,1.985-1.985v-3.409a1.987,1.987,0,0,0-1.985-1.985m-.445,4.949H84.917v-2.519h5.508Z" transform="translate(-69.128 -359.236)"/></g></svg>