<svg xmlns="http://www.w3.org/2000/svg" width="55.803" height="68.8" viewBox="0 0 55.803 68.8"><defs><style>.a{fill:#464749;}</style></defs><g transform="translate(-9567.928 -6416.159)"><path class="a" d="M9621.276,6470.779c-.273,1.091-.546,1.87-.7,2.376h-7.052a.765.765,0,0,0-.662.351,35.958,35.958,0,0,1-11.766,9.661,15.825,15.825,0,0,1-6.583-.428c.351-.156.74-.312,1.091-.468,3.507-1.558,4.947-2.259,4.947-3.389,0-.351,0-1.364-4.207-4.986a.144.144,0,0,1,.117-.039c1.441-.78,2.142-1.714,2.142-2.766-.038-1.559-1.636-2.844-3.7-3.974l.233-.117c1.6-.779,2.065-1.285,1.48-2.688a5.147,5.147,0,0,1-.272-.74c0-.078-.039-.117-.078-.195-.817-1.324-3.272-2.766-4.753-3.545a2.747,2.747,0,0,0,1.676-1.675c.429-1.753-2.1-3.428-2.883-3.934a9.121,9.121,0,0,0-5.064-1.637,15.145,15.145,0,0,0-3.779.78c-.389.116-.74.233-1.129.311-1.442.39-2.883.779-4.363,1.208a.789.789,0,1,0,.429,1.519c1.44-.428,2.922-.818,4.323-1.207.391-.117.779-.234,1.169-.312a13.488,13.488,0,0,1,3.39-.7,7.523,7.523,0,0,1,4.168,1.4c1.363.818,2.221,1.87,2.143,2.143-.078.35-1.013.74-1.519.935-.2.078-.391.155-.546.233-.818.39-1.637.779-2.493,1.169l-1.169.545a15.815,15.815,0,0,1-6.817,2.026c-2.8.039-4.869-.506-6.311-1.636a11.162,11.162,0,0,1-2.806-4.168,6.106,6.106,0,0,1,.117-4.324c.234-.312,2.416-3.195,4.948-3.584h.078c3.038-.78,10.439-1.559,13.05-1.208a.791.791,0,0,0,.779-.39c1.091-1.831.468-4.012.039-5.609a4.841,4.841,0,0,1-.156-.624v-.039a54.564,54.564,0,0,0-2.96-7.518c-.663-1.052-2.728-4.207-2.961-5.376-.546-2.649-.584-4.6-.2-5.766.74-1.285,2.922-3.856,4.4-4.129.39-.078.739-.234,1.013-.312a3.928,3.928,0,0,0,.39-.156c.155.234.429.974.74,3.662v.117c1.324,5.454,2.96,8.025,3.817,9.038s7.168,7.674,7.714,8.22c.974,1.246,1.948,2.493,2.883,3.74,1.869,2.454,3.817,5.025,5.882,7.4a10.147,10.147,0,0,0,1.13,1.091,5.994,5.994,0,0,0,3.974.857h.39c1.48,0,3.116.078,5.064.2a33.789,33.789,0,0,1,2.064,10.713,31.455,31.455,0,0,1-.194,3.428l1.6.2a34.991,34.991,0,0,0,.2-3.623,36.389,36.389,0,0,0-2.338-11.726.847.847,0,0,0-.7-.545c-2.143-.156-3.9-.273-5.492-.273h-.624c-1.014,0-2.259.039-2.921-.506a5.192,5.192,0,0,1-.936-.9c-2.025-2.338-3.974-4.87-5.8-7.324-.936-1.247-1.948-2.532-2.922-3.779l-.039-.039c-.077-.078-6.817-7.168-7.674-8.181-.623-.74-2.183-3.038-3.506-8.336-.352-3.195-.7-4.4-1.52-4.87a1.927,1.927,0,0,0-1.792.078,4.13,4.13,0,0,1-.74.234c-2.377.467-4.87,3.817-5.531,4.986a.144.144,0,0,0-.039.117c-.546,1.48-.508,3.662.077,6.7.272,1.286,1.754,3.74,3.194,5.922a55.042,55.042,0,0,1,2.767,7.09c.038.2.116.428.155.623a6.831,6.831,0,0,1,.312,3.935,58.646,58.646,0,0,0-13.05,1.324c-3.312.585-5.844,4.13-5.96,4.285l-.039.039a7.518,7.518,0,0,0-.312,5.571,12.612,12.612,0,0,0,3.039,4.714v.584a4.4,4.4,0,0,0-.974,5.1,8.482,8.482,0,0,0,3.193,3,2.251,2.251,0,0,0,.234.156c.2.117.39.234.506.312a2.622,2.622,0,0,1-.077.545,6.768,6.768,0,0,0,.155,3.272c.507,1.364,3.74,2.805,5.571,3.506a6.46,6.46,0,0,0,1.831,4.675,7.536,7.536,0,0,0,5.1,1.831h.351a15.837,15.837,0,0,0,4.908-1.285,18.305,18.305,0,0,0,6.623,1.246,11.06,11.06,0,0,0,2.61-.234c.078,0,.117-.039.2-.077a38.264,38.264,0,0,0,12.192-9.856h7.207a.825.825,0,0,0,.74-.468,21.086,21.086,0,0,0,.974-3.116Zm-46.515-1.324c-.039-.039-.078-.039-.117-.078-.038,0-.038-.039-.077-.039a6.593,6.593,0,0,1-2.571-2.3c-.584-1.363-.352-2.3.856-3.623a1.575,1.575,0,0,0,.2-.35,12.871,12.871,0,0,0,6.116,1.207c2.8-.039,4.947-.974,7.479-2.181l1.168-.546c.624-.272,1.208-.584,1.831-.857.039,0,.039.039.078.039,1.637.779,4.4,2.338,5.143,3.428.117.312.194.546.272.78a.655.655,0,0,1,.078.194c-.117.078-.351.2-.779.429-1.869.9-9.35,3.779-10.439,4.168C9580.177,6469.844,9575.7,6469.766,9574.762,6469.455Zm4.013,6.622a8.1,8.1,0,0,1-2.728-1.753,5.358,5.358,0,0,1-.077-2.493c.039-.195.039-.429.077-.623.936.077,2.221.155,4.013.155,1.169,0,2.532-.039,4.168-.078.078,0,.156-.038.273-.038.273-.117,5.376-2.065,8.57-3.351,1.286.624,3.974,2.065,3.974,3.195,0,.545-.818,1.09-1.325,1.363a33.133,33.133,0,0,1-3.389,1.519c-.35.156-.7.312-1.052.429a10.933,10.933,0,0,1-1.013.428,14.245,14.245,0,0,1-4.13,1.364,23.963,23.963,0,0,1-3.35,0c-.545-.039-1.091-.039-1.675-.039Zm8.609,7.246h-.078a6.049,6.049,0,0,1-4.246-1.4,5.034,5.034,0,0,1-1.324-4.013c0-.078,0-.117-.039-.156.312,0,.623.039.974.039.662.039,1.325.078,2.026.078a10.931,10.931,0,0,0,1.6-.078,14.692,14.692,0,0,0,4.636-1.48c.351-.156.662-.312.975-.429.35-.156.7-.272,1.052-.428.623-.273,1.246-.507,1.869-.779a3.215,3.215,0,1,1,.156,6.116c-.429.195-.818.389-1.246.584A21.8,21.8,0,0,1,9587.384,6483.323Z"/></g></svg>