<svg id="Layer_1" data-name="Layer 1" xmlns="http://www.w3.org/2000/svg" width="159.1" height="159.1" viewBox="0 0 159.1 159.1">
  <defs>
    <style>
      .cls-1 {
        fill: #464749;
      }
    </style>
  </defs>
  <title>ico5a19b</title>
  <path class="cls-1" d="M133.6,2.2a23.2,23.2,0,0,1,23.2,23.2V133.5a23.2,23.2,0,0,1-23.2,23.2H25.5A23.2,23.2,0,0,1,2.3,133.5V25.5A23.2,23.2,0,0,1,25.5,2.3H133.6m0-2.2H25.5A25.6,25.6,0,0,0,0,25.5V133.6a25.6,25.6,0,0,0,25.5,25.5H133.6a25.6,25.6,0,0,0,25.5-25.5V25.5A25.6,25.6,0,0,0,133.6,0" transform="translate(0 0)"/>
  <path class="cls-1" d="M116.7,109.1c-0.4,1.6-.8,2.7-1,3.5H105.4a1.1,1.1,0,0,0-1,.5,52.5,52.5,0,0,1-17.2,14.1,23.1,23.1,0,0,1-9.6-.6l1.6-.7c5.1-2.3,7.2-3.3,7.2-5s0-2-6.1-7.3h0.2c2.1-1.1,3.1-2.5,3.1-4s-2.4-4.2-5.4-5.8l0.3-.2c2.3-1.1,3-1.9,2.2-3.9l-0.4-1.1a0.6,0.6,0,0,0-.1-0.3c-1.2-1.9-4.8-4-6.9-5.2a4,4,0,0,0,2.4-2.4c0.6-2.6-3.1-5-4.2-5.7a13.3,13.3,0,0,0-7.4-2.4,22.1,22.1,0,0,0-5.5,1.1l-1.6.5-6.4,1.8a1.2,1.2,0,0,0,.6,2.2l6.3-1.8,1.7-.5a19.7,19.7,0,0,1,5-1,11,11,0,0,1,6.1,2c2,1.2,3.2,2.7,3.1,3.1s-1.5,1.1-2.2,1.4l-0.8.3-3.6,1.7-1.7.8a23.1,23.1,0,0,1-10,3c-4.1.1-7.1-.7-9.2-2.4a16.3,16.3,0,0,1-4.1-6.1,8.9,8.9,0,0,1,.2-6.3c0.3-.5,3.5-4.7,7.2-5.2h0.1c4.4-1.1,15.3-2.3,19.1-1.8a1.2,1.2,0,0,0,1.1-.6c1.6-2.7.7-5.9,0.1-8.2l-0.2-.9h0a79.8,79.8,0,0,0-4.3-11c-1-1.5-4-6.1-4.3-7.9-0.8-3.9-.9-6.7-0.3-8.4s4.3-5.6,6.4-6l1.5-.5,0.6-.2c0.2,0.3.6,1.4,1.1,5.4v0.2c1.9,8,4.3,11.7,5.6,13.2s10.5,11.2,11.3,12l4.2,5.5c2.7,3.6,5.6,7.3,8.6,10.8l1.7,1.6a8.8,8.8,0,0,0,5.8,1.3h0.6l7.4,0.3a49.4,49.4,0,0,1,3,15.7,45.9,45.9,0,0,1-.3,5l2.3,0.3a51.3,51.3,0,0,0,.3-5.3,53.1,53.1,0,0,0-3.4-17.1,1.2,1.2,0,0,0-1-.8c-3.1-.2-5.7-0.4-8-0.4H107c-1.5,0-3.3.1-4.3-.7a7.6,7.6,0,0,1-1.4-1.3c-3-3.4-5.8-7.1-8.5-10.7l-4.3-5.5H88.5c-0.1-.1-10-10.5-11.2-12s-3.2-4.4-5.1-12.2c-0.5-4.7-1-6.4-2.2-7.1a2.8,2.8,0,0,0-2.6.1l-1.1.3c-3.5.7-7.1,5.6-8.1,7.3v0.2c-0.8,2.2-.7,5.4.1,9.8,0.4,1.9,2.6,5.5,4.7,8.7a80.4,80.4,0,0,1,4,10.4l0.2,0.9a10,10,0,0,1,.5,5.8,85.7,85.7,0,0,0-19.1,1.9c-4.8.9-8.5,6-8.7,6.3H39.8a11,11,0,0,0-.5,8.1,18.4,18.4,0,0,0,4.4,6.9v0.9a6.4,6.4,0,0,0-1.4,7.5,12.4,12.4,0,0,0,4.7,4.4l0.3,0.2,0.7,0.5a3.8,3.8,0,0,1-.1.8,9.9,9.9,0,0,0,.2,4.8c0.7,2,5.5,4.1,8.1,5.1a9.4,9.4,0,0,0,2.7,6.8,11,11,0,0,0,7.5,2.7H67a23.1,23.1,0,0,0,7.2-1.9,26.7,26.7,0,0,0,9.7,1.8,16.2,16.2,0,0,0,3.8-.3H88a55.9,55.9,0,0,0,17.8-14.4h10.5a1.2,1.2,0,0,0,1.1-.7,30.8,30.8,0,0,0,1.4-4.6Zm-68-1.9H48.5a9.6,9.6,0,0,1-3.8-3.4c-0.9-2-.5-3.4,1.3-5.3l0.3-.5a18.8,18.8,0,0,0,8.9,1.8c4.1-.1,7.2-1.4,10.9-3.2l1.7-.8,2.7-1.3h0.1c2.4,1.1,6.4,3.4,7.5,5l0.4,1.1v0.3l-1.1.6c-2.7,1.3-13.7,5.5-15.3,6.1-5.6.2-12.1,0.1-13.5-.4h0Zm5.9,9.7a11.8,11.8,0,0,1-4-2.6,7.8,7.8,0,0,1-.1-3.6c0.1-.3.1-0.6,0.1-0.9s3.2,0.2,5.9.2H63l12.5-4.9c1.9,0.9,5.8,3,5.8,4.7s-1.2,1.6-1.9,2a48.4,48.4,0,0,1-5,2.2l-1.5.6-1.5.6a20.8,20.8,0,0,1-6,2,35,35,0,0,1-4.9,0H54.6Zm12.6,10.6H67.1a8.8,8.8,0,0,1-6.2-2,7.4,7.4,0,0,1-1.9-5.9,0.3,0.3,0,0,0-.1-0.2h6.7a21.5,21.5,0,0,0,6.8-2.2l1.4-.6,1.5-.6,2.7-1.1a4.7,4.7,0,1,1,.2,8.9l-1.8.9a31.8,31.8,0,0,1-9.3,2.8h0Z" transform="translate(0 0)"/>
</svg>
