<svg xmlns="http://www.w3.org/2000/svg" xmlns:xlink="http://www.w3.org/1999/xlink" width="87.731" height="71.215" viewBox="0 0 87.731 71.215"><defs><style>.a{fill:#005aab;}.b{clip-path:url(#a);}</style><clipPath id="a"><rect class="a" width="87.731" height="71.215"/></clipPath></defs><g class="b"><path class="a" d="M47.909,208.265a14.94,14.94,0,1,0,14.94,14.94,14.957,14.957,0,0,0-14.94-14.94m0,2.605A12.356,12.356,0,0,1,59.872,220.2a12.334,12.334,0,0,1-23.926,0,12.356,12.356,0,0,1,11.964-9.329m0,24.67a12.355,12.355,0,0,1-11.988-9.433,14.927,14.927,0,0,0,23.975,0,12.356,12.356,0,0,1-11.987,9.432" transform="translate(-27.32 -172.579)"/><path class="a" d="M86.392,43.326c0-.008-.251-.633-.352-.867l-11.1-26.9a14.713,14.713,0,0,0-6.872-7.493L67.028,5.534A8.946,8.946,0,0,0,49.811,8.946v3a14.682,14.682,0,0,0-3.259,9.233v.994H41.178v-.994a14.681,14.681,0,0,0-3.259-9.233v-3A8.946,8.946,0,0,0,20.7,5.534L19.659,8.065a14.712,14.712,0,0,0-6.871,7.493L9.939,22.463a1.3,1.3,0,1,0,2.408.993L15.2,16.551a12.148,12.148,0,0,1,23.378,4.632v19.43a20.566,20.566,0,0,0-30.787-6.1L10.6,27.7a1.3,1.3,0,0,0-2.408-.993l-6.5,15.753c-.1.234-.379.928-.392.972a20.589,20.589,0,1,0,39.88,7.2v-.838h5.375v.838a20.589,20.589,0,1,0,39.839-7.3M26.425,6.43a14.88,14.88,0,0,0-3.441.4l.126-.307a6.342,6.342,0,0,1,12.2,2.419v.472A14.677,14.677,0,0,0,26.425,6.43M58.758,2.6A6.339,6.339,0,0,1,64.62,6.527l.126.307a14.845,14.845,0,0,0-3.442-.4,14.677,14.677,0,0,0-8.889,2.988V8.946A6.349,6.349,0,0,1,58.758,2.6m-9.6,18.579a12.147,12.147,0,0,1,23.377-4.632l7.41,17.964a20.566,20.566,0,0,0-30.787,6.1Zm-2.605,16.1H41.178v-12.5h5.375ZM20.589,68.611A17.984,17.984,0,1,1,38.573,50.626,18,18,0,0,1,20.589,68.611M41.178,39.89h5.375v7.294H41.178ZM67.141,68.611A17.984,17.984,0,1,1,85.126,50.626,18,18,0,0,1,67.141,68.611"/><path class="a" d="M329.706,213.968a1.3,1.3,0,0,0-.257,1.824,12.233,12.233,0,0,1,2.106,4.4,12.335,12.335,0,0,1-23.929.012,12.337,12.337,0,0,1,18.859-7.225,1.3,1.3,0,0,0,1.459-2.159,14.946,14.946,0,1,0,3.586,3.408,1.3,1.3,0,0,0-1.823-.257M319.589,235.54a12.354,12.354,0,0,1-11.986-9.432,14.926,14.926,0,0,0,23.974,0,12.355,12.355,0,0,1-11.988,9.434" transform="translate(-252.448 -172.579)"/></g></svg>