<svg xmlns="http://www.w3.org/2000/svg" width="73.779" height="86.111" viewBox="0 0 73.779 86.111"><defs><style>.a{fill:#0D2554;}</style></defs><g transform="translate(-3201.303 -518.687)"><path class="a" d="M3274.6,594.074l-17.587-24.825a30.972,30.972,0,0,0,6.756-19.356,31.233,31.233,0,1,0-55.871,19.2l1.716-1.34a29.029,29.029,0,0,1,22.9-46.916,29.061,29.061,0,1,1-15.549,53.618l-1.126,1.823a31.17,31.17,0,0,0,16.729,4.826,30.365,30.365,0,0,0,11.045-2.038l17.533,24.665a2.326,2.326,0,0,0,3.378.589l9.544-6.863a2.517,2.517,0,0,0,1.019-1.608A2.929,2.929,0,0,0,3274.6,594.074Zm-4.88-3.11-9.865,7.293-11.314-15.925,9.919-7.346Zm-14.155-20,1.662,2.3-9.919,7.346-1.716-2.359A31.932,31.932,0,0,0,3255.565,570.965Zm17.212,24.772-9.545,6.863c-.107.107-.214.16-.375-.054l-1.769-2.466,9.865-7.346,1.877,2.627C3272.937,595.468,3272.991,595.576,3272.777,595.737Z"/><path class="a" d="M3232.724,527.266a22.675,22.675,0,0,1,22.2,18.337l2.091-.429a24.77,24.77,0,0,0-36.139-17.05,20.554,20.554,0,0,0-1.823,1.072l1.18,1.77a16.7,16.7,0,0,1,1.662-.965A22.551,22.551,0,0,1,3232.724,527.266Z"/></g></svg>