<svg id="Layer_1" data-name="Layer 1" xmlns="http://www.w3.org/2000/svg" width="159.1" height="159.1" viewBox="0 0 159.1 159.1">
  <defs>
    <style>
      .cls-1 {
        fill: #464749;
      }
    </style>
  </defs>
  <title>ico6a19b</title>
  <path class="cls-1" d="M133.6,2.2a23.2,23.2,0,0,1,23.2,23.2V133.5a23.2,23.2,0,0,1-23.2,23.2H25.5A23.2,23.2,0,0,1,2.3,133.5V25.5A23.2,23.2,0,0,1,25.5,2.3H133.6m0-2.2H25.5A25.6,25.6,0,0,0,0,25.5V133.6a25.6,25.6,0,0,0,25.5,25.5H133.6a25.6,25.6,0,0,0,25.5-25.5V25.5A25.6,25.6,0,0,0,133.6,0" transform="translate(0 0)"/>
  <g>
    <path class="cls-1" d="M51.3,57.1l-0.6-2L36,59.8a48.5,48.5,0,0,1,92.1,21.5h2.1A50.6,50.6,0,0,0,34.3,58.6L29.8,44.2l-2,.6,5.7,17.9Z" transform="translate(0 0)"/>
    <path class="cls-1" d="M131.3,114.2l-5.7-17.9L107.8,102l0.6,2,14.7-4.6A48.5,48.5,0,0,1,31.1,77.8H29a50.6,50.6,0,0,0,95.8,22.7l4.5,14.3Z" transform="translate(0 0)"/>
    <path class="cls-1" d="M87.9,50.6H71.4a9.2,9.2,0,0,0-9.2,9.2v7.8H55.7v33.6h47.7V67.6H97.1V59.8A9.2,9.2,0,0,0,87.9,50.6ZM64.3,59.8a7.1,7.1,0,0,1,7.1-7.1H87.9A7.1,7.1,0,0,1,95,59.8v7.8H93.8V61.2a7.5,7.5,0,0,0-7.5-7.5H73.1a7.5,7.5,0,0,0-7.5,7.5v6.4H64.4V59.8H64.3Zm37,39.3H57.7V69.6h9.9V61.2a5.5,5.5,0,0,1,5.5-5.5H86.3a5.5,5.5,0,0,1,5.5,5.5v6.4H74.3v2.1h27V99.1Z" transform="translate(0 0)"/>
    <path class="cls-1" d="M84.5,92.2l-2-8.3a4.7,4.7,0,0,0,1.7-3.7,4.7,4.7,0,1,0-9.5,0,4.8,4.8,0,0,0,1.7,3.7l-2,8.3H84.5Zm-5-14.6a2.7,2.7,0,0,1,2.7,2.6h0a2.7,2.7,0,0,1-1.3,2.3l-0.7.4,1.8,7.2H77.1L78.9,83l-0.7-.4a2.7,2.7,0,0,1-1.3-2.3,2.6,2.6,0,0,1,2.5-2.7h0.1Z" transform="translate(0 0)"/>
  </g>
</svg>
