<svg xmlns="http://www.w3.org/2000/svg" width="72" height="91.7" viewBox="0 0 72 91.7"><defs><style>.a{fill:#0D2554;}</style></defs><g transform="translate(-3456.944 -515.736)"><path class="a" d="M3492.944,515.736c12.1,11.1,26.4,14.5,34.6,14.5h1.2l.2,28.6c0,8.2-4.8,17.9-14.3,28.7a127.952,127.952,0,0,1-11,11.2l-.9.8-1.7-1.8.9-.8c4-3.7,7.6-7.4,10.8-11,9-10.4,13.6-19.5,13.6-27.1l-.1-26.2a49.018,49.018,0,0,1-17.5-3.7,54.372,54.372,0,0,1-15.8-9.9c-3.7,2.9-17.4,13.1-33.5,13.6l.1,26.2c0,20.4,34.3,45.6,34.6,45.9l1,.7-1.5,2-1-.7c-1.5-1.1-35.6-26.3-35.6-47.9l-.1-28.7h1.3C3466.444,530.136,3480.044,526.236,3492.944,515.736Z"/><path class="a" d="M3464.644,535.936h-1.3l.1,23.5c0,17.7,27.8,38.2,29,39l.5.4c.3-.2.6-.3.9-.5,1.3-.7,28.4-21.2,28.4-38.9l-.1-23.5h-1.2c-12.9,0-25.2-9.2-28-11.9C3483.544,531.636,3473.144,535.936,3464.644,535.936Zm27.1,58.9c-6-4.7-22.4-18.8-25.3-31.6h25.3Zm0-34.1h-25.7c0-.4-.1-.9-.1-1.3l-.1-21.1c11.5-.4,21.6-6.9,25.8-10l.1,32.4Zm2.5-32.2c3.9,3.2,12.9,9.5,25.4,9.9l.1,21a6.16,6.16,0,0,1-.1,1.3h-25.4Zm0,66.5v-31.8h25C3516.444,576.236,3499.844,590.536,3494.244,595.036Z"/></g></svg>