<svg xmlns="http://www.w3.org/2000/svg" xmlns:xlink="http://www.w3.org/1999/xlink" width="81" height="87" viewBox="0 0 81 87"><defs><style>.a{fill:#005aab;}.b{clip-path:url(#a);}</style><clipPath id="a"><rect class="a" width="81" height="87" transform="translate(-0.175 -0.402)"/></clipPath></defs><g transform="translate(0.176 0.402)"><g class="b"><path class="a" d="M263.062,19.832l-.53,2.837a37.684,37.684,0,0,1,21.019,11.866L285.7,32.61a40.587,40.587,0,0,0-22.64-12.778" transform="translate(-215.168 -16.254)"/><path class="a" d="M80.531,19.832A40.592,40.592,0,0,0,58.078,32.4l2.137,1.939A37.7,37.7,0,0,1,81.061,22.669Z" transform="translate(-47.6 -16.254)"/><path class="a" d="M5.02,166.295l-2.72-.963a40.6,40.6,0,0,0,0,26.942l2.72-.963a37.726,37.726,0,0,1,0-25.017" transform="translate(0 -135.504)"/><path class="a" d="M68.4,387.781l-2.033,2.051A40.2,40.2,0,0,0,87.324,400.84l.53-2.837A37.315,37.315,0,0,1,68.4,387.781" transform="translate(-54.394 -317.821)"/><path class="a" d="M288.549,386.371a37.425,37.425,0,0,1-18.323,10.189l.64,2.815A40.294,40.294,0,0,0,290.6,388.4Z" transform="translate(-221.474 -316.665)"/><path class="a" d="M423.82,181.93l-2.788.747a37.767,37.767,0,0,1-.861,22.238l2.72.963a40.646,40.646,0,0,0,.929-23.948" transform="translate(-344.367 -149.108)"/><path class="a" d="M399.217,112h-5.774A1.443,1.443,0,0,0,392,113.443h0v5.773a1.443,1.443,0,0,0,1.443,1.443h5.774a1.443,1.443,0,0,0,1.443-1.443h0v-5.773A1.443,1.443,0,0,0,399.217,112m-1.444,5.773h-2.887v-2.887h2.887Z" transform="translate(-321.279 -91.794)"/><path class="a" d="M207.217,0h-5.774A1.443,1.443,0,0,0,200,1.443h0V7.216a1.443,1.443,0,0,0,1.443,1.443h5.774a1.443,1.443,0,0,0,1.443-1.443h0V1.443A1.443,1.443,0,0,0,207.217,0m-1.444,5.773h-2.887V2.887h2.887Z" transform="translate(-163.918 0)"/><path class="a" d="M23.217,104H17.443A1.443,1.443,0,0,0,16,105.443h0v5.773a1.443,1.443,0,0,0,1.443,1.443h5.774a1.443,1.443,0,0,0,1.443-1.443h0v-5.773A1.443,1.443,0,0,0,23.217,104m-1.444,5.773H18.887v-2.887h2.887Z" transform="translate(-13.113 -85.237)"/><path class="a" d="M23.217,328H17.443A1.443,1.443,0,0,0,16,329.443h0v5.773a1.443,1.443,0,0,0,1.443,1.443h5.774a1.443,1.443,0,0,0,1.443-1.443h0v-5.773A1.443,1.443,0,0,0,23.217,328m-1.444,5.773H18.887v-2.887h2.887Z" transform="translate(-13.113 -268.825)"/><path class="a" d="M207.217,432h-5.774A1.443,1.443,0,0,0,200,433.443h0v5.773a1.443,1.443,0,0,0,1.443,1.443h5.774a1.443,1.443,0,0,0,1.443-1.443h0v-5.773A1.443,1.443,0,0,0,207.217,432m-1.444,5.773h-2.887v-2.887h2.887Z" transform="translate(-163.918 -354.062)"/><path class="a" d="M391.217,328h-5.774A1.443,1.443,0,0,0,384,329.443h0v5.773a1.443,1.443,0,0,0,1.443,1.443h5.774a1.443,1.443,0,0,0,1.443-1.443h0v-5.773A1.443,1.443,0,0,0,391.217,328m-1.444,5.773h-2.887v-2.887h2.887Z" transform="translate(-314.722 -268.825)"/><path class="a" d="M92.866,80a28.866,28.866,0,1,0,28.866,28.866A28.866,28.866,0,0,0,92.866,80m-8.437,4.321a24.416,24.416,0,0,0-4.045,6.543c-1.87-.211-3.686-.466-5.426-.771a25.988,25.988,0,0,1,9.471-5.772M72.646,92.592c2.121.423,4.351.781,6.678,1.061a47.484,47.484,0,0,0-2.3,13.77H66.96a25.831,25.831,0,0,1,5.686-14.831M66.96,110.309H77.028a47.489,47.489,0,0,0,2.3,13.77c-2.328.279-4.557.637-6.678,1.061a25.833,25.833,0,0,1-5.686-14.831m8,17.33c1.74-.305,3.556-.561,5.426-.771a24.419,24.419,0,0,0,4.045,6.543,25.992,25.992,0,0,1-9.471-5.772m16.465,7.026c-3.089-.72-5.882-3.716-7.951-8.1,2.577-.211,5.238-.335,7.951-.367Zm0-11.35c-3.113.036-6.166.187-9.107.453a44.207,44.207,0,0,1-2.4-13.459H91.423Zm0-15.893H79.914a44.21,44.21,0,0,1,2.4-13.459c2.94.266,5.994.417,9.107.453Zm0-15.893c-2.712-.032-5.373-.156-7.951-.367,2.069-4.379,4.861-7.376,7.951-8.1Zm27.35,15.893H108.7a47.483,47.483,0,0,0-2.3-13.77c2.328-.279,4.558-.637,6.678-1.061a25.833,25.833,0,0,1,5.686,14.831m-8-17.33c-1.74.305-3.556.561-5.426.771A24.415,24.415,0,0,0,101.3,84.32a25.99,25.99,0,0,1,9.471,5.772M94.309,83.067c3.089.72,5.882,3.716,7.951,8.1-2.577.211-5.238.335-7.951.367Zm0,11.35c3.113-.036,6.166-.187,9.107-.453a44.2,44.2,0,0,1,2.4,13.459H94.309Zm0,15.893h11.508a44.2,44.2,0,0,1-2.4,13.459c-2.94-.266-5.994-.417-9.107-.453Zm0,24.356V126.2c2.712.032,5.373.156,7.951.367-2.069,4.379-4.861,7.376-7.951,8.1m6.994-1.254a24.412,24.412,0,0,0,4.046-6.543c1.87.211,3.686.466,5.426.771a25.985,25.985,0,0,1-9.471,5.772m11.783-8.271c-2.121-.423-4.351-.781-6.678-1.061a47.478,47.478,0,0,0,2.3-13.77h10.069a25.831,25.831,0,0,1-5.686,14.831" transform="translate(-52.454 -65.567)"/></g></g></svg>