<svg xmlns="http://www.w3.org/2000/svg" width="70.4" height="66.475" viewBox="0 0 70.4 66.475"><defs><style>.a{fill:#464749;}</style></defs><g transform="translate(-9554.548 -7275.446)"><path class="a" d="M9570.528,7293.423l-.421-1.332-9.987,3.154a33.017,33.017,0,0,1,62.621,14.612h1.4a34.424,34.424,0,0,0-65.178-15.453l-3.084-9.742-1.332.421,3.855,12.159Z"/><path class="a" d="M9624.948,7332.249l-3.854-12.159-12.125,3.854.42,1.332,9.988-3.154a33.017,33.017,0,0,1-62.621-14.612h-1.4a34.425,34.425,0,0,0,65.18,15.453l3.084,9.742Z"/><path class="a" d="M9595.443,7289.007h-11.215a6.251,6.251,0,0,0-6.236,6.238v5.326h-4.486v22.848h32.449v-22.848h-4.275v-5.326A6.251,6.251,0,0,0,9595.443,7289.007Zm-16.051,6.238a4.846,4.846,0,0,1,4.836-4.836h11.215a4.845,4.845,0,0,1,4.835,4.836v5.326h-.842v-4.345a5.121,5.121,0,0,0-5.115-5.116h-8.937a5.123,5.123,0,0,0-5.116,5.116v4.345h-.841v-5.326Zm25.161,26.737h-29.646v-20.044h6.763v-5.747a3.717,3.717,0,0,1,3.714-3.715h8.937a3.717,3.717,0,0,1,3.715,3.715v4.345h-11.845v1.4h18.362Z"/><path class="a" d="M9593.095,7317.286l-1.367-5.641a3.179,3.179,0,0,0,1.157-2.488,3.224,3.224,0,1,0-6.448,0,3.293,3.293,0,0,0,1.156,2.488l-1.366,5.641Zm-3.4-9.917a1.809,1.809,0,0,1,1.821,1.823,1.843,1.843,0,0,1-.91,1.577l-.456.245,1.191,4.871h-3.259l1.191-4.871-.455-.245a1.84,1.84,0,0,1-.911-1.577A1.758,1.758,0,0,1,9589.7,7307.369Z"/></g></svg>