<svg xmlns="http://www.w3.org/2000/svg" width="102.088" height="78.733" viewBox="0 0 102.088 78.733"><defs><style>.a{fill:#464749;}</style></defs><g transform="translate(-9532.462 -8103.057)"><path class="a" d="M9547.723,8169.766l.232-14.22h-10.637a1.969,1.969,0,0,1-2.081-2.081v-45.552a1.944,1.944,0,0,1,2.081-2.081h75.38a1.97,1.97,0,0,1,2.082,2.081v20.232h2.773v-20.232a4.7,4.7,0,0,0-4.854-4.856h-75.381a4.7,4.7,0,0,0-4.856,4.856v45.667a4.7,4.7,0,0,0,4.856,4.856h7.861l-.23,17,22.66-17h4.971v-2.775h-5.9Z"/><path class="a" d="M9630.85,8133.232H9581.6a3.433,3.433,0,0,0-3.584,3.584v29.829a3.433,3.433,0,0,0,3.584,3.584h29.366l15.493,11.561-.116-11.561h4.625a3.433,3.433,0,0,0,3.584-3.584v-29.829A3.611,3.611,0,0,0,9630.85,8133.232Zm.81,33.413c0,.231,0,.809-.81.809h-7.4l.115,8.787-11.678-8.787H9581.6c-.23,0-.809,0-.809-.809v-29.829c0-.231,0-.809.809-.809h49.252c.231,0,.81,0,.81.809Z"/></g></svg>