<?xml version="1.0" encoding="utf-8"?>
<!-- Generator: Adobe Illustrator 19.2.1, SVG Export Plug-In . SVG Version: 6.00 Build 0)  -->
<svg version="1.1" id="Camada_1" xmlns="http://www.w3.org/2000/svg" xmlns:xlink="http://www.w3.org/1999/xlink" x="0px" y="0px"
	 viewBox="0 0 283.5 283.5" style="enable-background:new 0 0 283.5 283.5;" xml:space="preserve">
<style type="text/css">
	.st0{fill:#464749;}
	.st1{fill:none;}
</style>
<g id="Gridline">
</g>
<g id="temp">
	<path class="st0" d="M45.4,283.5c-18.8,0-32.1-7.6-39.6-22.6C0.1,249.7,0,238.2,0,238.1V45.4C0,26.6,7.6,13.3,22.6,5.7
		C33.8,0.1,45.2,0,45.4,0h192.8c18.8,0,32.1,7.6,39.6,22.6c5.6,11.1,5.7,22.3,5.7,22.8v192.8c0,18.8-7.6,32.1-22.6,39.6
		c-11.1,5.6-22.3,5.7-22.8,5.7L45.4,283.5L45.4,283.5z M45.4,4c-0.1,0-10.7,0.1-21,5.3C10.8,16.1,4,28.2,4,45.4v192.8
		c0,0.1,0.1,10.7,5.3,21c6.8,13.5,18.9,20.4,36,20.4h192.8c0.4,0,10.8-0.2,21-5.3c13.5-6.8,20.4-18.9,20.4-36V45.4
		c0-0.4-0.2-10.8-5.3-21C267.4,10.8,255.2,4,238.1,4H45.4z M45.4,4L45.4,4L45.4,4z"/>
</g>
<g id="Layer_1">
	<path id="XMLID_11_" class="st1" d="M95.1,116.6v25.5c0,3,2.1,6.1,6.1,6.1h4.6v-37.7h-4.6C97.2,110.5,95.1,112.7,95.1,116.6z"/>
	<path class="st0" d="M213.2,209.6c-25.2-9.8-45.5-22.2-48.2-29.5l-0.1-0.3v-4.6l1.3-0.2c15.1-2.7,22.1-10,22.7-24v-0.8l0.6-0.5
		c2.6-1.9,3.8-4.5,3.8-7.7v-25.5c0-4.7-3.4-9-7.6-9.6l-1.4-0.2V96.4c0-23.9-18.7-42.6-42.6-42.6c-23.5,0-42.6,19.1-42.6,42.6v10.2
		L98,107c-4.1,1.4-7.1,5.5-7.1,9.7v25.5c0,5.8,4.6,10.4,10.4,10.4h6.4l0.4,1c2.8,6.9,6.4,12.9,11,18.3l0.4,0.5v7.7l-0.2,0.3
		c-3.1,6.2-20.7,18.3-48.1,29.3c-3.3,1.3-5.7,4.5-5.7,7.5v4.5c0,4.3,3.8,8.1,8.1,8.1h115.7v-4.2H73.4c-2.4,0-3.9-1.5-3.9-3.9v-4.5
		c0-1.4,1.1-2.5,2-3.4l0.3-0.2l0.3-0.1c22.5-8.5,47.1-22.4,50.7-32.4v-9.5c0-0.7,0-0.8-0.3-1.1c-4.8-5.5-8.9-12.8-12.3-22.3
		l-0.1-0.3v-39.2c0-1-0.5-1.9-1.4-2.3l-1-0.5l0.1-1.1c1.6-17.4,13.6-27,33.9-27c20.6,0,32.3,9.6,33.9,27.8l0.1,1.8h-1.3
		c-0.1,0.3-0.3,0.8-0.3,1.4v36.7c-0.1,0.8-0.6,2.3-0.8,2.8c-2.7,9.7-7.9,17.2-11.9,21.9v1.8H152l-0.4-0.9c-0.5-1-2.3-2.1-4.5-2.1h-9
		c-2.9,0-5.1,2.2-5.1,5.1c0,2.8,2.2,5.9,5.1,5.9h9c2.2,0,3.9-1,4.5-2.6l0.4-1.1h8.8v5c3.6,10.1,28.3,24,50.8,32.6l0.1,0.1
		c2.1,1.1,2.4,2.4,2.4,3.7v4.5c0,2.4-1.5,3.9-3.9,3.9h-4.1v4.2h4.1c4.3,0,8.1-3.8,8.1-8.1v-4.5C218.2,213.8,216.2,210.8,213.2,209.6
		z M189.2,116.6v25.5c0,3.2-3,6.1-6.1,6.1h-5.4v-37.7h5.4C186.1,110.5,189.2,112.6,189.2,116.6z M105.8,148.2h-4.6
		c-4,0-6.1-3.1-6.1-6.1v-25.5c0-4,2.2-6.1,6.1-6.1h4.6V148.2z M141.6,71.1c-15.1,0-29,8.4-36.3,22l-1.9,3.5l0.4-3.9
		c1.8-20,18.1-35.1,37.8-35.1s35.9,15.1,37.8,35.1l0.4,3.9l-1.9-3.5C170.6,79.5,156.7,71.1,141.6,71.1z M169,166.6
		c2.9-3.6,5-7.9,6.5-12.9l0.3-1.2l9.2,0.1l-0.4,1.9c-1.6,8-5.6,12.3-13.9,14.7l-4.9,1.4L169,166.6z"/>
</g>
</svg>
