<?xml version="1.0" encoding="utf-8"?>
<!-- Generator: Adobe Illustrator 19.2.1, SVG Export Plug-In . SVG Version: 6.00 Build 0)  -->
<svg version="1.1" id="Layer_1" xmlns="http://www.w3.org/2000/svg" xmlns:xlink="http://www.w3.org/1999/xlink" x="0px" y="0px"
	 viewBox="0 0 159.1 159.1" style="enable-background:new 0 0 159.1 159.1;" xml:space="preserve">
<style type="text/css">
	.st0{fill:#464749;}
</style>
<path class="st0" d="M133.6,2.2c12.8,0,23.2,10.4,23.2,23.2v108.1c0,12.8-10.4,23.2-23.2,23.2H25.5c-12.8,0-23.2-10.4-23.2-23.2
	v-108c0-12.8,10.4-23.2,23.2-23.2L133.6,2.2 M133.6,0H25.5C11.5,0,0,11.5,0,25.5v108.1c0,14,11.5,25.5,25.5,25.5h108.1
	c14,0,25.5-11.5,25.5-25.5V25.5C159.1,11.5,147.6,0,133.6,0"/>
<g>
	<path class="st0" d="M129.2,48.5c-0.1-0.3-0.3-0.6-0.6-0.7l-3.8-2c-0.6-0.3-1.3-0.1-1.6,0.5l-18.4,35.3l2.1,1.1l17.9-34.2l1.7,0.9
		l-30,57.5l-1.7-0.9l8.7-16.7l-2.1-1.1l-8.8,16.9l1.9,1l-1.9,3.7l2.1,1.1l1.9-3.7l1.9,1l30.6-58.7C129.2,49.2,129.3,48.8,129.2,48.5
		z"/>
	
		<rect x="117.7" y="61.7" transform="matrix(0.4626 -0.8866 0.8866 0.4626 11.3858 144.5962)" class="st0" width="14.5" height="2.4"/>
	<rect x="57.4" y="107" class="st0" width="28.4" height="2.4"/>
	<path class="st0" d="M87.2,64.6H86c-2.4,0-4.8-0.5-7.1-1.4c-3.9-1.6-6.2-4-6.2-4l-0.8-0.9L71,59.1c-0.1,0.1-6.6,5.5-13.7,5.5H56
		v12.6c0,9.3,14.4,20,15,20.4l1,0.7l1.5-2l-1-0.7c-0.1-0.1-11.3-8.4-13.6-15.9h11.5v9h2.5v-9h11.4c-0.7,2.4-2.4,5.2-5.1,8.2
		c-1.3,1.5-2.8,3-4.4,4.5l-0.9,0.8l1.7,1.8l0.9-0.8c1.7-1.6,3.3-3.1,4.6-4.7c4-4.6,6.1-8.8,6.1-12.4V64.6z M70.4,77.2H58.5l0,0V67
		c5-0.4,9.5-2.8,11.9-4.5V77.2z M84.7,77.2H72.9V62.7c1.2,0.9,2.9,1.9,5,2.8c2.2,0.9,4.5,1.4,6.8,1.6V77.2L84.7,77.2z"/>
	<polygon class="st0" points="105.9,97.3 105.9,123.3 108.3,123.3 108.3,97.3 	"/>
	<path class="st0" d="M36.2,60.2h22.9V37h46.7v31.4h2.4V34.6H56.3L33.8,58v66.5h63.5v-2.4H36.2V60.2z M56.7,37.6v20.2H37.3
		L56.7,37.6z"/>
</g>
</svg>
