<svg xmlns="http://www.w3.org/2000/svg" width="76.174" height="109.883" viewBox="0 0 76.174 109.883"><defs><style>.a{fill:#464749;}</style></defs><g transform="translate(-9553.958 -8941.345)"><path class="a" d="M9628.872,8970.091l-13.564-13.19a4.285,4.285,0,0,0-3.422-1.369h-20.409v-5.725a8.47,8.47,0,0,0-8.462-8.462h-.684a8.47,8.47,0,0,0-8.462,8.462v5.725h-15.556a4.494,4.494,0,0,0-4.355,4.355v86.861a4.494,4.494,0,0,0,4.355,4.354h53.447v-2.551h-53.447a1.731,1.731,0,0,1-1.866-1.867v-86.8a1.949,1.949,0,0,1,1.866-1.867h30.675v35.094a6.24,6.24,0,0,1-6.223,6.222h-3.981a6.241,6.241,0,0,1-6.223-6.222v-24.641a1.244,1.244,0,1,0-2.488,0v24.7a8.737,8.737,0,0,0,8.711,8.711h3.981a8.737,8.737,0,0,0,8.711-8.711v-35.093h19.1v15.493a1.376,1.376,0,0,0,1.245,1.245h15.8v71.989a2.018,2.018,0,0,1-2.24,1.866h-2.053v2.552h2.053a4.58,4.58,0,0,0,4.729-4.355v-73.359A5.391,5.391,0,0,0,9628.872,8970.091Zm-39.821-14.56H9576.42v-5.725a5.974,5.974,0,0,1,5.973-5.974h.685a5.975,5.975,0,0,1,5.974,5.974Zm24.143,16.737V8958.7c.373.311,1.057,1,1.182,1.12l11.635,11.325c.188.186.81.809,1.12,1.182h-13.937Z"/></g></svg>