<svg xmlns="http://www.w3.org/2000/svg" xmlns:xlink="http://www.w3.org/1999/xlink" width="117.498" height="112.883" viewBox="0 0 117.498 112.883"><defs><style>.a,.c{fill:none;stroke:#0c5ca9;stroke-width:4px;}.b{clip-path:url(#a);}.c{stroke-linecap:round;stroke-miterlimit:10;}</style><clipPath id="a"><rect class="a" width="117.498" height="112.883" transform="translate(0 0)"/></clipPath></defs><g class="b"><path class="c" d="M108.5,45.883,61.609,96.533a5.109,5.109,0,0,1-7.34.119L22.613,65a5.11,5.11,0,0,1,0-7.226L77.387,3a5.11,5.11,0,0,1,7.226,0L114.5,32.884a5.109,5.109,0,0,1,.115,7.108"/><path class="c" d="M81,1.5,72.163,45.578a5.32,5.32,0,0,1-3.935,4.117L21.117,61.383"/><line class="c" x1="17" y2="17" transform="translate(1.5 75.883)"/><line class="c" x1="14.5" y2="14.5" transform="translate(15 87.883)"/><line class="c" x1="11.5" y2="11.5" transform="translate(30 99.883)"/></g></svg>