<svg xmlns="http://www.w3.org/2000/svg" width="261.8" height="261.793" viewBox="0 0 261.8 261.793"><defs><style>.a{fill:#fff;}</style></defs><g transform="translate(-2279.127 -2851.898)"><path class="a" d="M2504.816,3113.691H2315.369c-9.757-3.39-19.87-6.555-26.036-15.525-4.058-5.905-6.848-12.682-10.206-19.069V2886.356a7.6,7.6,0,0,0,1.381-1.947c6.585-21.975,20.643-32.5,43.34-32.491q87.216.024,174.433-.02c24.537-.022,42.612,17.884,42.608,42.359q-.012,88.451.038,176.9c.02,14.915-6.355,26.521-18.353,34.694C2517.315,3109.436,2510.774,3111.136,2504.816,3113.691Zm-93.98-258.78q-44.038,0-88.077.012c-23.271.04-40.228,16.523-40.288,39.688q-.231,87.664-.008,175.33c.055,22.854,16.112,40.114,38.99,40.309q88.482.753,176.974.035c23.023-.167,39.387-17.334,39.426-39.875q.152-88.077,0-176.154c-.051-22.606-17.191-39.318-39.764-39.328Q2454.462,2854.909,2410.836,2854.911Z"/><path class="a" d="M2479.528,3015.186c11.94-31.983,8.816-61.126-15.916-85.864-14.641-14.644-32.684-21.668-53.323-21.784-41.983-.236-76.1,33.225-76.007,74.377.073,32.972,20.363,61.213,52.64,71.665,33.408,10.819,61.093-.674,84.991-24.9-20.475,34.346-74.386,42.359-108.273,17.273-37.65-27.872-44.106-79.988-14.183-114.477,30.269-34.887,85.174-36.548,118.039-3.738C2495.628,2955.827,2493.337,3000.749,2479.528,3015.186Z"/><path class="a" d="M2372.1,3022.579c3.258-16.483,20.356-29.016,39.047-28.967,17.763.046,34.913,13.082,37.98,28.967Zm72.148-3.342c-7.516-15.266-23.175-24.294-37.2-22.339-14.78,2.061-27.07,11.46-29.037,22.339Z"/><path class="a" d="M2420.357,2964.508c6.511,7.165,12.308,7.629,17.978-1.43.311,7.159-1.4,9.472-6.8,10.236C2425.1,2974.227,2421.951,2970.634,2420.357,2964.508Z"/><path class="a" d="M2399.068,2961.987c-.829,9.112-4.883,11.47-10.383,11.378-5.436-.092-8.553-3.192-8.64-9.462C2386.162,2972.021,2392.1,2971.224,2399.068,2961.987Z"/></g></svg>