<svg xmlns="http://www.w3.org/2000/svg" width="261.799" height="261.793" viewBox="0 0 261.799 261.793"><defs><style>.a{fill:#fff;}</style></defs><g transform="translate(-2258.657 -1989.941)"><path class="a" d="M2484.345,2251.734H2294.9c-9.757-3.391-19.871-6.556-26.036-15.526-4.059-5.905-6.848-12.682-10.206-19.069V2024.4a7.561,7.561,0,0,0,1.38-1.947c6.586-21.974,20.644-32.5,43.34-32.491q87.218.024,174.434-.019c24.537-.022,42.611,17.883,42.608,42.359q-.014,88.451.037,176.9c.021,14.915-6.355,26.521-18.352,34.7C2496.845,2247.479,2490.3,2249.179,2484.345,2251.734Zm-94.568-258.781q-43.628,0-87.254.011c-23.715.036-40.491,16.544-40.539,40.278q-.175,87.253,0,174.508c.053,23.267,16.336,40.435,39.585,40.59q88.072.588,176.151.009c22.633-.143,39.559-17.073,39.628-38.839q.283-88.9.014-177.8c-.066-22.043-17.4-38.721-39.51-38.738Q2433.816,1992.937,2389.777,1992.953Z"/><path class="a" d="M2451.406,2167.055c-19.634,31.643-69.69,43.062-106.107,18.46-37.784-25.526-46.453-77.1-18.982-112.677,28.4-36.781,82.889-41.068,118.167-9.371,29.966,26.923,29.347,72.945,14.9,90.373,15.475-52.22.514-89.5-52.388-106.107-30.473-9.565-66.457,6.784-83,34.491-16.151,27.046-13.815,64.33,8.085,86.338C2371.653,2208.334,2411.9,2203.419,2451.406,2167.055Z"/><path class="a" d="M2351.2,2135.072h77.125c-.269,12.689-17.7,27.756-33.924,29.073C2374.394,2165.77,2356.987,2154.3,2351.2,2135.072Zm71.861,3.679h-66.791c8.062,15.389,22.192,23.588,37.1,22.1C2407.121,2159.481,2419.668,2150.173,2423.057,2138.751Z"/><path class="a" d="M2398.22,2100.618c3.524-2.188,7.077-6.15,10.563-6.092,3.927.066,7.793,3.754,11.685,5.866l-1.616,2.9c-3.1-1.748-6.191-4.827-9.32-4.87s-6.3,2.947-9.453,4.607Z"/><path class="a" d="M2379.208,2103.571c-11.135-6.154-11.135-6.154-19.853-.348-.69-6.022,3.22-7.928,7.371-8.7C2372.8,2093.394,2377.02,2096.056,2379.208,2103.571Z"/></g></svg>