<svg xmlns="http://www.w3.org/2000/svg" width="118" height="80.1" viewBox="0 0 118 80.1"><defs><style>.a{fill:#464749;}</style></defs><g transform="translate(-7935.639 -4620.265)"><path class="a" d="M7971.539,4638.865a7,7,0,1,0,7,7A7.02,7.02,0,0,0,7971.539,4638.865Zm0,11.6a4.587,4.587,0,0,1-4.6-4.6,4.653,4.653,0,0,1,4.6-4.6,4.6,4.6,0,1,1,0,9.2Z"/><rect class="a" width="13.2" height="2.4" transform="translate(7964.939 4660.465)"/><rect class="a" width="13.2" height="2.4" transform="translate(7964.939 4655.465)"/><rect class="a" width="5.7" height="2.4" transform="translate(8022.739 4630.465)"/><rect class="a" width="5.7" height="2.4" transform="translate(8022.739 4625.465)"/><rect class="a" width="5.7" height="2.4" transform="translate(8022.739 4686.365)"/><rect class="a" width="5.7" height="2.4" transform="translate(8022.739 4681.265)"/><path class="a" d="M7995.339,4647.165l-5.8,5.7,5.8,5.7,5.7-5.7Zm-2.4,5.8,2.4-2.4,2.4,2.4-2.4,2.3Z"/><path class="a" d="M8033.239,4692.565v-72.3h-15.9v27.6h-11.1v-5.9h-19.5v-8.9h-2.4v59.4h-25.6v-59.6h21.6v-2.4h-24v62h-20.7v7.9h107.7v-2.4h-105.3v-3.1h113.2v2.9h2.4v-5.3h-20.4v.1Zm-13.5-69.9h11.1v69.8h-11.1v-69.8Zm-2.4,27.7v42.2h-11.1v-42.2Zm-30.6-5.9h17.1v48.1h-17.1Z"/></g></svg>