<svg xmlns="http://www.w3.org/2000/svg" width="152.495" height="93.488" viewBox="0 0 152.495 93.488"><defs><style>.a{fill:#005baa;}.b{fill:#03296a;}</style></defs><g transform="translate(0)"><path class="a" d="M1081.737,164.766a25.646,25.646,0,0,0-20.389,41.2l21.318-28.01h-4.574a35.231,35.231,0,0,0-6.358.489,6.725,6.725,0,0,0-2.609,1.066,10.238,10.238,0,0,0-2.612,3.1c-.077.142-.2.366-.342.66l-1.254-.276,2.09-8.044h26.7l-21.219,28.368a28.014,28.014,0,0,1,3.05-.153c.857,0,2.161.053,3.923.158l3.766.224c1.358.083,2.5.124,3.369.124a14.3,14.3,0,0,0,4.468-.536,10.038,10.038,0,0,0,2.744-1.325,12.67,12.67,0,0,0,3.8-4.341c.085-.158.227-.418.382-.76l1.131.294a16.912,16.912,0,0,1-1.122,3.2,13.173,13.173,0,0,1-4.2,5.56,10.273,10.273,0,0,1-6.208,2.044l-.361.006a44.779,44.779,0,0,1-7.344-.795,55.223,55.223,0,0,0-8.634-.883,25.19,25.19,0,0,0-4.181.335,13.534,13.534,0,0,0-4.24,1.273,25.644,25.644,0,1,0,18.9-42.975" transform="translate(-1011.183 -164.766)"/><path class="b" d="M1009,280.2a26.684,26.684,0,0,1-3.85.336c-.514.011-1.167.017-1.962.017h-3.758l14.872-21.191H995.01l-2.367,5.172a16.524,16.524,0,0,1,1.8-.836,18.053,18.053,0,0,1,3.471-.96,22.053,22.053,0,0,1,3.452-.306c.679-.012,1.31-.018,1.9-.018h2.857l-15.007,21.178h21.211l2.447-5.53a19.442,19.442,0,0,1-1.8.942,17.308,17.308,0,0,1-3.97,1.2m68.564-16.343a8.476,8.476,0,0,1,.26-2.727,4.3,4.3,0,0,1,.347-.759,3.519,3.519,0,0,1,.928-1.008h-7.876a4.16,4.16,0,0,1,.915.961,3.063,3.063,0,0,1,.38.789,8.722,8.722,0,0,1,.254,2.609c0,.735.006,1.224.006,1.46v14.506a6.812,6.812,0,0,1-.389,2.337,3.377,3.377,0,0,1-.389.714,5.325,5.325,0,0,1-.749.853h7.781a3.2,3.2,0,0,1-.76-.853,4.069,4.069,0,0,1-.377-.742,6.506,6.506,0,0,1-.335-2.126V265.277Zm23.535,16.231a10.749,10.749,0,0,1-4.279.9,8.37,8.37,0,0,1-6.316-2.61,9.641,9.641,0,0,1-2.454-6.707,10.053,10.053,0,0,1,2.218-6.544,7.987,7.987,0,0,1,2.226-1.79,9.653,9.653,0,0,1,4.738-1.167,11.574,11.574,0,0,1,4.408.878,7.736,7.736,0,0,1,2.02,1.095v-4.563a13.534,13.534,0,0,0-1.5-.4,20.506,20.506,0,0,0-4.317-.429,17.823,17.823,0,0,0-6.984,1.284,14.118,14.118,0,0,0-3.372,1.979,12.319,12.319,0,0,0-4.664,9.906,11.75,11.75,0,0,0,4.48,9.523,14.515,14.515,0,0,0,9.162,2.8,22.565,22.565,0,0,0,6.879-1.089c.09-.03.225-.07.4-.124v-4.406c-.592.389-.789.519-1.149.719a12.672,12.672,0,0,1-1.5.736m28.867-16.248a9.674,9.674,0,0,1,.279-2.569,3.228,3.228,0,0,1,.384-.89,3.348,3.348,0,0,1,.971-1.019h-8a3.54,3.54,0,0,1,.9.99,4.043,4.043,0,0,1,.413.842,8.167,8.167,0,0,1,.262,2.544v5.9h-11v-4.423c0-1.344.021-2.221.07-2.868a4.2,4.2,0,0,1,.192-1.061,5.078,5.078,0,0,1,1.021-1.655c.062-.064.147-.147.271-.265h-7.862a6.059,6.059,0,0,1,.816.937,3.9,3.9,0,0,1,.415.818,6.742,6.742,0,0,1,.271,2.562l.021,1.538v13.263a20.05,20.05,0,0,1-.1,2.55,4.253,4.253,0,0,1-.241.96,3.48,3.48,0,0,1-.945,1.366c-.056.053-.151.129-.274.235h7.762a4.107,4.107,0,0,1-.65-.794,4.751,4.751,0,0,1-.389-.76,5.251,5.251,0,0,1-.359-2.12c-.009-.513-.021-1-.021-1.449V272.6h11v5.907a17.4,17.4,0,0,1-.11,2.474,4.511,4.511,0,0,1-.261,1.036,3.568,3.568,0,0,1-.884,1.272c-.073.066-.192.166-.341.3h7.839a5.118,5.118,0,0,1-.666-.742,4.166,4.166,0,0,1-.451-.807,5.108,5.108,0,0,1-.326-2.184c-.007-.706-.016-1.125-.016-1.255l.016-13.328Zm-62.657,18.073c-.863-.807-1.633-1.584-2.776-2.815-.726-.771-1.326-1.431-1.785-1.973l-3.811-4.423c.471-.141.656-.206,1.091-.37a10.677,10.677,0,0,0,3.014-1.731,5.831,5.831,0,0,0,1.941-2.768,6.014,6.014,0,0,0,.3-1.861,5.608,5.608,0,0,0-1.66-3.981,8.182,8.182,0,0,0-3.982-2.174,20.019,20.019,0,0,0-4.2-.424c-.732-.018-1.487-.03-2.273-.03h-6.332a4.149,4.149,0,0,1,.827.919,3.283,3.283,0,0,1,.424.877,8.9,8.9,0,0,1,.245,2.58v15.9a6.66,6.66,0,0,1-.278,2.345,3.233,3.233,0,0,1-.431.764,5.124,5.124,0,0,1-.812.843h7.8a5.6,5.6,0,0,1-.677-.783,3.244,3.244,0,0,1-.421-.742,6.034,6.034,0,0,1-.321-2.238c-.005-.366-.012-.771-.012-1.219v-5.442l4.547,5.378c.215.252.56.648,1.025,1.178.523.588.919,1.024,1.189,1.3a10.863,10.863,0,0,0,2.539,1.991,5.113,5.113,0,0,0,2.432.571c.394.012.819.012,1.273.012h3.079c-.412-.317-.58-.453-.892-.724-.332-.288-.688-.605-1.06-.954m-9.361-11.873a7.953,7.953,0,0,1-3.093.978,8.794,8.794,0,0,1-1.279.118c-.126,0-.211-.007-.4-.019v-8.97c.309-.012.442-.012.641-.012a12.739,12.739,0,0,1,3.3.4,4.514,4.514,0,0,1,1.656.872,3.713,3.713,0,0,1,1.271,2.986,4.023,4.023,0,0,1-.954,2.732,4.92,4.92,0,0,1-1.147.913m-22.057-9.735a3.286,3.286,0,0,1,.366.824,9,9,0,0,1,.212,2.538v9.218a27.03,27.03,0,0,1-.2,4.1,4.52,4.52,0,0,1-3.649,3.851,7.064,7.064,0,0,1-1.739.195,5.717,5.717,0,0,1-4.786-2.05c-.677-.988-.871-1.926-.9-4.423l-.023-1.99v-7.309c0-1.414.012-2.091.065-2.815a5.259,5.259,0,0,1,.182-1.107,5.5,5.5,0,0,1,.989-1.76c.044-.047.112-.112.2-.207h-7.974a3.01,3.01,0,0,1,.889.984,2.943,2.943,0,0,1,.348.836,4.86,4.86,0,0,1,.166,1.118q.008.355.017,1.5v8.345c0,2.567.024,3.227.1,4.264a7.862,7.862,0,0,0,1.719,4.459c1.865,2.308,4.841,3.522,8.652,3.522a14.977,14.977,0,0,0,4.93-.766,9.422,9.422,0,0,0,3.645-2.409,7.951,7.951,0,0,0,1.991-4.706,43.087,43.087,0,0,0,.165-4.328V265.23l-.012-1.378v-.277a8.442,8.442,0,0,1,.193-2.208,3.421,3.421,0,0,1,.425-.984,3.283,3.283,0,0,1,.96-1.006H1035a3.152,3.152,0,0,1,.892.931m103.969-6.95v-.017a1.126,1.126,0,0,0,1.063-1.1c0-.881-.554-1.249-1.4-1.249h-1.233v4.788h.471v-2.253h.391a.909.909,0,0,1,1.044.636l.691,1.617h.525l-.816-1.846a.854.854,0,0,0-.733-.577m-1.1-.244v-1.706h.487c.647,0,1.208.048,1.208.834,0,.66-.636.872-1.193.872Zm.931-3.658a3.921,3.921,0,1,0,3.92,3.923,3.927,3.927,0,0,0-3.92-3.923m0,7.4a3.479,3.479,0,1,1,3.474-3.477,3.48,3.48,0,0,1-3.474,3.477" transform="translate(-991.117 -190.918)"/></g></svg>