<svg xmlns="http://www.w3.org/2000/svg" xmlns:xlink="http://www.w3.org/1999/xlink" width="203.42" height="49.049" viewBox="0 0 203.42 49.049"><defs><style>.a{fill:none;}.b{clip-path:url(#a);}.c{fill:#005baa;}.d{fill:#03296a;}</style><clipPath id="a"><rect class="a" width="203.42" height="49.049"/></clipPath></defs><g transform="translate(0 0)"><g class="b" transform="translate(0 0)"><path class="c" d="M24.523,0a24.522,24.522,0,0,0-19.5,39.393L25.409,12.6l-2.194,0-2.176,0a33.976,33.976,0,0,0-6.083.471,6.461,6.461,0,0,0-2.5,1.021,9.861,9.861,0,0,0-2.5,2.969c-.076.139-.189.341-.331.636L8.437,17.43l2-7.693H35.972L15.681,36.867A27.186,27.186,0,0,1,18.6,36.72c.823,0,2.073.053,3.743.151l3.605.223c1.3.074,2.4.112,3.231.112a13.828,13.828,0,0,0,4.268-.512,9.842,9.842,0,0,0,2.624-1.264,12.231,12.231,0,0,0,3.639-4.149c.08-.159.212-.4.361-.729l1.086.276a15.8,15.8,0,0,1-1.077,3.061A12.565,12.565,0,0,1,36.066,39.2a9.867,9.867,0,0,1-5.939,1.957l-.347,0a43.247,43.247,0,0,1-7.024-.757A52.728,52.728,0,0,0,14.5,39.56a24.083,24.083,0,0,0-3.995.324A12.551,12.551,0,0,0,6.453,41.1,24.522,24.522,0,1,0,24.523,0"/><path class="d" d="M120.347,21.085a7.724,7.724,0,0,1-3.008.968,8.394,8.394,0,0,1-1.248.114c-.12,0-.2,0-.388-.018V13.305c.3-.008.419-.008.625-.008a12.182,12.182,0,0,1,3.211.393,4.381,4.381,0,0,1,1.626.865,3.692,3.692,0,0,1,1.23,2.934,3.941,3.941,0,0,1-.934,2.7,4.653,4.653,0,0,1-1.115.9M129.471,32.8c-.841-.8-1.593-1.56-2.706-2.776-.71-.76-1.291-1.417-1.744-1.942L121.31,23.71a9.619,9.619,0,0,0,1.058-.365,10.147,10.147,0,0,0,2.947-1.7,5.87,5.87,0,0,0,2.174-4.567,5.534,5.534,0,0,0-1.613-3.917A7.889,7.889,0,0,0,121.993,11a19.752,19.752,0,0,0-4.083-.413c-.717-.018-1.46-.028-2.217-.028h-6.165a4.253,4.253,0,0,1,.8.9,3.48,3.48,0,0,1,.424.87,9.341,9.341,0,0,1,.227,2.546V30.555a6.773,6.773,0,0,1-.264,2.314,3.589,3.589,0,0,1-.412.756,5.9,5.9,0,0,1-.807.83h7.6a6.5,6.5,0,0,1-.66-.777,3.244,3.244,0,0,1-.4-.729,5.786,5.786,0,0,1-.3-2.208c-.012-.359-.018-.762-.018-1.2V24.17l4.428,5.307c.206.252.54.635.986,1.158.521.58.906,1.015,1.175,1.285a10.5,10.5,0,0,0,2.464,1.962,4.978,4.978,0,0,0,2.37.558c.39.012.807.016,1.245.016h3c-.4-.316-.565-.451-.872-.718-.324-.284-.669-.59-1.024-.937m9.991-17.815a8.028,8.028,0,0,1,.249-2.682,3.434,3.434,0,0,1,.345-.743,3.374,3.374,0,0,1,.9-1h-7.669a4.137,4.137,0,0,1,.889.944,3.548,3.548,0,0,1,.369.781,8.7,8.7,0,0,1,.251,2.571c0,.728,0,1.207,0,1.441V30.6a6.931,6.931,0,0,1-.376,2.315,3.327,3.327,0,0,1-.382.7,5.6,5.6,0,0,1-.729.842h7.583a2.949,2.949,0,0,1-.735-.842,3.433,3.433,0,0,1-.381-.729,6.442,6.442,0,0,1-.322-2.1v-14.4ZM162.384,31a10.389,10.389,0,0,1-4.17.886,8.132,8.132,0,0,1-6.154-2.57,9.585,9.585,0,0,1-2.379-6.621,9.965,9.965,0,0,1,2.156-6.447A7.819,7.819,0,0,1,154,14.479a9.425,9.425,0,0,1,4.626-1.148,11.257,11.257,0,0,1,4.29.863,7.776,7.776,0,0,1,1.965,1.08V10.78a11.934,11.934,0,0,0-1.45-.392,19.877,19.877,0,0,0-4.209-.423,17.12,17.12,0,0,0-6.806,1.269,13.751,13.751,0,0,0-3.286,1.947,12.207,12.207,0,0,0-4.546,9.765,11.649,11.649,0,0,0,4.363,9.391,14.013,14.013,0,0,0,8.925,2.763,21.812,21.812,0,0,0,6.706-1.07c.089-.027.219-.07.389-.124V29.567c-.576.38-.77.5-1.113.706a13.042,13.042,0,0,1-1.47.729m28.128-16.026a9.638,9.638,0,0,1,.263-2.532,3.712,3.712,0,0,1,.378-.881,3.244,3.244,0,0,1,.943-1h-7.8a3.382,3.382,0,0,1,.874.971,4.176,4.176,0,0,1,.4.833,8.211,8.211,0,0,1,.255,2.512v5.8H175.122V16.325c0-1.323.008-2.186.064-2.835a4.4,4.4,0,0,1,.193-1.038,4.923,4.923,0,0,1,.988-1.633c.052-.058.151-.148.264-.258h-7.657a5.483,5.483,0,0,1,.786.921,3.482,3.482,0,0,1,.415.809,7.239,7.239,0,0,1,.259,2.528l.025,1.512V29.415a20.512,20.512,0,0,1-.1,2.516,5.213,5.213,0,0,1-.237.95,3.39,3.39,0,0,1-.923,1.335c-.054.055-.141.131-.261.239h7.566a4.43,4.43,0,0,1-.642-.788,5.22,5.22,0,0,1-.383-.741,5.6,5.6,0,0,1-.351-2.1c-.006-.509-.008-.978-.008-1.426v-5.79h10.705v5.831a15.5,15.5,0,0,1-.108,2.428,3.676,3.676,0,0,1-.255,1.033,3.456,3.456,0,0,1-.859,1.252c-.071.061-.172.169-.329.3h7.632a4.549,4.549,0,0,1-.637-.739,3.811,3.811,0,0,1-.443-.784,5.286,5.286,0,0,1-.314-2.162c-.014-.7-.018-1.111-.018-1.238l.018-13.145ZM72.661,31.1a24.025,24.025,0,0,1-3.751.339c-.5.014-1.132.014-1.911.014H63.338L77.822,10.561H59.033l-2.308,5.1a15.157,15.157,0,0,1,1.745-.824,17.565,17.565,0,0,1,3.38-.956,22.647,22.647,0,0,1,3.368-.29c.662-.022,1.283-.034,1.857-.034h2.779l-14.618,20.9H75.9l2.386-5.449a17.419,17.419,0,0,1-1.756.918A15.452,15.452,0,0,1,72.661,31.1m26.2-19.606a3.308,3.308,0,0,1,.353.812,8.681,8.681,0,0,1,.211,2.5v9.083a27.077,27.077,0,0,1-.2,4.058,4.842,4.842,0,0,1-.613,1.752,4.768,4.768,0,0,1-2.935,2.046,7.162,7.162,0,0,1-1.7.194,5.567,5.567,0,0,1-4.666-2.023c-.658-.976-.839-1.9-.869-4.36l-.016-1.97v-7.2c0-1.4.006-2.061.057-2.773a4.737,4.737,0,0,1,.175-1.1,5.555,5.555,0,0,1,.956-1.732c.054-.049.111-.114.2-.212H82.047a3.228,3.228,0,0,1,.865.968,3.077,3.077,0,0,1,.337.83,4.966,4.966,0,0,1,.164,1.1c0,.234.007.729.008,1.481l.012,1.383v6.843c0,2.541.01,3.185.1,4.205a7.692,7.692,0,0,0,1.674,4.4c1.809,2.275,4.718,3.467,8.427,3.467a14.287,14.287,0,0,0,4.8-.757,9.169,9.169,0,0,0,3.557-2.371,7.884,7.884,0,0,0,1.926-4.643,39.271,39.271,0,0,0,.166-4.266V16.342l-.019-1.364v-.269a8.232,8.232,0,0,1,.2-2.181,3.468,3.468,0,0,1,1.35-1.961H98a3.046,3.046,0,0,1,.863.922" transform="translate(11.323 2.043)"/></g></g></svg>