<svg id="Camada_1" data-name="Camada 1" xmlns="http://www.w3.org/2000/svg" width="50.6" height="53" viewBox="0 0 50.6 53">
  <defs>
    <style>
      .cls-1 {
        fill: #fff;
      }
    </style>
  </defs>
  <title>luz2</title>
  <path class="cls-1" d="M117.3,136.1a14.2,14.2,0,0,1,9,25.2v3.9a2.9,2.9,0,0,1-1.8,2.7v4.9a2.9,2.9,0,0,1-2.9,2.9h-1.1v1.9a0.5,0.5,0,0,1-.5.5h-5.3a0.5,0.5,0,0,1-.5-0.5v-1.9h-1.1a2.9,2.9,0,0,1-2.1-.9h0a2.9,2.9,0,0,1-.9-2.1v-4.9l-1-.6h0a2.9,2.9,0,0,1-.9-2.1v-3.9a14.2,14.2,0,0,1,9-25.2h0Zm-13.2.3-4-4a0.5,0.5,0,0,0-.7.7h0l4,4A0.5,0.5,0,0,0,104.1,136.4Zm27,0.7,4-4a0.5,0.5,0,0,0-.7-0.7l-4,4a0.5,0.5,0,0,0,0,.7,0.5,0.5,0,0,0,.7,0h0Zm-33,12.7a0.5,0.5,0,0,1,0,1H92.5a0.5,0.5,0,0,1,0-1h5.7Zm38.2,1a0.5,0.5,0,0,1,0-1h5.7a0.5,0.5,0,0,1,0,1h-5.7Zm-18.6-19.6a0.5,0.5,0,1,1-1,0h0v-5.7a0.5,0.5,0,1,1,1,0h0v5.7h0Zm-6.7,39.7h12.4v-2.9H111.1v2.9h0Zm12.4,1H111.1v0.8a2,2,0,0,0,.6,1.4h0a1.9,1.9,0,0,0,1.4.6h8.5a2,2,0,0,0,2-2v-0.8h0Zm-2.4-16.1v-2.6h-3.3v2.5a0.5,0.5,0,1,1-1,0h0v-2.5h-3.3v13.9h7.6V155.8h0Zm0-3.6v-2.5a0.5,0.5,0,1,1,1,0v17.4h1.3a2,2,0,0,0,2-2V161h0a0.5,0.5,0,0,1,.2-0.4,13.2,13.2,0,1,0-16.5,0,0.5,0.5,0,0,1,.2.4v4.1a2,2,0,0,0,.6,1.4h0a1.9,1.9,0,0,0,1.4.6h1.3V149.7a0.5,0.5,0,1,1,1,0v2.5h3.3v-2.5a0.5,0.5,0,0,1,1,0v2.5h3.3Zm-1.7,23.4h-4.3V177h4.3v-1.4Z" transform="translate(-92 -125)"/>
</svg>
