<svg id="Layer_1" data-name="Layer 1" xmlns="http://www.w3.org/2000/svg" width="159.1" height="159.1" viewBox="0 0 159.1 159.1">
  <defs>
    <style>
      .cls-1 {
        fill: #464749;
      }
    </style>
  </defs>
  <title>notA16b</title>
  <path class="cls-1" d="M133.6,2.2a23.2,23.2,0,0,1,23.2,23.2V133.5a23.2,23.2,0,0,1-23.2,23.2H25.5A23.2,23.2,0,0,1,2.3,133.5V25.5A23.2,23.2,0,0,1,25.5,2.3H133.6m0-2.2H25.5A25.6,25.6,0,0,0,0,25.5V133.6a25.6,25.6,0,0,0,25.5,25.5H133.6a25.6,25.6,0,0,0,25.5-25.5V25.5A25.6,25.6,0,0,0,133.6,0" transform="translate(0 0)"/>
  <g>
    <path class="cls-1" d="M22.4,107.7V113a7.1,7.1,0,0,0,7,7.1H129.6a7.1,7.1,0,0,0,7.1-7.1v-5.2H22.4ZM134.3,113a4.7,4.7,0,0,1-4.7,4.7H29.5a4.6,4.6,0,0,1-4.6-4.6h0v-2.8H134.3V113Z" transform="translate(0 0)"/>
    <path class="cls-1" d="M40,104.4h79a7.1,7.1,0,0,0,7.1-7.1V46.1A7.1,7.1,0,0,0,119,39H40a7.2,7.2,0,0,0-7,7.1V97.2A7.1,7.1,0,0,0,40,104.4ZM35.4,46.1a4.7,4.7,0,0,1,4.7-4.7h79a4.7,4.7,0,0,1,4.7,4.7h0V97.2a4.7,4.7,0,0,1-4.7,4.7H40a4.7,4.7,0,0,1-4.7-4.7h0V46.1h0.1Z" transform="translate(0 0)"/>
    <path class="cls-1" d="M109.4,95.2H41.7v-47h75.9V96.5h2.4V45.9H39.2V97.6h70.2V95.2Z" transform="translate(0 0)"/>
    <rect class="cls-1" x="71.9" y="112.1" width="13.5" height="2.4"/>
  </g>
</svg>
