<svg xmlns="http://www.w3.org/2000/svg" width="114.2" height="81" viewBox="0 0 114.2 81"><defs><style>.a{fill:#464749;}</style></defs><g transform="translate(-7938.18 -5481.511)"><path class="a" d="M7938.18,5550.211v5.2a7.107,7.107,0,0,0,7,7.1h100.1a7.127,7.127,0,0,0,7.1-7.1v-5.2Zm111.9,5.2a4.694,4.694,0,0,1-4.7,4.7h-100.1a4.61,4.61,0,0,1-4.6-4.7v-2.8h109.4Z"/><path class="a" d="M7955.78,5546.811h79a7.127,7.127,0,0,0,7.1-7.1v-51.1a7.127,7.127,0,0,0-7.1-7.1h-79a7.242,7.242,0,0,0-7,7.1v51.1A7.107,7.107,0,0,0,7955.78,5546.811Zm-4.6-58.2a4.694,4.694,0,0,1,4.7-4.7h79a4.7,4.7,0,0,1,4.7,4.7v51.1a4.7,4.7,0,0,1-4.7,4.7h-79.1a4.7,4.7,0,0,1-4.7-4.7v-51.1Z"/><path class="a" d="M8025.18,5537.711h-67.8v-47h75.9v48.2h2.4v-50.6h-80.7v51.8h70.2Z"/><rect class="a" width="13.5" height="2.4" transform="translate(7987.68 5554.511)"/></g></svg>