<svg id="Camada_1" data-name="Camada 1" xmlns="http://www.w3.org/2000/svg" width="249.7" height="100.8" viewBox="0 0 249.7 100.8">
  <defs>
    <style>
      .cls-1, .cls-2 {
        fill: #00307f;
      }

      .cls-2, .cls-4 {
        isolation: isolate;
        font-size: 13.3px;
        font-family: Frutiger;
      }

      .cls-3, .cls-4 {
        fill: #fff;
      }
    </style>
  </defs>
  <title>triangulo3</title>
  <g>
    <path class="cls-1" d="M58.1,85.2H-25.4L28.9-6.4,83.3,85.2H72.2v3.1H88.8L29.1-12.5l-60,100.8h89V85.2h0Z" transform="translate(30.9 12.5)"/>
    <text class="cls-2" transform="translate(18.5 93.4) scale(1 1.1)">Racionalização</text>
    <path class="cls-1" d="M39.5,32.3H39.3V31.6h0.4a0.8,0.8,0,0,0,.8-0.5,1.5,1.5,0,0,0-.4-1.1H39.9V29.7H40a0.8,0.8,0,0,0,.1-0.5,1.3,1.3,0,0,0-.8-0.9H39.2V27.9c0-.4-0.1-1.2-1.9-2.8a1.7,1.7,0,0,0-1.6-.5v0.3l-0.3-.3a1.1,1.1,0,0,0-1.3,0H33.9V24.3a1.5,1.5,0,0,0-1.3-.3H32.3V23.7a1.2,1.2,0,0,0-1.6-.3v0.3H29.9l-0.3.3H29.4a1.2,1.2,0,0,0-1.3,0,0.5,0.5,0,0,0-.1.7l-0.7.3a0.5,0.5,0,0,0-.4-0.4h0l-0.5.3h0a1.6,1.6,0,0,0-.3,1.1v0.4H25.6a1.3,1.3,0,0,0-.8.8v0.3h0l-0.5.7-0.3.3a2.4,2.4,0,0,0-.3,2.5V31l-0.3.3a0.7,0.7,0,0,0-.3.5,1.3,1.3,0,0,0,.4.9,2,2,0,0,0,2.7,0l0.5,0.5c-0.7.7,0.4,1.9,0.5,2l0.4,0.5a0.9,0.9,0,0,0,.7.5h0.4a3.9,3.9,0,0,1,2.9,0c1.3,0.7,2.4,2.5,3.1,5.3h0a5.9,5.9,0,0,1,0-1.5V39.5h0a1.6,1.6,0,0,1,1.3-1.3,6.8,6.8,0,0,0,3.5-3.1,0.9,0.9,0,0,0,0-.5A2.5,2.5,0,0,0,39.5,32.3Zm-4.7,9.3a1.3,1.3,0,0,1-.9.4H33.5V41.8q-1-4.2-2.8-5.2a2.4,2.4,0,0,0-2.1,0H27.6a1.6,1.6,0,0,1-1.2-.8L26,35.4a3.2,3.2,0,0,1-.9-2,2.9,2.9,0,0,1-2.7-.5,1.7,1.7,0,0,1-.7-1.5,1.3,1.3,0,0,1,.3-0.8,3.2,3.2,0,0,1,.5-3.2l0.3-.3,0.5-.5h0.1a2.4,2.4,0,0,1,1.1-1.1,2.5,2.5,0,0,1,.4-1.2,1.3,1.3,0,0,1,1.2-.8h0.5l0.4-.4a1.9,1.9,0,0,1,2-.1H30a2,2,0,0,1,2.4.3,2.4,2.4,0,0,1,1.7.4,1.9,1.9,0,0,1,1.7.1,2.7,2.7,0,0,1,2.4.7,5.3,5.3,0,0,1,2.1,3.2,1.9,1.9,0,0,1,.9,1.5,1.5,1.5,0,0,1-.1.8,2.3,2.3,0,0,1,.4,1.6,1.5,1.5,0,0,1-1.1,1.1,3.2,3.2,0,0,1-.5,1.7,1.2,1.2,0,0,1,0,.7,7.5,7.5,0,0,1-4,3.6,1.1,1.1,0,0,0-.7.7v0.7a4.9,4.9,0,0,0,0,1.5,0.8,0.8,0,0,1-.1.5h0ZM26.7,58.1V57.8a8.9,8.9,0,0,1-.5-1.6c-0.1-.9-0.3-1.1-1.3-1.2l-2.3.3c-2.4.4-5.3,0.8-6-.7a3.3,3.3,0,0,1-.1-1.9,2.5,2.5,0,0,0,0-1.3l-0.5-.7a1.3,1.3,0,0,1-.5-1.7,1.7,1.7,0,0,1-.8-2.3V46.3c0.1-.8,0-0.9-0.5-1.1a2.3,2.3,0,0,1-1.2-.8c-0.7-.9,0-2,0.5-2.8l0.3-.4a7,7,0,0,0,.9-4.5c-1.3-7.2,1.3-12.8,7-15.7S37.3,19.1,42,24.5c2.9,3.2,6.4,10.5-1.7,23.4H39.7c0,0.5.1,0.9,0.1,1.6s0.3,2,.3,2.8H39.3a20,20,0,0,0-.3-2.7c-0.1-.9-0.1-1.3-0.3-2V47.2h0.4c7.7-12.4,4.4-19.3,1.7-22.3S28,18.5,21.5,21.7s-7.8,8.1-6.6,14.8a7.7,7.7,0,0,1-.9,5.1l-0.3.5c-0.5.8-.9,1.5-0.5,2a1.5,1.5,0,0,0,.9.5A1.3,1.3,0,0,1,15.2,46v0.9c-0.1.9-.3,1.2,0.7,1.6h0.4l-0.3.4c-0.4.7-.3,0.8,0.3,1.1a2.4,2.4,0,0,1,.8.9,2.9,2.9,0,0,1,.1,1.6,2.7,2.7,0,0,0,.1,1.5c0.5,0.9,3.3.5,5.3,0.3L25,54a1.7,1.7,0,0,1,2,1.7l0.3,1.2,0.8-.7,0.7-.7,0.5-.4a17,17,0,0,1,3.1-2.3,11.8,11.8,0,0,1,5.1-1.2v0.8a10.9,10.9,0,0,0-4.8,1.2,16.8,16.8,0,0,0-2.9,2.1l-0.5.4-0.7.5A5.1,5.1,0,0,1,26.7,58h0Z" transform="translate(30.9 12.5)"/>
  </g>
  <g>
    <path class="cls-1" d="M218.8,88.3L159.1-12.5,99.1,88.3H218.8Z" transform="translate(30.9 12.5)"/>
    <path class="cls-3" d="M169.5,30.9h-0.1V30.5h0.4a0.8,0.8,0,0,0,.8-0.5,1.5,1.5,0,0,0-.4-1.1H170V28.5h0.1a0.8,0.8,0,0,0,.1-0.5,1.3,1.3,0,0,0-.8-0.9h-0.1V26.7c0-.4-0.1-1.2-1.9-2.8a1.7,1.7,0,0,0-1.6-.5v0.3l-0.3-.3a1.1,1.1,0,0,0-1.3,0H164V23.1a1.5,1.5,0,0,0-1.3-.3H162V22.3a1.2,1.2,0,0,0-1.6-.3v0.3h-0.8l-0.3.3h-0.3a1.2,1.2,0,0,0-1.3,0,0.5,0.5,0,0,0-.1.7l-0.7.3a0.5,0.5,0,0,0-.4-0.4h0l-0.5.3h0a1.6,1.6,0,0,0-.3,1.1v0.4h-0.4a1.3,1.3,0,0,0-.8.8v0.3h0l-0.5.7-0.3.3a2.4,2.4,0,0,0-.3,2.5v0.3l-0.3.3a0.7,0.7,0,0,0-.3.5,1.3,1.3,0,0,0,.4.9,2,2,0,0,0,2.7,0l0.5,0.5c-0.7.7,0.4,1.9,0.5,2l0.4,0.5a0.9,0.9,0,0,0,.7.5h0.4a3.9,3.9,0,0,1,2.9,0c1.3,0.7,2.4,2.5,3.1,5.3h0a5.9,5.9,0,0,1,0-1.5V38.2h0a1.6,1.6,0,0,1,1.3-1.3,6.8,6.8,0,0,0,3.5-3.1,0.9,0.9,0,0,0,0-.5A2.5,2.5,0,0,0,169.5,30.9Zm-4.7,9.3a1.3,1.3,0,0,1-.9.4h-0.4V40.3q-1-4.2-2.8-5.2a2.4,2.4,0,0,0-2.1,0h-0.9a1.6,1.6,0,0,1-1.2-.8l-0.4-.4a3.2,3.2,0,0,1-.9-2,2.9,2.9,0,0,1-2.7-.5,1.7,1.7,0,0,1-.7-1.5,1.3,1.3,0,0,1,.3-0.8,3.2,3.2,0,0,1,.5-3.2l0.3-.3,0.5-.5h0.1a2.4,2.4,0,0,1,1.1-1.1,2.5,2.5,0,0,1,.4-1.2,1.3,1.3,0,0,1,1.2-.8h0.5l0.4-.4a1.9,1.9,0,0,1,2-.1H160a2,2,0,0,1,2.4.3,2.4,2.4,0,0,1,1.7.4,1.9,1.9,0,0,1,1.7.1,2.7,2.7,0,0,1,2.4.7,5.3,5.3,0,0,1,2.1,3.2,1.9,1.9,0,0,1,.9,1.5,1.5,1.5,0,0,1-.1.8,2.3,2.3,0,0,1,.4,1.6,1.5,1.5,0,0,1-1.1,1.1,3.2,3.2,0,0,1-.5,1.7,1.2,1.2,0,0,1,0,.7,7.5,7.5,0,0,1-4,3.6,1.1,1.1,0,0,0-.7.7v0.7a4.9,4.9,0,0,0,0,1.5,0.8,0.8,0,0,1-.1.5h0Zm-8.1,16.5V56.4a8.9,8.9,0,0,1-.5-1.6c-0.1-.9-0.3-1.1-1.3-1.2l-2.3.3c-2.4.4-5.3,0.8-6-.7a3.3,3.3,0,0,1-.1-1.9,2.5,2.5,0,0,0,0-1.3l-0.5-.7a1.3,1.3,0,0,1-.5-1.7,1.7,1.7,0,0,1-.8-2.3V44.8c0.1-.8,0-0.9-0.5-1.1a2.3,2.3,0,0,1-1.2-.8c-0.7-.9,0-2,0.5-2.8l0.3-.4a7,7,0,0,0,.9-4.5c-1.3-7.2,1.3-12.8,7-15.7S167.3,17.7,172,23c2.9,3.2,6.4,10.5-1.7,23.4h-0.1c0,0.5.1,0.9,0.1,1.6s0.3,2,.3,2.8h-0.8a20,20,0,0,0-.3-2.7c-0.1-.9-0.1-1.3-0.3-2V45.7h0.4c7.7-12.4,4.4-19.3,1.7-22.3s-12.9-6.4-19.4-3.2-7.8,8.1-6.6,14.8a7.7,7.7,0,0,1-.9,5.1l-0.3.5c-0.5.8-.9,1.5-0.5,2a1.5,1.5,0,0,0,.9.5,1.3,1.3,0,0,1,1.2,1.5v0.9c-0.1.9-.3,1.2,0.7,1.6h0.4l-0.3.4c-0.4.7-.3,0.8,0.3,1.1a2.4,2.4,0,0,1,.8.9,2.9,2.9,0,0,1,.1,1.6,2.7,2.7,0,0,0,.1,1.5c0.5,0.9,3.3.5,5.3,0.3l2.4-.3a1.7,1.7,0,0,1,2,1.7l0.3,1.2,0.8-.7,0.7-.7,0.5-.4a17,17,0,0,1,3.1-2.3,11.8,11.8,0,0,1,5.1-1.2v0.8a10.9,10.9,0,0,0-4.8,1.2,16.8,16.8,0,0,0-2.9,2.1l-0.5.4-0.7.5a5.1,5.1,0,0,1-1.7,1.2h-0.4Z" transform="translate(30.9 12.5)"/>
    <text class="cls-4" transform="translate(148.5 93.4) scale(1 1.1)">Racionalização</text>
  </g>
</svg>
