<svg id="Camada_1" data-name="Camada 1" xmlns="http://www.w3.org/2000/svg" width="249.7" height="100.8" viewBox="0 0 249.7 100.8">
  <defs>
    <style>
      .cls-1 {
        fill: #00307f;
      }

      .cls-2 {
        isolation: isolate;
      }

      .cls-3 {
        fill: #fff;
      }
    </style>
  </defs>
  <title>triangulo1b</title>
  <g>
    <path class="cls-1" d="M89,97.7H5.5L59.8,6.1l54.4,91.6H103.1v3.1h16.6L60,0,0,100.8H89V97.7h0Z"/>
    <g class="cls-2">
      <g class="cls-2">
        <path class="cls-1" d="M40,93.4V83.2h2.3a2.9,2.9,0,0,1,2.1.7,2.9,2.9,0,0,1,.8,2.2,2.7,2.7,0,0,1-.8,2.1,3,3,0,0,1-2.1.8H41v4.4H40ZM41,84.1v4h1.5l0.7-.2,0.6-.3,0.4-.6a2.5,2.5,0,0,0,.2-0.9,2.1,2.1,0,0,0-.5-1.5,1.7,1.7,0,0,0-1.4-.5H41Z"/>
      </g>
      <g class="cls-2">
        <path class="cls-1" d="M46.6,93.4V87.6q0-1.1-.1-1.7h0.9v1.4h0a3,3,0,0,1,.7-1.1,1.4,1.4,0,0,1,1-.4h0.6v0.9H49.2a1.3,1.3,0,0,0-1,.5,2.6,2.6,0,0,0-.5,1.1,6.8,6.8,0,0,0-.1,1.4v3.7H46.6Z"/>
      </g>
      <g class="cls-2">
        <path class="cls-1" d="M55.3,92.2v0.9a4.7,4.7,0,0,1-2,.4A2.7,2.7,0,0,1,51,92.5a4.9,4.9,0,0,1-.7-2.9,4.7,4.7,0,0,1,.8-2.8,2.4,2.4,0,0,1,2.1-1.1,2.3,2.3,0,0,1,2,1,4.8,4.8,0,0,1,.7,2.7v0.5H51.2a3.4,3.4,0,0,0,.6,2,1.9,1.9,0,0,0,1.6.8l1-.2Zm-4.1-3.1h3.7a3.7,3.7,0,0,0-.4-1.8,1.4,1.4,0,0,0-1.3-.8,1.7,1.7,0,0,0-1.4.8A3.1,3.1,0,0,0,51.2,89.1Z"/>
        <path class="cls-1" d="M56.9,93.2V92.3a3.6,3.6,0,0,0,1.8.5,1.6,1.6,0,0,0,1.1-.4,1.2,1.2,0,0,0,.4-1,1.2,1.2,0,0,0-.4-0.8L59,90l-1-.5a2.4,2.4,0,0,1-.8-0.7,1.6,1.6,0,0,1-.3-1,1.8,1.8,0,0,1,.7-1.5,2.6,2.6,0,0,1,1.6-.5,4.3,4.3,0,0,1,1.7.3v0.8a3.3,3.3,0,0,0-1.5-.4,1.2,1.2,0,0,0-1.5,1.2,0.9,0.9,0,0,0,.3.7L58.9,89l1,0.5a2.6,2.6,0,0,1,.9.8,2.1,2.1,0,0,1,0,2.4,2.1,2.1,0,0,1-.9.7l-1.1.2A4.7,4.7,0,0,1,56.9,93.2Z"/>
        <path class="cls-1" d="M62.1,93.2V92.3a3.6,3.6,0,0,0,1.8.5,1.6,1.6,0,0,0,1.1-.4,1.2,1.2,0,0,0,.4-1,1.2,1.2,0,0,0-.4-0.8L64.2,90l-1-.5a2.4,2.4,0,0,1-.8-0.7,1.6,1.6,0,0,1-.3-1,1.8,1.8,0,0,1,.7-1.5,2.6,2.6,0,0,1,1.6-.5,4.3,4.3,0,0,1,1.7.3v0.8a3.3,3.3,0,0,0-1.5-.4A1.2,1.2,0,0,0,63,87.8a0.9,0.9,0,0,0,.3.7L64.1,89l1,0.5a2.6,2.6,0,0,1,.9.8,2.1,2.1,0,0,1,0,2.4,2.1,2.1,0,0,1-.9.7l-1.1.2A4.7,4.7,0,0,1,62.1,93.2Z"/>
        <path class="cls-1" d="M71.6,93.4V92.2h0a2.1,2.1,0,0,1-.9,1,2.5,2.5,0,0,1-1.3.4l-1.2-.2a1.5,1.5,0,0,1-.7-0.6l-0.3-.7a2.3,2.3,0,0,1-.1-0.6,2.9,2.9,0,0,1,.2-1.1,1.7,1.7,0,0,1,.5-0.7l0.7-.5,0.9-.3h2V88.5a2.4,2.4,0,0,0-.4-1.4,1.4,1.4,0,0,0-1.2-.5,3.4,3.4,0,0,0-2,.6V86.3a4.2,4.2,0,0,1,2-.5,2.4,2.4,0,0,1,1.9.7,3.2,3.2,0,0,1,.6,2.1v3.3a13.3,13.3,0,0,0,.1,1.6H71.6Zm-0.1-3.3V89.6H70.2l-1,.2a1.5,1.5,0,0,0-.8.5,1.6,1.6,0,0,0-.3,1,1.3,1.3,0,0,0,.4,1,1.5,1.5,0,0,0,1,.3l1-.2,0.6-.5a2.1,2.1,0,0,0,.3-0.7V90.7C71.6,90.5,71.6,90.3,71.6,90.1Zm-2.9-5.3H68.2a2.4,2.4,0,0,1,.4-0.9,0.8,0.8,0,0,1,.7-0.4l0.8,0.2,0.6,0.2h0.4a0.6,0.6,0,0,0,.2-0.4h0.5a1.6,1.6,0,0,1-.4,1l-0.7.3-0.8-.2-0.6-.2H68.9Z"/>
        <path class="cls-1" d="M74.7,92.4a5.2,5.2,0,0,1,0-5.6,3,3,0,0,1,4.7,0,5.2,5.2,0,0,1,0,5.6A3,3,0,0,1,74.7,92.4Zm0.7-5a4.5,4.5,0,0,0,0,4.5,2,2,0,0,0,3.3,0,4.5,4.5,0,0,0,0-4.5A2,2,0,0,0,75.4,87.4Z"/>
      </g>
    </g>
    <g>
      <path class="cls-1" d="M70.4,40.1a6.7,6.7,0,0,0,0-4.1,7.2,7.2,0,0,0-4.3-4.6,8.5,8.5,0,0,0-11,3,4.9,4.9,0,0,0-2.5-.6A4.6,4.6,0,0,0,48,37.7a6.7,6.7,0,0,0-5.9,6.7c0,3.5,3,6.2,6.8,6.2h3.9v-1H49a5.4,5.4,0,0,1-5.8-5h0V44.1a5.8,5.8,0,0,1,5.4-5.8H49V37.9a3.7,3.7,0,0,1,3.7-3.4,3.9,3.9,0,0,1,2.3.8l0.5,0.4,0.3-.5c1.7-3.4,6.1-4.6,9.9-3a6.2,6.2,0,0,1,3.7,4,5.4,5.4,0,0,1-.3,4l-0.5.8h0.9c3.1,0,5,1.5,5,4.1a4.3,4.3,0,0,1-4.3,4.1H63v1h7.4A5.2,5.2,0,0,0,75.6,45h0C75.6,42.8,74.1,40.4,70.4,40.1Z"/>
      <path class="cls-1" d="M60.9,49.3H55.4l-2.8,8.8h5l-1.9,9.2L66.1,53.8H59.3Zm3.2,5.4-6.7,8.5L58.7,57H53.9l2.3-6.8h3.4l-1.7,4.5h6.2Z"/>
    </g>
  </g>
  <g>
    <path class="cls-1" d="M249.7,100.8L190,0,130,100.8H249.7Z"/>
    <g class="cls-2">
      <g class="cls-2">
        <path class="cls-3" d="M170,93.4V83.2h2.3a2.9,2.9,0,0,1,2.1.7,2.9,2.9,0,0,1,.8,2.2,2.7,2.7,0,0,1-.8,2.1,3,3,0,0,1-2.1.8H171v4.4H170Zm0.9-9.3v4h1.5l0.7-.2,0.6-.3,0.4-.6a2.5,2.5,0,0,0,.2-0.9,2.1,2.1,0,0,0-.5-1.5,1.7,1.7,0,0,0-1.4-.5H171Z"/>
      </g>
      <g class="cls-2">
        <path class="cls-3" d="M176.6,93.4V87.6q0-1.1-.1-1.7h0.9v1.4h0a3,3,0,0,1,.7-1.1,1.4,1.4,0,0,1,1-.4h0.6v0.9h-0.6a1.3,1.3,0,0,0-1,.5,2.6,2.6,0,0,0-.5,1.1,6.8,6.8,0,0,0-.1,1.4v3.7h-0.9Z"/>
      </g>
      <g class="cls-2">
        <path class="cls-3" d="M185.3,92.2v0.9a4.7,4.7,0,0,1-2,.4,2.7,2.7,0,0,1-2.3-1.1,4.9,4.9,0,0,1-.7-2.9,4.7,4.7,0,0,1,.8-2.8,2.4,2.4,0,0,1,2.1-1.1,2.3,2.3,0,0,1,2,1,4.8,4.8,0,0,1,.7,2.7v0.5h-4.6a3.4,3.4,0,0,0,.6,2,1.9,1.9,0,0,0,1.6.8l1-.2Zm-4.1-3.1h3.7a3.7,3.7,0,0,0-.4-1.8,1.4,1.4,0,0,0-1.3-.8,1.7,1.7,0,0,0-1.4.8A3.1,3.1,0,0,0,181.2,89.1Z"/>
        <path class="cls-3" d="M186.9,93.2V92.3a3.6,3.6,0,0,0,1.8.5,1.6,1.6,0,0,0,1.1-.4,1.2,1.2,0,0,0,.4-1,1.2,1.2,0,0,0-.4-0.8L189,90l-1-.5a2.4,2.4,0,0,1-.8-0.7,1.6,1.6,0,0,1-.3-1,1.8,1.8,0,0,1,.7-1.5,2.6,2.6,0,0,1,1.6-.5,4.3,4.3,0,0,1,1.7.3v0.8a3.3,3.3,0,0,0-1.5-.4,1.2,1.2,0,0,0-1.5,1.2,0.9,0.9,0,0,0,.3.7l0.8,0.5,1,0.5a2.6,2.6,0,0,1,.9.8,2.1,2.1,0,0,1,0,2.4,2.1,2.1,0,0,1-.9.7l-1.1.2A4.7,4.7,0,0,1,186.9,93.2Z"/>
        <path class="cls-3" d="M192.1,93.2V92.3a3.6,3.6,0,0,0,1.8.5,1.6,1.6,0,0,0,1.1-.4,1.2,1.2,0,0,0,.4-1,1.2,1.2,0,0,0-.4-0.8l-0.9-.6-1-.5a2.4,2.4,0,0,1-.8-0.7,1.6,1.6,0,0,1-.3-1,1.8,1.8,0,0,1,.7-1.5,2.6,2.6,0,0,1,1.6-.5,4.3,4.3,0,0,1,1.7.3v0.8a3.3,3.3,0,0,0-1.5-.4,1.2,1.2,0,0,0-1.5,1.2,0.9,0.9,0,0,0,.3.7l0.8,0.5,1,0.5a2.6,2.6,0,0,1,.9.8,2.1,2.1,0,0,1,0,2.4,2.1,2.1,0,0,1-.9.7l-1.1.2A4.7,4.7,0,0,1,192.1,93.2Z"/>
        <path class="cls-3" d="M201.6,93.4V92.2h0a2.1,2.1,0,0,1-.9,1,2.5,2.5,0,0,1-1.3.4l-1.2-.2a1.5,1.5,0,0,1-.7-0.6l-0.3-.7a2.3,2.3,0,0,1-.1-0.6,2.9,2.9,0,0,1,.2-1.1,1.7,1.7,0,0,1,.5-0.7l0.7-.5,0.9-.3h2V88.5a2.4,2.4,0,0,0-.4-1.4,1.4,1.4,0,0,0-1.2-.5,3.4,3.4,0,0,0-2,.6V86.3a4.2,4.2,0,0,1,2-.5,2.4,2.4,0,0,1,1.9.7,3.2,3.2,0,0,1,.6,2.1v3.3a13.4,13.4,0,0,0,.1,1.6h-0.9Zm-0.1-3.3V89.6h-1.4l-1,.2a1.5,1.5,0,0,0-.8.5,1.6,1.6,0,0,0-.3,1,1.3,1.3,0,0,0,.4,1,1.5,1.5,0,0,0,1,.3l1-.2,0.6-.5a2.1,2.1,0,0,0,.3-0.7V90.7C201.6,90.5,201.6,90.3,201.6,90.1Zm-2.9-5.3h-0.5a2.4,2.4,0,0,1,.4-0.9,0.8,0.8,0,0,1,.7-0.4l0.8,0.2,0.6,0.2h0.4a0.6,0.6,0,0,0,.2-0.4h0.5a1.6,1.6,0,0,1-.4,1l-0.7.3-0.8-.2-0.6-.2h-0.4Z"/>
        <path class="cls-3" d="M204.7,92.4a5.2,5.2,0,0,1,0-5.6,3,3,0,0,1,4.7,0,5.2,5.2,0,0,1,0,5.6A3,3,0,0,1,204.7,92.4Zm0.7-5a4.5,4.5,0,0,0,0,4.5,2,2,0,0,0,3.3,0,4.5,4.5,0,0,0,0-4.5A2,2,0,0,0,205.4,87.4Z"/>
      </g>
    </g>
    <g>
      <path class="cls-3" d="M201.4,40.1a6.7,6.7,0,0,0,0-4.1,7.2,7.2,0,0,0-4.3-4.6,8.5,8.5,0,0,0-11,3,4.9,4.9,0,0,0-2.5-.6,4.6,4.6,0,0,0-4.6,3.9,6.7,6.7,0,0,0-5.9,6.7c0,3.5,3,6.2,6.8,6.2h3.9v-1h-3.9a5.4,5.4,0,0,1-5.8-5h0V44.1a5.8,5.8,0,0,1,5.4-5.8h0.4V37.9a3.7,3.7,0,0,1,3.7-3.4,3.9,3.9,0,0,1,2.3.8l0.5,0.4,0.3-.5c1.7-3.4,6.1-4.6,9.9-3a6.2,6.2,0,0,1,3.7,4,5.4,5.4,0,0,1-.3,4l-0.5.8h0.9c3.1,0,5,1.5,5,4.1a4.3,4.3,0,0,1-4.3,4.1h-7.4v1h7.4a5.2,5.2,0,0,0,5.2-5.2h0C206.6,42.8,205.1,40.4,201.4,40.1Z"/>
      <path class="cls-3" d="M191.9,49.3h-5.4l-2.8,8.8h5l-1.9,9.2,10.5-13.4h-6.8Zm3.2,5.4-6.7,8.5,1.3-6.2h-4.8l2.3-6.8h3.4l-1.7,4.5h6.2Z"/>
    </g>
  </g>
</svg>
