<svg id="Camada_1" data-name="Camada 1" xmlns="http://www.w3.org/2000/svg" width="249.7" height="100.8" viewBox="0 0 249.7 100.8">
  <defs>
    <style>
      .cls-1 {
        fill: #00307f;
      }

      .cls-2 {
        isolation: isolate;
      }

      .cls-3 {
        fill: #fff;
      }
    </style>
  </defs>
  <title>triangulo3b</title>
  <g>
    <path class="cls-1" d="M89,97.7H5.5L59.8,6.1l54.4,91.6H103.1v3.1h16.6L60,0,0,100.8H89V97.7h0Z"/>
    <g class="cls-2">
      <path class="cls-1" d="M19.7,93.4V83.2h2.4q2.7,0,2.7,2.6a2.3,2.3,0,0,1-.6,1.6,2.4,2.4,0,0,1-1.5.8h0l0.6,0.2,0.3,0.4,0.3,0.6,1.6,3.9H24.5l-1.3-3.5a2.5,2.5,0,0,0-.7-1.1,2.1,2.1,0,0,0-1.1-.2H20.6v4.8H19.7Zm0.9-9.3v3.6h1l1.1-.2a1.9,1.9,0,0,0,.9-0.6,1.7,1.7,0,0,0,.4-1.1,2.2,2.2,0,0,0-.1-0.8l-0.3-.5-0.5-.3H20.6Z"/>
      <path class="cls-1" d="M30.8,93.4V92.2h0a2.1,2.1,0,0,1-.9,1,2.5,2.5,0,0,1-1.3.4l-1.2-.2a1.5,1.5,0,0,1-.7-0.6l-0.3-.7a2.3,2.3,0,0,1-.1-0.6,2.9,2.9,0,0,1,.2-1.1,1.7,1.7,0,0,1,.5-0.7l0.7-.5,0.9-.3h2V88.5a2.4,2.4,0,0,0-.4-1.4,1.4,1.4,0,0,0-1.2-.5,3.4,3.4,0,0,0-2,.6V86.3a4.2,4.2,0,0,1,2-.5,2.4,2.4,0,0,1,1.9.7,3.2,3.2,0,0,1,.6,2.1v3.3a13.3,13.3,0,0,0,.1,1.6H30.8Zm-0.1-3.3V89.6H29.4l-1,.2a1.5,1.5,0,0,0-.8.5,1.6,1.6,0,0,0-.3,1,1.3,1.3,0,0,0,.4,1,1.5,1.5,0,0,0,1,.3l1-.2,0.6-.5a2.1,2.1,0,0,0,.3-0.7V90.7C30.8,90.5,30.8,90.3,30.8,90.1Z"/>
      <path class="cls-1" d="M38.1,86.1v0.9a3.4,3.4,0,0,0-1.4-.4,2.3,2.3,0,0,0-1.9.9,3.5,3.5,0,0,0-.7,2.3,3.6,3.6,0,0,0,.7,2.2,2.1,2.1,0,0,0,1.8.9,4.1,4.1,0,0,0,1.5-.3v0.9a4.9,4.9,0,0,1-1.7.3,2.8,2.8,0,0,1-2.4-1.1,4.5,4.5,0,0,1-.8-2.8,4.2,4.2,0,0,1,.9-2.8,3,3,0,0,1,2.4-1.1Z"/>
      <path class="cls-1" d="M40.4,82.7v1.2H39.5V82.7h0.9ZM39.5,93.4V85.9h0.9v7.5H39.5Z"/>
      <path class="cls-1" d="M42.7,92.4a5.2,5.2,0,0,1,0-5.6,3,3,0,0,1,4.7,0,5.2,5.2,0,0,1,0,5.6A3,3,0,0,1,42.7,92.4Zm0.7-5a4.5,4.5,0,0,0,0,4.5,2,2,0,0,0,3.3,0,4.5,4.5,0,0,0,0-4.5A2,2,0,0,0,43.4,87.4Z"/>
      <path class="cls-1" d="M49.8,93.4V87.7q0-1.2-.1-1.8h0.9v1.3h0a2.9,2.9,0,0,1,.8-1.1,2.6,2.6,0,0,1,3.2.4,3.4,3.4,0,0,1,.6,2.1v4.8H54.4V88.9q0-2.3-1.6-2.3l-0.9.2a1.6,1.6,0,0,0-.6.7,3.7,3.7,0,0,0-.3.9,4.2,4.2,0,0,0-.1,1v4.1H49.8Z"/>
      <path class="cls-1" d="M61.1,93.4V92.2h0a2.1,2.1,0,0,1-.9,1,2.5,2.5,0,0,1-1.3.4l-1.2-.2a1.5,1.5,0,0,1-.7-0.6l-0.3-.7a2.3,2.3,0,0,1-.1-0.6,2.9,2.9,0,0,1,.2-1.1,1.7,1.7,0,0,1,.5-0.7l0.7-.5L59,89h2V88.5a2.4,2.4,0,0,0-.4-1.4,1.4,1.4,0,0,0-1.2-.5,3.4,3.4,0,0,0-2,.6V86.3a4.2,4.2,0,0,1,2-.5,2.4,2.4,0,0,1,1.9.7,3.2,3.2,0,0,1,.6,2.1v3.3a13.3,13.3,0,0,0,.1,1.6H61.1Zm-0.1-3.3V89.6H59.7l-1,.2a1.5,1.5,0,0,0-.8.5,1.6,1.6,0,0,0-.3,1,1.3,1.3,0,0,0,.4,1,1.5,1.5,0,0,0,1,.3l1-.2,0.6-.5a2.1,2.1,0,0,0,.3-0.7V90.7C61.1,90.5,61.1,90.3,61.1,90.1Z"/>
      <path class="cls-1" d="M63.9,93.4v-11h0.9v11H63.9Z"/>
      <path class="cls-1" d="M67.8,82.7v1.2H66.8V82.7h0.9ZM66.8,93.4V85.9h0.9v7.5H66.8Z"/>
      <path class="cls-1" d="M69.2,93.4V92.6l4.1-5.9H69.3V85.9h4.9v0.8l-4.1,5.9h4.1v0.8h-5Z"/>
      <path class="cls-1" d="M79.6,93.4V92.2h0a2.1,2.1,0,0,1-.9,1,2.5,2.5,0,0,1-1.3.4l-1.2-.2a1.5,1.5,0,0,1-.7-0.6l-0.3-.7a2.3,2.3,0,0,1-.1-0.6,2.9,2.9,0,0,1,.2-1.1,1.7,1.7,0,0,1,.5-0.7l0.7-.5,0.9-.3h2V88.5a2.4,2.4,0,0,0-.4-1.4,1.4,1.4,0,0,0-1.2-.5,3.4,3.4,0,0,0-2,.6V86.3a4.2,4.2,0,0,1,2-.5,2.4,2.4,0,0,1,1.9.7,3.2,3.2,0,0,1,.6,2.1v3.3a13.3,13.3,0,0,0,.1,1.6H79.6Zm-0.1-3.3V89.6H78.2l-1,.2a1.5,1.5,0,0,0-.8.5,1.6,1.6,0,0,0-.3,1,1.3,1.3,0,0,0,.4,1,1.5,1.5,0,0,0,1,.3l1-.2,0.6-.5a2.1,2.1,0,0,0,.3-0.7V90.7C79.5,90.5,79.5,90.3,79.5,90.1Z"/>
      <path class="cls-1" d="M86.8,86.1v0.9a3.4,3.4,0,0,0-1.4-.4,2.3,2.3,0,0,0-1.9.9,3.5,3.5,0,0,0-.7,2.3,3.6,3.6,0,0,0,.7,2.2,2.1,2.1,0,0,0,1.8.9,4.1,4.1,0,0,0,1.5-.3v0.9a4.9,4.9,0,0,1-1.7.3h0l-0.2.6h0.4a1.1,1.1,0,0,1,.7.3,0.9,0.9,0,0,1,.3.7q0,1-1.5,1l-1.3-.3V95.2a1.9,1.9,0,0,0,1.2.4,0.6,0.6,0,0,0,.7-0.5,0.5,0.5,0,0,0-.1-0.4H84.4l0.3-1.1a2.8,2.8,0,0,1-2.1-1.2,4.6,4.6,0,0,1-.7-2.6,4.2,4.2,0,0,1,.9-2.8,3,3,0,0,1,2.4-1.1Z"/>
      <path class="cls-1" d="M92.2,93.4V92.2h0a2.1,2.1,0,0,1-.9,1,2.5,2.5,0,0,1-1.3.4l-1.2-.2a1.5,1.5,0,0,1-.7-0.6l-0.3-.7a2.3,2.3,0,0,1-.1-0.6,2.9,2.9,0,0,1,.2-1.1,1.7,1.7,0,0,1,.5-0.7l0.7-.5,0.9-.3h2V88.5a2.4,2.4,0,0,0-.4-1.4,1.4,1.4,0,0,0-1.2-.5,3.4,3.4,0,0,0-2,.6V86.3a4.2,4.2,0,0,1,2-.5,2.4,2.4,0,0,1,1.9.7,3.2,3.2,0,0,1,.6,2.1v3.3a13.3,13.3,0,0,0,.1,1.6H92.2Zm-0.1-3.3V89.6H90.7l-1,.2a1.5,1.5,0,0,0-.8.5,1.6,1.6,0,0,0-.3,1,1.3,1.3,0,0,0,.4,1,1.5,1.5,0,0,0,1,.3l1-.2,0.6-.5a2.1,2.1,0,0,0,.3-0.7V90.7C92.1,90.5,92.1,90.3,92.1,90.1Zm-2.9-5.3H88.7a2.4,2.4,0,0,1,.4-0.9,0.8,0.8,0,0,1,.7-0.4l0.8,0.2,0.6,0.2h0.4a0.6,0.6,0,0,0,.2-0.4h0.5a1.6,1.6,0,0,1-.4,1l-0.7.3-0.8-.2-0.6-.2H89.4Z"/>
      <path class="cls-1" d="M95.2,92.4a5.2,5.2,0,0,1,0-5.6,3,3,0,0,1,4.7,0,5.2,5.2,0,0,1,0,5.6A3,3,0,0,1,95.2,92.4Zm0.7-5a4.5,4.5,0,0,0,0,4.5,2,2,0,0,0,3.3,0,4.5,4.5,0,0,0,0-4.5A2,2,0,0,0,95.9,87.4Z"/>
    </g>
    <path class="cls-1" d="M70.4,44.8H70.2V44.1h0.4a0.8,0.8,0,0,0,.8-0.5,1.5,1.5,0,0,0-.4-1.1H70.8V42.2h0.1a0.8,0.8,0,0,0,.1-0.5,1.3,1.3,0,0,0-.8-0.9H70.1V40.4c0-.4-0.1-1.2-1.9-2.8a1.7,1.7,0,0,0-1.6-.5v0.3l-0.3-.3a1.1,1.1,0,0,0-1.3,0H64.8V36.8a1.5,1.5,0,0,0-1.3-.3H63.2V36.2a1.2,1.2,0,0,0-1.6-.3v0.3H60.8l-0.3.3H60.3a1.2,1.2,0,0,0-1.3,0,0.5,0.5,0,0,0-.1.7h0l-0.7.3a0.5,0.5,0,0,0-.4-0.4h0l-0.5.3h0a1.6,1.6,0,0,0-.3,1.1v0.4H56.5a1.3,1.3,0,0,0-.8.8V40h0l-0.5.7-0.3.3a2.4,2.4,0,0,0-.3,2.5h0l-0.3.3a0.7,0.7,0,0,0-.3.5,1.3,1.3,0,0,0,.4.9,2,2,0,0,0,2.7,0l0.5,0.5c-0.7.7,0.4,1.9,0.5,2l0.4,0.5a0.9,0.9,0,0,0,.7.5h0.4a3.9,3.9,0,0,1,2.9,0c1.3,0.7,2.4,2.5,3.1,5.3h0a5.9,5.9,0,0,1,0-1.5V52h0a1.6,1.6,0,0,1,1.3-1.3,6.8,6.8,0,0,0,3.5-3.1,0.9,0.9,0,0,0,0-.5A2.5,2.5,0,0,0,70.4,44.8Zm-4.7,9.3a1.3,1.3,0,0,1-.9.4H64.4V54.3q-1-4.2-2.8-5.2a2.4,2.4,0,0,0-2.1,0h-1a1.6,1.6,0,0,1-1.2-.8l-0.4-.4a3.2,3.2,0,0,1-.9-2,2.9,2.9,0,0,1-2.7-.5,1.7,1.7,0,0,1-.7-1.5,1.3,1.3,0,0,1,.3-0.8,3.2,3.2,0,0,1,.5-3.2l0.3-.3,0.5-.5h0.1A2.4,2.4,0,0,1,55.4,38a2.5,2.5,0,0,1,.4-1.2A1.3,1.3,0,0,1,57,36h0.5l0.4-.4a1.9,1.9,0,0,1,2-.1h1a2,2,0,0,1,2.4.3,2.4,2.4,0,0,1,1.7.4,1.9,1.9,0,0,1,1.7.1,2.7,2.7,0,0,1,2.4.7,5.3,5.3,0,0,1,2.1,3.2,1.9,1.9,0,0,1,.9,1.5,1.5,1.5,0,0,1-.1.8,2.3,2.3,0,0,1,.4,1.6,1.5,1.5,0,0,1-1.1,1.1,3.2,3.2,0,0,1-.5,1.7,1.2,1.2,0,0,1,0,.7,7.5,7.5,0,0,1-4,3.6,1.1,1.1,0,0,0-.7.7v0.7a4.9,4.9,0,0,0,0,1.5,0.8,0.8,0,0,1-.1.5h0ZM57.6,70.6V70.3a8.9,8.9,0,0,1-.5-1.6c-0.1-.9-0.3-1.1-1.3-1.2l-2.3.3c-2.4.4-5.3,0.8-6-.7a3.3,3.3,0,0,1-.1-1.9,2.5,2.5,0,0,0,0-1.3l-0.5-.7a1.3,1.3,0,0,1-.5-1.7,1.7,1.7,0,0,1-.8-2.3h0V58.8c0.1-.8,0-0.9-0.5-1.1a2.3,2.3,0,0,1-1.2-.8c-0.7-.9,0-2,0.5-2.8l0.3-.4a7,7,0,0,0,.9-4.5c-1.3-7.2,1.3-12.8,7-15.7S68.2,31.6,72.9,37c2.9,3.2,6.4,10.5-1.7,23.4H70.6c0,0.5.1,0.9,0.1,1.6s0.3,2,.3,2.8H70.2a20,20,0,0,0-.3-2.7,10.6,10.6,0,0,0-.3-2V59.7H70c7.7-12.4,4.4-19.3,1.7-22.3S58.9,31,52.4,34.2,44.6,42.3,45.8,49a7.7,7.7,0,0,1-.9,5.1l-0.3.5c-0.5.8-.9,1.5-0.5,2a1.5,1.5,0,0,0,.9.5,1.3,1.3,0,0,1,1.1,1.4v0.9c-0.1.9-.3,1.2,0.7,1.6h0.4l-0.3.4c-0.4.7-.3,0.8,0.3,1.1a2.4,2.4,0,0,1,.8.9,2.9,2.9,0,0,1,.1,1.6,2.7,2.7,0,0,0,.1,1.5c0.5,0.9,3.3.5,5.3,0.3l2.4-.3a1.7,1.7,0,0,1,2,1.7l0.3,1.2,0.8-.7,0.7-.7,0.5-.4a17,17,0,0,1,3.1-2.3,11.8,11.8,0,0,1,5.1-1.2v0.8a10.9,10.9,0,0,0-4.8,1.2,16.8,16.8,0,0,0-2.9,2.1l-0.5.4-0.7.5a5.1,5.1,0,0,1-1.9,1.4h0Z"/>
  </g>
  <g>
    <path class="cls-1" d="M249.7,100.8L190,0,130,100.8H249.7Z"/>
    <path class="cls-3" d="M200.4,43.4h-0.1V43h0.4a0.8,0.8,0,0,0,.8-0.5,1.5,1.5,0,0,0-.4-1.1h-0.2V41H201a0.8,0.8,0,0,0,.1-0.5,1.3,1.3,0,0,0-.8-0.9h-0.1V39.2c0-.4-0.1-1.2-1.9-2.8a1.7,1.7,0,0,0-1.6-.5v0.3l-0.3-.3a1.1,1.1,0,0,0-1.3,0h-0.2V35.6a1.5,1.5,0,0,0-1.3-.3h-0.7V34.8a1.2,1.2,0,0,0-1.6-.3v0.3h-0.8l-0.3.3h-0.3a1.2,1.2,0,0,0-1.3,0,0.5,0.5,0,0,0-.1.7h0l-0.7.3a0.5,0.5,0,0,0-.4-0.4h0l-0.5.3h0a1.6,1.6,0,0,0-.3,1.1v0.4h-0.4a1.3,1.3,0,0,0-.8.8v0.3h0l-0.5.7-0.3.3a2.4,2.4,0,0,0-.3,2.5v0.3l-0.3.3a0.7,0.7,0,0,0-.3.5,1.3,1.3,0,0,0,.4.9,2,2,0,0,0,2.7,0l0.5,0.5c-0.7.7,0.4,1.9,0.5,2l0.4,0.5a0.9,0.9,0,0,0,.7.5h0.4a3.9,3.9,0,0,1,2.9,0c1.3,0.7,2.4,2.5,3.1,5.3h0a5.9,5.9,0,0,1,0-1.5V50.7h0a1.6,1.6,0,0,1,1.3-1.3,6.8,6.8,0,0,0,3.5-3.1,0.9,0.9,0,0,0,0-.5A2.5,2.5,0,0,0,200.4,43.4Zm-4.7,9.3a1.3,1.3,0,0,1-.9.4h-0.4V52.8q-1-4.2-2.8-5.2a2.4,2.4,0,0,0-2.1,0h-0.9a1.6,1.6,0,0,1-1.2-.8l-0.4-.4a3.2,3.2,0,0,1-.9-2,2.9,2.9,0,0,1-2.7-.5,1.7,1.7,0,0,1-.7-1.5,1.3,1.3,0,0,1,.3-0.8,3.2,3.2,0,0,1,.5-3.2l0.3-.3,0.5-.5h0.1a2.4,2.4,0,0,1,1.1-1.1,2.5,2.5,0,0,1,.4-1.2,1.3,1.3,0,0,1,1.2-.8h0.5l0.4-.4a1.9,1.9,0,0,1,2-.1h0.9a2,2,0,0,1,2.4.3,2.4,2.4,0,0,1,1.7.4,1.9,1.9,0,0,1,1.7.1,2.7,2.7,0,0,1,2.4.7,5.3,5.3,0,0,1,2.1,3.2,1.9,1.9,0,0,1,.9,1.5,1.5,1.5,0,0,1-.1.8,2.3,2.3,0,0,1,.4,1.6,1.5,1.5,0,0,1-1.1,1.1,3.2,3.2,0,0,1-.5,1.7,1.2,1.2,0,0,1,0,.7,7.5,7.5,0,0,1-4,3.6,1.1,1.1,0,0,0-.7.7v0.7a4.9,4.9,0,0,0,0,1.5,0.8,0.8,0,0,1-.1.5h0Zm-8.1,16.5V68.9a8.9,8.9,0,0,1-.5-1.6c-0.1-.9-0.3-1.1-1.3-1.2l-2.3.3c-2.4.4-5.3,0.8-6-.7a3.3,3.3,0,0,1-.1-1.9,2.5,2.5,0,0,0,0-1.3l-0.5-.7a1.3,1.3,0,0,1-.5-1.7,1.7,1.7,0,0,1-.8-2.3h0V57.3c0.1-.8,0-0.9-0.5-1.1a2.3,2.3,0,0,1-1.2-.8c-0.7-.9,0-2,0.5-2.8l0.3-.4a7,7,0,0,0,.9-4.5c-1.3-7.2,1.3-12.8,7-15.7s15.6-1.8,20.3,3.5c2.9,3.2,6.4,10.5-1.7,23.4h-0.1c0,0.5.1,0.9,0.1,1.6s0.3,2,.3,2.8h-0.8a20,20,0,0,0-.3-2.7,10.6,10.6,0,0,0-.3-2V58.2h0.4c7.7-12.4,4.4-19.3,1.7-22.3s-12.9-6.4-19.4-3.2-7.8,8.1-6.6,14.8a7.7,7.7,0,0,1-.9,5.1l-0.3.5c-0.5.8-.9,1.5-0.5,2a1.5,1.5,0,0,0,.9.5,1.3,1.3,0,0,1,1.2,1.4h0V58c-0.1.9-.3,1.2,0.7,1.6h0.4l-0.3.4c-0.4.7-.3,0.8,0.3,1.1a2.4,2.4,0,0,1,.8.9,2.9,2.9,0,0,1,.1,1.6,2.7,2.7,0,0,0,.1,1.5c0.5,0.9,3.3.5,5.3,0.3l2.4-.3a1.7,1.7,0,0,1,2,1.7l0.3,1.2,0.8-.7,0.7-.7,0.5-.4a17,17,0,0,1,3.1-2.3,11.8,11.8,0,0,1,5.1-1.2v0.8a10.9,10.9,0,0,0-4.8,1.2,16.8,16.8,0,0,0-2.9,2.1l-0.5.4-0.7.5a5.1,5.1,0,0,1-1.7,1.2h-0.4Z"/>
    <g class="cls-2">
      <path class="cls-3" d="M149.7,93.4V83.2h2.4q2.7,0,2.7,2.6a2.3,2.3,0,0,1-.6,1.6,2.4,2.4,0,0,1-1.5.8h0l0.6,0.2,0.3,0.4,0.3,0.6,1.6,3.9h-0.9l-1.3-3.5a2.5,2.5,0,0,0-.7-1.1l-1.1-.2h-0.8v4.8h-0.9Zm0.9-9.3v3.6h1l1.1-.2a1.9,1.9,0,0,0,.9-0.6,1.7,1.7,0,0,0,.4-1.1,2.2,2.2,0,0,0-.1-0.8l-0.3-.5-0.5-.3h-2.3Z"/>
      <path class="cls-3" d="M160.8,93.4V92.2h0a2.1,2.1,0,0,1-.9,1,2.5,2.5,0,0,1-1.3.4l-1.2-.2a1.5,1.5,0,0,1-.7-0.6l-0.3-.7a2.3,2.3,0,0,1-.1-0.6,2.9,2.9,0,0,1,.2-1.1,1.7,1.7,0,0,1,.5-0.7l0.7-.5,0.9-.3h2V88.5a2.4,2.4,0,0,0-.4-1.4,1.4,1.4,0,0,0-1.2-.5,3.4,3.4,0,0,0-2,.6V86.3a4.2,4.2,0,0,1,2-.5,2.4,2.4,0,0,1,1.9.7,3.1,3.1,0,0,1,.6,2.1v3.3a13.4,13.4,0,0,0,.1,1.6h-0.9Zm-0.1-3.3V89.6h-1.4l-1,.2a1.5,1.5,0,0,0-.8.5,1.6,1.6,0,0,0-.3,1,1.3,1.3,0,0,0,.4,1,1.5,1.5,0,0,0,1,.3l1-.2,0.6-.5a2.2,2.2,0,0,0,.3-0.7V90.7C160.8,90.5,160.8,90.3,160.8,90.1Z"/>
      <path class="cls-3" d="M168.1,86.1v0.9a3.4,3.4,0,0,0-1.5-.4,2.3,2.3,0,0,0-1.9.9,3.5,3.5,0,0,0-.7,2.3,3.6,3.6,0,0,0,.7,2.2,2.1,2.1,0,0,0,1.8.9,4.1,4.1,0,0,0,1.5-.3v0.9a4.9,4.9,0,0,1-1.7.3,2.8,2.8,0,0,1-2.4-1.1,4.5,4.5,0,0,1-.8-2.8,4.2,4.2,0,0,1,.9-2.8,3,3,0,0,1,2.4-1.1Z"/>
      <path class="cls-3" d="M170.4,82.7v1.2h-0.9V82.7h0.9Zm-0.9,10.7V85.9h0.9v7.5h-0.9Z"/>
      <path class="cls-3" d="M172.7,92.4a5.2,5.2,0,0,1,0-5.6,3,3,0,0,1,4.7,0,5.2,5.2,0,0,1,0,5.6A3,3,0,0,1,172.7,92.4Zm0.7-5a4.5,4.5,0,0,0,0,4.5,2,2,0,0,0,3.3,0,4.5,4.5,0,0,0,0-4.5A2,2,0,0,0,173.4,87.4Z"/>
      <path class="cls-3" d="M179.8,93.4V87.7q0-1.2-.1-1.8h0.9v1.3h0a2.9,2.9,0,0,1,.8-1.1,2.6,2.6,0,0,1,3.2.4,3.4,3.4,0,0,1,.6,2.1v4.8h-0.9V88.9q0-2.3-1.6-2.3l-0.9.2a1.6,1.6,0,0,0-.6.7,3.7,3.7,0,0,0-.3.9,4.2,4.2,0,0,0-.1,1v4.1h-0.9Z"/>
      <path class="cls-3" d="M191.1,93.4V92.2h0a2.1,2.1,0,0,1-.9,1,2.5,2.5,0,0,1-1.3.4l-1.2-.2a1.5,1.5,0,0,1-.7-0.6l-0.3-.7a2.3,2.3,0,0,1-.1-0.6,2.9,2.9,0,0,1,.2-1.1,1.7,1.7,0,0,1,.5-0.7l0.7-.5L189,89h2V88.5a2.4,2.4,0,0,0-.4-1.4,1.4,1.4,0,0,0-1.2-.5,3.4,3.4,0,0,0-2,.6V86.3a4.2,4.2,0,0,1,2-.5,2.4,2.4,0,0,1,1.9.7,3.1,3.1,0,0,1,.6,2.1v3.3a13.4,13.4,0,0,0,.1,1.6h-0.9Zm-0.1-3.3V89.6h-1.4l-1,.2a1.5,1.5,0,0,0-.8.5,1.6,1.6,0,0,0-.3,1,1.3,1.3,0,0,0,.4,1,1.5,1.5,0,0,0,1,.3l1-.2,0.6-.5a2.2,2.2,0,0,0,.3-0.7V90.7C191.1,90.5,191.1,90.3,191.1,90.1Z"/>
      <path class="cls-3" d="M193.9,93.4v-11h0.9v11h-0.9Z"/>
      <path class="cls-3" d="M197.8,82.7v1.2h-0.9V82.7h0.9Zm-0.9,10.7V85.9h0.9v7.5h-0.9Z"/>
      <path class="cls-3" d="M199.2,93.4V92.6l4.1-5.9h-3.9V85.9h4.9v0.8l-4.1,5.9h4.1v0.8h-5Z"/>
      <path class="cls-3" d="M209.6,93.4V92.2h0a2.1,2.1,0,0,1-.9,1,2.5,2.5,0,0,1-1.3.4l-1.2-.2a1.5,1.5,0,0,1-.7-0.6l-0.3-.7a2.3,2.3,0,0,1-.1-0.6,2.9,2.9,0,0,1,.2-1.1,1.7,1.7,0,0,1,.5-0.7l0.7-.5,0.9-.3h2V88.5a2.4,2.4,0,0,0-.4-1.4,1.4,1.4,0,0,0-1.2-.5,3.4,3.4,0,0,0-2,.6V86.3a4.2,4.2,0,0,1,2-.5,2.4,2.4,0,0,1,1.9.7,3.2,3.2,0,0,1,.6,2.1v3.3a13.2,13.2,0,0,0,.1,1.6h-0.9Zm-0.1-3.3V89.6h-1.4l-1,.2a1.5,1.5,0,0,0-.8.5,1.6,1.6,0,0,0-.3,1,1.3,1.3,0,0,0,.4,1,1.5,1.5,0,0,0,1,.3l1-.2,0.6-.5a2.1,2.1,0,0,0,.3-0.7V90.7C209.5,90.5,209.5,90.3,209.5,90.1Z"/>
      <path class="cls-3" d="M216.8,86.1v0.9a3.3,3.3,0,0,0-1.4-.4,2.3,2.3,0,0,0-1.9.9,3.5,3.5,0,0,0-.7,2.3,3.6,3.6,0,0,0,.7,2.2,2.1,2.1,0,0,0,1.8.9,4.1,4.1,0,0,0,1.5-.3v0.9a4.9,4.9,0,0,1-1.7.3h0l-0.2.6h0.4a1.1,1.1,0,0,1,.7.3,0.9,0.9,0,0,1,.3.7q0,1-1.5,1l-1.3-.3V95.2a1.9,1.9,0,0,0,1.2.4,0.6,0.6,0,0,0,.7-0.5,0.5,0.5,0,0,0-.1-0.4h-0.9l0.3-1.1a2.8,2.8,0,0,1-2.1-1.2,4.6,4.6,0,0,1-.7-2.6,4.2,4.2,0,0,1,.9-2.8,3,3,0,0,1,2.4-1.1Z"/>
      <path class="cls-3" d="M222.2,93.4V92.2h0a2.1,2.1,0,0,1-.9,1,2.5,2.5,0,0,1-1.3.4l-1.2-.2a1.5,1.5,0,0,1-.7-0.6l-0.3-.7a2.3,2.3,0,0,1-.1-0.6,2.9,2.9,0,0,1,.2-1.1,1.7,1.7,0,0,1,.5-0.7l0.7-.5,0.9-.3h2V88.5a2.4,2.4,0,0,0-.4-1.4,1.4,1.4,0,0,0-1.2-.5,3.4,3.4,0,0,0-2,.6V86.3a4.2,4.2,0,0,1,2-.5,2.4,2.4,0,0,1,1.9.7,3.2,3.2,0,0,1,.6,2.1v3.3a13.2,13.2,0,0,0,.1,1.6h-0.9Zm-0.1-3.3V89.6h-1.4l-1,.2a1.5,1.5,0,0,0-.8.5,1.6,1.6,0,0,0-.3,1,1.3,1.3,0,0,0,.4,1,1.5,1.5,0,0,0,1,.3l1-.2,0.6-.5a2.1,2.1,0,0,0,.3-0.7V90.7C222.1,90.5,222.1,90.3,222.1,90.1Zm-2.9-5.3h-0.5a2.4,2.4,0,0,1,.4-0.9,0.8,0.8,0,0,1,.7-0.4l0.8,0.2,0.6,0.2h0.4a0.6,0.6,0,0,0,.2-0.4h0.5a1.6,1.6,0,0,1-.4,1l-0.7.3-0.8-.2-0.6-.2h-0.4Z"/>
      <path class="cls-3" d="M225.2,92.4a5.2,5.2,0,0,1,0-5.6,3,3,0,0,1,4.7,0,5.2,5.2,0,0,1,0,5.6A3,3,0,0,1,225.2,92.4Zm0.7-5a4.5,4.5,0,0,0,0,4.5,2,2,0,0,0,3.3,0,4.5,4.5,0,0,0,0-4.5A2,2,0,0,0,225.9,87.4Z"/>
    </g>
  </g>
</svg>
