<svg id="Camada_1" data-name="Camada 1" xmlns="http://www.w3.org/2000/svg" width="249.7" height="100.8" viewBox="0 0 249.7 100.8">
  <defs>
    <style>
      .cls-1 {
        fill: #00307f;
      }

      .cls-2 {
        isolation: isolate;
      }

      .cls-3 {
        fill: #fdfeff;
      }

      .cls-4 {
        fill: #fff;
      }
    </style>
  </defs>
  <title>triangulo2b</title>
  <g>
    <path class="cls-1" d="M89,97.7H5.5L59.8,6.1l54.4,91.6H103.1v3.1h16.6L60,0,0,100.8H89V97.7h0Z"/>
    <g class="cls-2">
      <path class="cls-1" d="M21,88.3a6.3,6.3,0,0,1,1-3.8,3.5,3.5,0,0,1,3-1.5,3.5,3.5,0,0,1,3,1.5,6.3,6.3,0,0,1,1,3.8,6.5,6.5,0,0,1-1.1,3.8,3.5,3.5,0,0,1-3,1.4,3.5,3.5,0,0,1-3-1.4A6.5,6.5,0,0,1,21,88.3Zm6.4-3.1a2.8,2.8,0,0,0-4.7,0,6.3,6.3,0,0,0,0,6.2,2.8,2.8,0,0,0,4.7,0A6.3,6.3,0,0,0,27.4,85.2Z"/>
      <path class="cls-1" d="M30.9,96.5V85.9h0.9v1.4h0l0.2-.4,0.4-.5,0.7-.5,0.9-.2A2.3,2.3,0,0,1,36,86.8a5.2,5.2,0,0,1,.7,2.9,5,5,0,0,1-.7,2.8,2.3,2.3,0,0,1-2.1,1.1,2.1,2.1,0,0,1-2.1-1.4h0v4.3H30.9Zm4.8-5.7a6.6,6.6,0,0,0,0-2.2,4.2,4.2,0,0,0-.3-1,1.8,1.8,0,0,0-.6-0.7,1.7,1.7,0,0,0-1-.3,1.5,1.5,0,0,0-1.2.5,2.8,2.8,0,0,0-.6,1.2,5.7,5.7,0,0,0,0,2.8,2.8,2.8,0,0,0,.6,1.2,1.5,1.5,0,0,0,1.2.5,1.7,1.7,0,0,0,1-.3,1.8,1.8,0,0,0,.6-0.7A4.2,4.2,0,0,0,35.7,90.8Z"/>
      <path class="cls-1" d="M38.6,92.4a5.2,5.2,0,0,1,0-5.6,3,3,0,0,1,4.7,0,5.2,5.2,0,0,1,0,5.6A3,3,0,0,1,38.6,92.4Zm0.7-5a4.5,4.5,0,0,0,0,4.5,2,2,0,0,0,3.3,0,4.5,4.5,0,0,0,0-4.5A2,2,0,0,0,39.3,87.4Z"/>
      <path class="cls-1" d="M45.7,93.4V87.6q0-1.1-.1-1.7h0.9v1.4h0a3,3,0,0,1,.7-1.1,1.4,1.4,0,0,1,1-.4H49v0.9H48.3a1.3,1.3,0,0,0-1,.5,2.6,2.6,0,0,0-.5,1.1,6.8,6.8,0,0,0-.1,1.4v3.7H45.7Z"/>
      <path class="cls-1" d="M53.1,85.9v0.8H51.6v4.8q0,1.2.9,1.2l0.8-.2v0.8l-1,.2H51.6l-0.5-.3a1.3,1.3,0,0,1-.3-0.6,3.3,3.3,0,0,1-.1-0.7q0-.3,0-0.8V86.7H49.5V85.9h1.3V84.1l0.9-.3v2.1h1.5Z"/>
      <path class="cls-1" d="M60,85.9v5.7q0,1.2.1,1.8H59.2V92.1h0a2.9,2.9,0,0,1-.8,1.1,2.5,2.5,0,0,1-3.2-.4,3.4,3.4,0,0,1-.6-2.1V85.9h0.9v4.5q0,2.3,1.6,2.3l0.9-.2a1.6,1.6,0,0,0,.6-0.7A3.7,3.7,0,0,0,59,91a4.2,4.2,0,0,0,.1-1V85.9H60Z"/>
      <path class="cls-1" d="M62,93.4V87.7q0-1.2-.1-1.8h0.9v1.3h0a2.9,2.9,0,0,1,.8-1.1,2.6,2.6,0,0,1,3.2.4,3.4,3.4,0,0,1,.6,2.1v4.8H66.5V88.9q0-2.3-1.6-2.3l-0.9.2a1.6,1.6,0,0,0-.6.7,3.7,3.7,0,0,0-.3.9,4.2,4.2,0,0,0-.1,1v4.1H62Z"/>
      <path class="cls-1" d="M70.3,82.7v1.2H69.4V82.7h0.9ZM69.4,93.4V85.9h0.9v7.5H69.4Z"/>
      <path class="cls-1" d="M77.8,82.4v11H76.9V92.2h0a2.2,2.2,0,0,1-2.1,1.4,2.3,2.3,0,0,1-2.1-1.1,5,5,0,0,1-.7-2.8,5.2,5.2,0,0,1,.7-2.9,2.3,2.3,0,0,1,2.1-1.1,2,2,0,0,1,1.4.5,2.4,2.4,0,0,1,.7.9h0V82.4h0.9ZM73,88.6a6.6,6.6,0,0,0,0,2.2,4.2,4.2,0,0,0,.3,1,1.8,1.8,0,0,0,.6.7,1.7,1.7,0,0,0,1,.3,1.5,1.5,0,0,0,1.2-.5,2.8,2.8,0,0,0,.7-1.2,5.7,5.7,0,0,0,0-2.8,2.8,2.8,0,0,0-.7-1.2,1.5,1.5,0,0,0-1.2-.5,1.7,1.7,0,0,0-1,.3,1.8,1.8,0,0,0-.6.7A4.2,4.2,0,0,0,73,88.6Z"/>
      <path class="cls-1" d="M83.6,93.4V92.2h0a2.1,2.1,0,0,1-.9,1,2.5,2.5,0,0,1-1.3.4l-1.2-.2a1.5,1.5,0,0,1-.7-0.6l-0.3-.7a2.3,2.3,0,0,1-.1-0.6,2.9,2.9,0,0,1,.2-1.1,1.7,1.7,0,0,1,.5-0.7l0.7-.5,0.9-.3h2V88.5a2.4,2.4,0,0,0-.4-1.4,1.4,1.4,0,0,0-1.2-.5,3.4,3.4,0,0,0-2,.6V86.3a4.2,4.2,0,0,1,2-.5,2.4,2.4,0,0,1,1.9.7,3.2,3.2,0,0,1,.6,2.1v3.3a13.3,13.3,0,0,0,.1,1.6H83.6Zm-0.1-3.3V89.6H82.2l-1,.2a1.5,1.5,0,0,0-.8.5,1.6,1.6,0,0,0-.3,1,1.3,1.3,0,0,0,.4,1,1.5,1.5,0,0,0,1,.3l1-.2,0.6-.5a2.1,2.1,0,0,0,.3-0.7V90.7C83.5,90.5,83.6,90.3,83.6,90.1Z"/>
      <path class="cls-1" d="M91.8,82.4v11H90.9V92.2h0a2.2,2.2,0,0,1-2.1,1.4,2.3,2.3,0,0,1-2.1-1.1,5,5,0,0,1-.7-2.8,5.2,5.2,0,0,1,.7-2.9,2.3,2.3,0,0,1,2.1-1.1,2,2,0,0,1,1.4.5,2.4,2.4,0,0,1,.7.9h0V82.4h0.9ZM87,88.6a6.6,6.6,0,0,0,0,2.2,4.2,4.2,0,0,0,.3,1,1.8,1.8,0,0,0,.6.7,1.7,1.7,0,0,0,1,.3,1.5,1.5,0,0,0,1.2-.5,2.8,2.8,0,0,0,.7-1.2,5.7,5.7,0,0,0,0-2.8,2.8,2.8,0,0,0-.7-1.2,1.5,1.5,0,0,0-1.2-.5,1.7,1.7,0,0,0-1,.3,1.8,1.8,0,0,0-.6.7A4.2,4.2,0,0,0,87,88.6Z"/>
      <path class="cls-1" d="M98.3,92.2v0.9a4.7,4.7,0,0,1-2,.4A2.7,2.7,0,0,1,94,92.5a4.9,4.9,0,0,1-.7-2.9,4.7,4.7,0,0,1,.8-2.8,2.4,2.4,0,0,1,2.1-1.1,2.3,2.3,0,0,1,2,1,4.8,4.8,0,0,1,.7,2.7v0.5H94.2a3.4,3.4,0,0,0,.6,2,1.9,1.9,0,0,0,1.6.8l1-.2Zm-4.1-3.1h3.7a3.7,3.7,0,0,0-.4-1.8,1.4,1.4,0,0,0-1.3-.8,1.7,1.7,0,0,0-1.4.8A3.1,3.1,0,0,0,94.2,89.1Z"/>
    </g>
    <g>
      <path class="cls-1" d="M59.8,37.4a10,10,0,0,0-10,10h0a9.8,9.8,0,0,0,3.5,7.5v10h3.4a4.2,4.2,0,0,0,3,2.2c1.5,0,2.6-1.6,3-2.2h3.2v-3L54.4,59.4v-2l11.4,2.4V55.3a10,10,0,0,0-5.9-17.9H59.8ZM59.5,66a2.6,2.6,0,0,1-1.6-1.1h3.4A2.6,2.6,0,0,1,59.7,66H59.5Zm5.2-3.2v1.1H54.3V60.6Zm0-4L54.3,56.6V55.3H64.8v3.5H64.7Zm0.8-4.4H54.1a9,9,0,1,1,12.7-1.1l-1.1,1.1H65.5Z"/>
      <rect class="cls-1" x="42.3" y="49.1" width="4.8" height="0.98"/>
      <rect class="cls-1" x="46.4" y="35.6" width="0.9" height="4.9" transform="translate(-11.2 54.6) rotate(-55)"/>
      <rect class="cls-1" x="72.6" y="49.1" width="4.8" height="0.98"/>
      <rect class="cls-1" x="59" y="29.7" width="0.9" height="4.9"/>
      <rect class="cls-1" x="70.4" y="38.3" width="4.8" height="0.98" transform="translate(-9.1 48.5) rotate(-34.8)"/>
    </g>
  </g>
  <g>
    <path class="cls-1" d="M249.7,100.8L190,0,130,100.8H249.7Z"/>
    <g class="cls-2">
      <path class="cls-3" d="M151,88.3a6.3,6.3,0,0,1,1-3.8,3.8,3.8,0,0,1,6.1,0,6.3,6.3,0,0,1,1,3.8,6.5,6.5,0,0,1-1.1,3.8,3.9,3.9,0,0,1-6,0A6.5,6.5,0,0,1,151,88.3Zm6.4-3.1a2.8,2.8,0,0,0-4.7,0,6.3,6.3,0,0,0,0,6.2,2.8,2.8,0,0,0,4.7,0A6.3,6.3,0,0,0,157.4,85.2Z"/>
      <path class="cls-3" d="M160.9,96.5V85.9h0.9v1.4h0l0.2-.4,0.4-.5,0.7-.5,0.9-.2a2.3,2.3,0,0,1,2.1,1.1,5.2,5.2,0,0,1,.7,2.9,5,5,0,0,1-.7,2.8,2.3,2.3,0,0,1-2.1,1.1,2.1,2.1,0,0,1-2.1-1.4h0v4.3h-0.9Zm4.8-5.7a6.6,6.6,0,0,0,0-2.2,4.2,4.2,0,0,0-.3-1,1.8,1.8,0,0,0-.6-0.7,1.7,1.7,0,0,0-1-.3,1.5,1.5,0,0,0-1.2.5,2.8,2.8,0,0,0-.6,1.2,5.7,5.7,0,0,0,0,2.8,2.8,2.8,0,0,0,.6,1.2,1.5,1.5,0,0,0,1.2.5,1.7,1.7,0,0,0,1-.3,1.8,1.8,0,0,0,.6-0.7A4.2,4.2,0,0,0,165.7,90.8Z"/>
      <path class="cls-3" d="M168.6,92.4a5.2,5.2,0,0,1,0-5.6,3,3,0,0,1,4.7,0,5.2,5.2,0,0,1,0,5.6A3,3,0,0,1,168.6,92.4Zm0.7-5a4.5,4.5,0,0,0,0,4.5,2,2,0,0,0,3.3,0,4.5,4.5,0,0,0,0-4.5A2,2,0,0,0,169.3,87.4Z"/>
      <path class="cls-3" d="M175.7,93.4V87.6q0-1.1-.1-1.7h0.9v1.4h0a3,3,0,0,1,.7-1.1,1.4,1.4,0,0,1,1-.4H179v0.9h-0.6a1.3,1.3,0,0,0-1,.5,2.6,2.6,0,0,0-.5,1.1,6.8,6.8,0,0,0-.1,1.4v3.7h-0.9Z"/>
      <path class="cls-3" d="M183.1,85.9v0.8h-1.5v4.8q0,1.2.9,1.2l0.8-.2v0.8l-1,.2h-0.7l-0.5-.3a1.3,1.3,0,0,1-.3-0.6,3.4,3.4,0,0,1-.1-0.7c0-.2,0-0.5,0-0.8V86.7h-1.2V85.9h1.3V84.1l0.9-.3v2.1h1.5Z"/>
      <path class="cls-3" d="M190,85.9v5.7q0,1.2.1,1.8h-0.9V92.1h0a2.9,2.9,0,0,1-.8,1.1,2.5,2.5,0,0,1-3.2-.4,3.4,3.4,0,0,1-.6-2.1V85.9h0.9v4.5q0,2.3,1.6,2.3l0.9-.2a1.6,1.6,0,0,0,.6-0.7A3.7,3.7,0,0,0,189,91a4.1,4.1,0,0,0,.1-1V85.9H190Z"/>
      <path class="cls-3" d="M192,93.4V87.7q0-1.2-.1-1.8h0.9v1.3h0a2.9,2.9,0,0,1,.8-1.1,2.6,2.6,0,0,1,3.2.4,3.4,3.4,0,0,1,.6,2.1v4.8h-0.9V88.9q0-2.3-1.6-2.3l-0.9.2a1.6,1.6,0,0,0-.6.7,3.7,3.7,0,0,0-.3.9,4.2,4.2,0,0,0-.1,1v4.1H192Z"/>
      <path class="cls-3" d="M200.3,82.7v1.2h-0.9V82.7h0.9Zm-0.9,10.7V85.9h0.9v7.5h-0.9Z"/>
      <path class="cls-3" d="M207.8,82.4v11h-0.9V92.2h0a2.2,2.2,0,0,1-2.1,1.4,2.3,2.3,0,0,1-2.1-1.1,5,5,0,0,1-.7-2.8,5.2,5.2,0,0,1,.7-2.9,2.3,2.3,0,0,1,2.1-1.1,2,2,0,0,1,1.4.5,2.4,2.4,0,0,1,.7.9h0V82.4h0.9ZM203,88.6a6.6,6.6,0,0,0,0,2.2,4.1,4.1,0,0,0,.3,1,1.8,1.8,0,0,0,.6.7,1.7,1.7,0,0,0,1,.3,1.5,1.5,0,0,0,1.2-.5,2.8,2.8,0,0,0,.7-1.2,5.7,5.7,0,0,0,0-2.8,2.8,2.8,0,0,0-.7-1.2,1.5,1.5,0,0,0-1.2-.5,1.7,1.7,0,0,0-1,.3,1.8,1.8,0,0,0-.6.7A4.1,4.1,0,0,0,203,88.6Z"/>
      <path class="cls-3" d="M213.6,93.4V92.2h0a2.1,2.1,0,0,1-.9,1,2.5,2.5,0,0,1-1.3.4l-1.2-.2a1.5,1.5,0,0,1-.7-0.6l-0.3-.7a2.3,2.3,0,0,1-.1-0.6,2.9,2.9,0,0,1,.2-1.1,1.7,1.7,0,0,1,.5-0.7l0.7-.5,0.9-.3h2V88.5a2.4,2.4,0,0,0-.4-1.4,1.4,1.4,0,0,0-1.2-.5,3.4,3.4,0,0,0-2,.6V86.3a4.2,4.2,0,0,1,2-.5,2.4,2.4,0,0,1,1.9.7,3.1,3.1,0,0,1,.6,2.1v3.3a13.4,13.4,0,0,0,.1,1.6h-0.9Zm-0.1-3.3V89.6h-1.4l-1,.2a1.5,1.5,0,0,0-.8.5,1.6,1.6,0,0,0-.3,1,1.3,1.3,0,0,0,.4,1,1.5,1.5,0,0,0,1,.3l1-.2,0.6-.5a2.2,2.2,0,0,0,.3-0.7V90.7C213.5,90.5,213.6,90.3,213.6,90.1Z"/>
      <path class="cls-3" d="M221.8,82.4v11h-0.9V92.2h0a2.2,2.2,0,0,1-2.1,1.4,2.3,2.3,0,0,1-2.1-1.1,5,5,0,0,1-.7-2.8,5.2,5.2,0,0,1,.7-2.9,2.3,2.3,0,0,1,2.1-1.1,2,2,0,0,1,1.4.5,2.4,2.4,0,0,1,.7.9h0V82.4h0.9ZM217,88.6a6.6,6.6,0,0,0,0,2.2,4.1,4.1,0,0,0,.3,1,1.7,1.7,0,0,0,.6.7,1.7,1.7,0,0,0,1,.3,1.5,1.5,0,0,0,1.2-.5,2.8,2.8,0,0,0,.7-1.2,5.7,5.7,0,0,0,0-2.8,2.8,2.8,0,0,0-.7-1.2,1.5,1.5,0,0,0-1.2-.5,1.7,1.7,0,0,0-1,.3,1.8,1.8,0,0,0-.6.7A4.1,4.1,0,0,0,217,88.6Z"/>
      <path class="cls-3" d="M228.3,92.2v0.9a4.7,4.7,0,0,1-2,.4,2.7,2.7,0,0,1-2.3-1.1,4.8,4.8,0,0,1-.7-2.9,4.7,4.7,0,0,1,.8-2.8,2.4,2.4,0,0,1,2.1-1.1,2.3,2.3,0,0,1,2,1,4.8,4.8,0,0,1,.7,2.7v0.5h-4.6a3.4,3.4,0,0,0,.6,2,1.9,1.9,0,0,0,1.6.8l1-.2Zm-4.1-3.1h3.7a3.7,3.7,0,0,0-.4-1.8,1.4,1.4,0,0,0-1.3-.8,1.7,1.7,0,0,0-1.4.8A3.1,3.1,0,0,0,224.2,89.1Z"/>
    </g>
    <g>
      <path class="cls-4" d="M189.8,36.4a10,10,0,0,0-10,10h0a9.8,9.8,0,0,0,3.5,7.5v10h3.4a4.2,4.2,0,0,0,3,2.2c1.5,0,2.6-1.6,3-2.2h3.2v-3l-11.4-2.4v-2l11.4,2.4V54.3a10,10,0,0,0-6-17.9h-0.1ZM189.5,65a2.6,2.6,0,0,1-1.6-1.1h3.4a2.6,2.6,0,0,1-1.6,1.1h-0.2Zm5.2-3.2v1.1H184.3V59.6Zm0-4-10.5-2.2V54.3h10.5v3.5Zm0.8-4.4H184.1a9,9,0,1,1,12.7-1.1l-1.1,1.1h-0.2Z"/>
      <rect class="cls-4" x="172.3" y="48.1" width="4.8" height="0.98"/>
      <rect class="cls-4" x="176.3" y="34.6" width="0.9" height="4.9" transform="translate(45.1 160.6) rotate(-55)"/>
      <rect class="cls-4" x="202.6" y="48.1" width="4.8" height="0.98"/>
      <rect class="cls-4" x="189" y="28.7" width="0.9" height="4.9"/>
      <rect class="cls-4" x="200.4" y="37.2" width="4.8" height="0.98" transform="translate(15.1 123.1) rotate(-35)"/>
    </g>
  </g>
</svg>
