<svg id="Camada_1" data-name="Camada 1" xmlns="http://www.w3.org/2000/svg" width="249.7" height="100.8" viewBox="0 0 249.7 100.8">
  <defs>
    <style>
      .cls-1, .cls-2 {
        fill: #00307f;
      }

      .cls-2, .cls-3 {
        isolation: isolate;
        font-size: 13.3px;
        font-family: Frutiger;
      }

      .cls-3, .cls-4 {
        fill: #fff;
      }
    </style>
  </defs>
  <title>triangulo1</title>
  <g>
    <path class="cls-1" d="M58.1,85.2H-25.4L28.9-6.4,83.3,85.2H72.2v3.1H88.8L29.1-12.5l-60,100.8h89V85.2h0Z" transform="translate(30.9 12.5)"/>
    <text class="cls-2" transform="translate(38.9 93.4) scale(1 1.1)">P<tspan x="6.6" y="0">r</tspan><tspan x="10.8" y="0">essão</tspan></text>
    <g>
      <path class="cls-1" d="M39.5,27.6a6.7,6.7,0,0,0,0-4.1,7.2,7.2,0,0,0-4.3-4.6,8.5,8.5,0,0,0-11,3,4.9,4.9,0,0,0-2.5-.6,4.6,4.6,0,0,0-4.6,3.9,6.7,6.7,0,0,0-5.9,6.7c0,3.5,3,6.2,6.8,6.2h3.9v-1H18.1a5.4,5.4,0,0,1-5.8-5V31.6a5.8,5.8,0,0,1,5.4-5.8h0.4V25.4a3.7,3.7,0,0,1,3.7-3.4,3.9,3.9,0,0,1,2.3.8l0.5,0.4,0.3-.5c1.7-3.4,6.1-4.6,9.9-3a6.2,6.2,0,0,1,3.7,4,5.4,5.4,0,0,1-.3,4l-0.5.8h0.9c3.1,0,5,1.5,5,4.1a4.3,4.3,0,0,1-4.3,4.1H32.1v1h7.4a5.2,5.2,0,0,0,5.2-5.2h0C44.7,30.3,43.2,27.9,39.5,27.6Z" transform="translate(30.9 12.5)"/>
      <path class="cls-1" d="M30,36.8H24.5l-2.8,8.8h5l-1.9,9.2L35.2,41.3H28.4Zm3.2,5.4-6.7,8.5,1.3-6.2H23l2.3-6.8h3.4L27,42.2h6.2Z" transform="translate(30.9 12.5)"/>
    </g>
  </g>
  <g>
    <path class="cls-1" d="M218.8,88.3L159.1-12.5,99.1,88.3H218.8Z" transform="translate(30.9 12.5)"/>
    <text class="cls-3" transform="translate(168.9 93.4) scale(1 1.1)">P<tspan x="6.6" y="0">r</tspan><tspan x="10.8" y="0">essão</tspan></text>
    <g>
      <path class="cls-4" d="M170.5,27.6a6.7,6.7,0,0,0,0-4.1,7.2,7.2,0,0,0-4.3-4.6,8.5,8.5,0,0,0-11,3,4.9,4.9,0,0,0-2.5-.6,4.6,4.6,0,0,0-4.6,3.9,6.7,6.7,0,0,0-5.9,6.7c0,3.5,3,6.2,6.8,6.2h3.9v-1h-3.9a5.4,5.4,0,0,1-5.8-5V31.6a5.8,5.8,0,0,1,5.4-5.8h0.4V25.4a3.7,3.7,0,0,1,3.7-3.4,3.9,3.9,0,0,1,2.3.8l0.5,0.4,0.3-.5c1.7-3.4,6.1-4.6,9.9-3a6.2,6.2,0,0,1,3.7,4,5.4,5.4,0,0,1-.3,4l-0.5.8h0.9c3.1,0,5,1.5,5,4.1a4.3,4.3,0,0,1-4.3,4.1h-7.4v1h7.4a5.2,5.2,0,0,0,5.2-5.2h0C175.7,30.3,174.2,27.9,170.5,27.6Z" transform="translate(30.9 12.5)"/>
      <path class="cls-4" d="M161,36.8h-5.4l-2.8,8.8h5l-1.9,9.2,10.5-13.4h-6.8Zm3.2,5.4-6.7,8.5,1.3-6.2H154l2.3-6.8h3.4L158,42.2h6.2Z" transform="translate(30.9 12.5)"/>
    </g>
  </g>
</svg>
